<svg id="Calque_1" xmlns="http://www.w3.org/2000/svg" viewBox="0 0 281.9 199.3"><style>.st0{fill:#1d1e1c}.st1,.st2{fill:none}.st2{stroke:#000;stroke-width:2;stroke-miterlimit:10}</style><path class="st0" d="M12.1 176.4v1.6h-1.3c.6 1.8 1.1 3.2 1.4 4.3.3 1.1.6 1.8.7 2.1l.9 3c.3 1 .6 1.9.8 2.7h1.8v1.5h-6V190h2l-1.1-4H5.4l-1.1 4h2v1.5h-6V190h1.8c.3-.9.5-1.9.8-2.9.3-1 .6-2 1-3.1.3-1 .7-2.1 1-3.1.3-1 .7-2 1-3H4.7v-1.6h7.4zm-1.2 8c-.2-.6-.4-1.4-.7-2.4-.3-1.1-.7-2.4-1.3-4h-1c-.6 1.6-1 2.9-1.3 4-.3 1.1-.6 1.9-.7 2.4h5zM23.2 184.6v5.4h2v1.5H19V190h2v-12.1h-2v-1.6h12v4.2h-1.7v-2.7h-6.2v5h4.1v-1.5h1.3v4.7h-1.3v-1.5h-4zM38.4 184.6v5.4h2v1.5h-6.2V190h2v-12.1h-2v-1.6h12v4.2h-1.7v-2.7h-6.2v5h4.1v-1.5h1.3v4.7h-1.3v-1.5h-4zM49.2 177.9v-1.6h5.9v1.6h-1.9v8.6c0 .6.1 1.1.2 1.5.1.4.3.8.6 1.1.3.3.6.5 1.1.7.4.1 1 .2 1.6.2.7 0 1.2-.1 1.7-.2.5-.2.8-.4 1.1-.7s.5-.7.6-1.1c.1-.4.2-1 .2-1.5V178h-1.9v-1.6h5.9v1.6h-2v8.6c0 .9-.1 1.8-.4 2.4-.3.7-.7 1.2-1.2 1.6-.5.4-1.1.7-1.7.9s-1.4.3-2.1.3c-1.2 0-2.1-.1-2.9-.4-.7-.3-1.3-.7-1.7-1.2-.4-.5-.7-1-.9-1.7-.2-.6-.2-1.3-.2-2v-.5-1-1.4-1.5-1.5-2.7h-2zM70.1 190h2.3v-12.1h-3.5v3h-1.7v-4.6h12.4v4.6h-1.7v-3h-3.4V190h2.3v1.5h-6.7V190zM83 190h2v-12.1h-2v-1.6h12.8v4.2h-1.7v-2.7h-6.9v5H92v-1.5h1.3v4.7H92v-1.5h-4.7v5.4h6.9v-2.8h1.7v4.3H83V190zM99.4 177.9v-1.6h5.9v1.6h-1.9v8.6c0 .6.1 1.1.2 1.5.1.4.3.8.6 1.1.3.3.6.5 1.1.7.4.1 1 .2 1.6.2.7 0 1.2-.1 1.7-.2.5-.2.8-.4 1.1-.7s.5-.7.6-1.1.2-1 .2-1.5V178h-1.9v-1.6h5.9v1.6h-2v8.6c0 .9-.1 1.8-.4 2.4-.3.7-.7 1.2-1.2 1.6-.5.4-1.1.7-1.7.9-.7.2-1.4.3-2.1.3-1.2 0-2.1-.1-2.9-.4-.7-.3-1.3-.7-1.7-1.2-.4-.5-.7-1-.9-1.7-.2-.6-.2-1.3-.2-2v-.5-1-1.4-1.5-1.5-2.7h-2zM117.7 190h2.1v-12.1h-2.1v-1.6h7.2c.9 0 1.6.1 2.2.3s1.1.5 1.6.8c.4.3.7.8.9 1.2.2.5.3 1 .3 1.6 0 1-.3 1.9-.8 2.6-.6.7-1.4 1.1-2.6 1.3l3.1 5.8h1.9v1.5h-3.3l-3.7-7.1H122v5.5h2v1.5h-6.3V190zm7.1-7.1c.6 0 1-.1 1.4-.2.4-.2.7-.4.9-.6s.4-.5.5-.8c.1-.3.1-.6.1-.9 0-.7-.3-1.3-.8-1.7-.5-.4-1.3-.6-2.2-.6h-2.8v5h2.9zM152.7 176.4v1.6h-1.3c.6 1.8 1.1 3.2 1.4 4.3.3 1.1.6 1.8.7 2.1l.9 3c.3 1 .6 1.9.8 2.7h1.8v1.5h-6V190h2l-1.1-4h-5.8l-1.1 4h2v1.5h-6V190h1.8c.3-.9.5-1.9.8-2.9.3-1 .6-2 1-3.1.3-1 .7-2.1 1-3.1.3-1 .7-2 1-3h-1.3v-1.6h7.4zm-1.2 8c-.2-.6-.4-1.4-.7-2.4-.3-1.1-.7-2.4-1.3-4h-1c-.6 1.6-1 2.9-1.3 4-.3 1.1-.6 1.9-.7 2.4h5zM161.7 177.9h-1.9v-1.6h5.1l2.2 5.5 2.2 5.5 4.4-11h5.1v1.6h-1.9V190h1.9v1.5h-5.6V190h1.7v-11.9l-5.5 13.4h-.6l-5.4-13.4V190h1.7v1.5h-5.5V190h1.9v-12.1zM184.4 190v-12.1h-1.9v-1.6h6.4c.9 0 1.7.1 2.3.3.6.2 1.1.5 1.5.9.4.4.7.8.8 1.2.2.5.3 1 .3 1.5 0 .4-.1.8-.2 1.1-.1.3-.3.7-.4.9-.2.3-.4.5-.7.7-.3.2-.5.4-.8.5.4.1.8.3 1.1.5.3.2.6.5.9.8s.4.7.6 1.1c.1.4.2.8.2 1.3s-.1.9-.2 1.4-.5.9-.9 1.4c-.4.4-1 .8-1.8 1-.8.3-1.7.4-2.9.4h-6.2V190h1.9zm4.3-7.2c.6 0 1-.1 1.4-.2.4-.1.7-.3.9-.5.2-.2.4-.5.5-.8.1-.3.2-.6.2-.9 0-.4-.1-.7-.2-1.1-.1-.3-.3-.6-.6-.8-.3-.2-.6-.4-1-.5-.4-.1-.9-.2-1.5-.2h-1.8v4.9h2.1zm-2.2 7.2h2.2c.7 0 1.2-.1 1.7-.2s.8-.3 1.1-.6c.3-.2.5-.5.6-.9.1-.3.2-.7.2-1.2 0-.3-.1-.7-.2-1-.1-.3-.3-.6-.6-.8-.3-.2-.6-.4-1.1-.6-.5-.1-1-.2-1.7-.2h-2.3v5.5zM197.8 177.9v-1.6h5.9v1.6h-1.9v8.6c0 .6.1 1.1.2 1.5.1.4.3.8.6 1.1.3.3.6.5 1.1.7.4.1 1 .2 1.6.2.7 0 1.2-.1 1.7-.2.5-.2.8-.4 1.1-.7.3-.3.5-.7.6-1.1s.2-1 .2-1.5V178H207v-1.6h5.9v1.6h-2v8.6c0 .9-.1 1.8-.4 2.4-.3.7-.7 1.2-1.2 1.6-.5.4-1.1.7-1.7.9s-1.4.3-2.1.3c-1.2 0-2.1-.1-2.9-.4-.7-.3-1.3-.7-1.7-1.2-.4-.5-.7-1-.9-1.7-.2-.6-.2-1.3-.2-2v-.5-1-1.4-1.5-1.5-2.7h-2zM216.1 190h2.1v-12.1h-2.1v-1.6h6.2v1.6h-2V190h5.4v-4.4h1.9v5.9h-11.5V190zM241.8 176.4v1.6h-1.3c.6 1.8 1.1 3.2 1.4 4.3.3 1.1.6 1.8.7 2.1l.9 3c.3 1 .6 1.9.8 2.7h1.8v1.5h-6V190h2l-1.1-4h-5.8l-1.1 4h2v1.5h-6V190h1.8c.3-.9.5-1.9.8-2.9.3-1 .6-2 1-3.1.3-1 .7-2.1 1-3.1.3-1 .7-2 1-3h-1.3v-1.6h7.4zm-1.2 8c-.2-.6-.4-1.4-.7-2.4-.3-1.1-.7-2.4-1.3-4h-1c-.6 1.6-1 2.9-1.3 4-.3 1.1-.6 1.9-.7 2.4h5zM248.7 190h2.2v-12.1h-2.2v-1.6h5l7.2 12.4v-10.8h-2.2v-1.6h6.2v1.6h-2.3v13.6h-2.4l-7.6-13.1V190h2.2v1.5h-6.2V190zM270.8 190h2.3v-12.1h-3.5v3h-1.7v-4.6h12.4v4.6h-1.7v-3h-3.4V190h2.3v1.5h-6.7V190z"/><g><path class="st0" d="M5.5 130.2H.7v-3.9h12.6l5.5 13.7 5.4 13.7 11.1-27.4h12.8v3.9h-4.8v30.1h4.8v3.8H34v-3.8h4.4v-29.7l-13.6 33.5h-1.4L9.9 130.6v29.7h4.4v3.8H.7v-3.8h4.9v-30.1zM92.5 126.3v3.9h-3.3c1.5 4.5 2.7 8 3.6 10.7.9 2.6 1.4 4.4 1.7 5.2.8 2.5 1.6 5 2.4 7.4.7 2.4 1.4 4.7 2 6.9h4.5v3.8h-15v-3.8h4.9l-2.8-10.1H76l-2.8 10.1h4.9v3.8H63.3v-3.8h4.5c.6-2.3 1.3-4.8 2.1-7.3s1.6-5.1 2.4-7.7c.8-2.6 1.7-5.2 2.6-7.7.9-2.5 1.7-5 2.5-7.4h-3.3v-3.9h18.4zm-2.9 20c-.4-1.4-1-3.5-1.8-6.1-.8-2.6-1.9-6-3.3-10h-2.4c-1.4 4-2.5 7.3-3.3 10-.8 2.6-1.4 4.7-1.8 6.1h12.6zM118.2 160.3h5.3v-30.1h-5.3v-3.9h18.1c2.2 0 4 .2 5.6.7 1.6.5 2.9 1.1 3.9 2 1 .9 1.8 1.9 2.3 3.1.5 1.2.7 2.5.7 4 0 2.6-.7 4.7-2.1 6.4-1.4 1.7-3.5 2.8-6.4 3.4l7.7 14.5h4.8v3.8h-8.3l-9.3-17.6h-6.3v13.8h5.1v3.8h-15.7v-3.9zm17.9-17.7c1.4 0 2.6-.2 3.5-.6.9-.4 1.7-.9 2.2-1.5.5-.6.9-1.3 1.1-2.1.2-.8.3-1.6.3-2.3 0-1.9-.7-3.3-2-4.3s-3.1-1.6-5.5-1.6h-7.1v12.4h7.5zM168.5 160.3h4.4v-30.1h-4.4v-3.9h14v3.9h-4.3v30.1h4.3v3.8h-14v-3.8zM199.7 130.2v-3.9h14.8v3.9h-4.7v21.5c0 1.4.1 2.6.4 3.7.3 1.1.8 2 1.4 2.7.7.7 1.5 1.3 2.6 1.6 1.1.4 2.4.6 4 .6 1.7 0 3.1-.2 4.2-.6 1.1-.4 2-1 2.7-1.7.7-.8 1.1-1.7 1.4-2.8.3-1.1.4-2.4.4-3.8v-21.2h-4.7v-3.9H237v3.9h-4.9v21.5c0 2.4-.4 4.4-1.1 6-.7 1.7-1.7 3-3 4.1-1.2 1-2.7 1.8-4.3 2.3-1.7.5-3.4.7-5.2.7-2.9 0-5.3-.4-7.1-1.1-1.8-.7-3.3-1.7-4.3-2.9s-1.8-2.6-2.1-4.2c-.4-1.6-.6-3.2-.6-4.9v-1.2-2.5-3.4-3.8-3.7-6.7h-4.7zM269 164.7c-3.7 0-7-1.1-9.7-3.4v2.9h-4.4v-12.7h4.4v3.8c1.3 1.7 2.7 3 4.2 3.8 1.5.8 3.3 1.2 5.3 1.2 1.1 0 2.1-.2 3-.5.9-.3 1.7-.7 2.3-1.3.6-.5 1.1-1.2 1.5-1.9.3-.7.5-1.6.5-2.4 0-1.2-.3-2.2-.8-3-.6-.8-1.3-1.5-2.3-2-1-.5-2.1-1-3.4-1.3-1.3-.3-2.7-.7-4.1-1-1.5-.3-2.9-.7-4.2-1.2-1.3-.5-2.5-1.2-3.5-2s-1.8-1.8-2.4-3.1c-.6-1.2-.9-2.7-.9-4.5 0-1.7.3-3.2.9-4.4.6-1.3 1.5-2.3 2.5-3.2 1.1-.9 2.3-1.5 3.8-1.9 1.4-.4 3-.7 4.6-.7 1.6 0 3.1.3 4.6.8 1.5.5 2.8 1.3 4.1 2.2v-2.4h4.4V137H275v-2.7c-1-1.4-2.1-2.4-3.4-3.1-1.3-.7-2.8-1-4.6-1-1.2 0-2.3.1-3.2.4-.9.3-1.7.7-2.3 1.2-.6.5-1.1 1.1-1.4 1.7-.3.7-.5 1.4-.5 2.2 0 1.3.3 2.4 1 3.1.7.8 1.6 1.4 2.7 1.9s2.4.9 3.7 1.2c1.4.3 2.8.6 4.2 1 1.4.4 2.7.9 3.9 1.5 1.2.6 2.3 1.3 3.2 2.2.9.9 1.7 2 2.2 3.2.5 1.2.8 2.7.8 4.3 0 1.5-.3 2.9-.9 4.2-.6 1.3-1.5 2.4-2.6 3.4s-2.4 1.7-4 2.2c-1.2.6-3 .8-4.8.8z"/></g><g><path class="st1" d="M154 55.1c-5.5-1.7-11.1-1.9-16.7-1.4-2.9.2-5.7.9-8.5 1.5-2.2.5-3.6 2-3.9 4.3-.3 2.1-.5 4.2-.8 6.3-.2 1.9-.3 9.1-.1 10.8.3 2.6.6 5.3.8 7.9l.3 3.3c.3 2.7 1.8 4.2 4.3 5 4.9 1.5 9.9 1.8 14.9 1.4 3.2-.2 6.4-.8 9.5-1.5 2.5-.5 4-2.3 4.3-4.9.4-3.9.9-7.7 1.2-11.6.4-5.6.3-11.2-.9-16.7-.6-2.2-2-3.7-4.4-4.4zM174.3 16.7c-4.5-.4-9.1-.8-13.6-1-6.4-.3-12.8-.5-19.2-.8-10.5 0-20.9.8-31.3 1.8-4.2.4-5.8 1.8-6.4 6-.5 3.7-.8 7.4-1 11.1-.2 3.3 2.5 5.5 6 5.2 6.3-.5 12.7-1.1 19-1.2 10.2-.2 20.5 0 30.7.2 5.2.1 10.4.6 15.6 1 3.5.3 6.3-2.1 6.1-5.3-.3-3.7-.7-7.4-1-11.1-.3-3.1-2.5-5.6-4.9-5.9zM95.2 78.6c-1.7 0-3 1.3-3 3.1 0 1.7 1.2 2.9 3 3 1.7 0 3.1-1.4 3.1-3.1 0-1.6-1.5-3-3.1-3zM91.6 58.6c-4.1 0-7.2 3-7.2 7.1 0 4 3.1 7.2 7.1 7.2 4.1 0 7.3-3.2 7.3-7.2 0-3.9-3.1-7.1-7.2-7.1zM187.7 78.6c-1.6 0-3 1.4-3 3 0 1.9 1.7 3.4 3.6 3 .6-.1 1.1-.4 1.5-.9 2.1-2.3.2-5.2-2.1-5.1zM191.3 58.6c-3.9 0-7.1 3.2-7.2 7 0 3.9 3.2 7.1 7.2 7.1 3.9 0 7.1-3.1 7.2-7 .1-3.8-3.2-7.1-7.2-7.1z"/><path d="M202.9 98.7c-2-.6-2-.6-2-2.7 0-10.7 0-21.4-.1-32.1-.1-6.4-3.3-10.7-9.2-12.3-2-.6-3.3-1.3-4.1-3.4-.7-1.8-1.9-3.3-1.9-5.4 0-.7-.1-1.4-.2-2.1l-1.5-13.8c-.3-2.6-.4-5.3-.9-7.9-.6-3.6-3.4-5.3-6.6-6.3-7.8-2.4-15.7-3.6-23.9-3.6-1.7 0-2.5-.4-3-2-.7-2-2.1-3.1-4.4-2.9-2.3.2-4.6 0-6.8 0-3.2 0-3.9.4-5.1 3.4-.4 1.1-1 1.5-2.1 1.5-8.4-.1-16.6 1.2-24.6 3.6-3.6 1.1-6.3 3.1-6.7 7.1l-.3 3.6c-.7 6.9-1.5 13.9-2.2 20.8-.1.8-.4 1.5-.7 2.2-.5 1.1-1.3 2.1-1.6 3.2-.3 1-.8 1.3-1.8 1.5-5.5 1.1-9.2 4.1-10.4 9.8-.8 3.8-.7 7.6-.6 11.5.1 8.2 0 16.5.1 24.7 0 1-.5 1.3-1.3 1.5-.9.3-1.8.7-2.6 1.3-.5.4-.9.8-1.1 1.2H206c-.7-1.2-1.7-2-3.1-2.4zM95.2 84.6c-1.7 0-2.9-1.2-3-3 0-1.8 1.3-3.1 3-3.1 1.6 0 3 1.4 3 3 .1 1.7-1.3 3.1-3 3.1zm-3.6-11.7c-4 0-7.1-3.2-7.1-7.2s3.1-7.1 7.2-7.1c4 0 7.2 3.1 7.2 7.1 0 4-3.3 7.2-7.3 7.2zm67.5 3.5c-.3 3.9-.8 7.7-1.2 11.6-.3 2.6-1.8 4.4-4.3 4.9-3.1.7-6.3 1.3-9.5 1.5-5 .3-10 .1-14.9-1.4-2.5-.8-4-2.3-4.3-5l-.3-3.3c-.3-2.6-.5-5.3-.8-7.9-.2-1.7-.1-8.9.1-10.8.2-2.1.5-4.2.8-6.3.3-2.3 1.7-3.8 3.9-4.3 2.8-.7 5.7-1.3 8.5-1.5 5.6-.5 11.3-.3 16.7 1.4 2.4.7 3.8 2.2 4.3 4.6 1.3 5.4 1.4 10.9 1 16.5zm15.1-37.5c-5.2-.4-10.4-.9-15.6-1-10.2-.2-20.5-.3-30.7-.2-6.3.1-12.7.7-19 1.2-3.5.3-6.2-1.8-6-5.2.2-3.7.5-7.4 1-11.1.5-4.2 2.2-5.6 6.4-6 10.4-.9 20.8-1.7 31.3-1.8 6.4.2 12.8.4 19.2.8 4.5.2 9.1.7 13.6 1 2.5.2 4.7 2.8 4.9 5.8.3 3.7.7 7.4 1 11.1.2 3.3-2.6 5.7-6.1 5.4zm15.7 44.7c-.4.4-.9.8-1.5.9-1.9.4-3.7-1.2-3.6-3 0-1.6 1.4-3 3-3 2.2 0 4.1 2.9 2.1 5.1zm1.5-10.8c-4 0-7.2-3.2-7.2-7.1 0-3.9 3.3-7 7.2-7 4 0 7.2 3.3 7.2 7.1-.1 3.9-3.3 7-7.2 7z"/><path class="st2" d="M.8 101.2h280.7"/></g></svg>