<svg viewBox="0 0 40 40"><path d="M38.843 18.802l-9.435-9.949a1.677 1.677 0 00-1.21-.52h-7.925a1.665 1.665 0 00-1.208 2.814l8.075 8.516a.416.416 0 010 .572l-8.097 8.625a1.667 1.667 0 001.215 2.807h7.939c.46 0 .9-.192 1.215-.527l9.436-10.053c.604-.644.6-1.645-.005-2.285zm-17.891 0l-9.435-9.949a1.667 1.667 0 00-1.209-.52H2.385a1.666 1.666 0 00-1.218 2.814l8.083 8.52a.42.42 0 010 .571L1.155 28.86a1.667 1.667 0 001.215 2.807h7.937c.46 0 .898-.19 1.213-.525l9.438-10.055c.602-.644.6-1.645-.006-2.285z"/></svg>