<svg viewBox="0 0 40 40"><path d="M12.858 20.235a.416.416 0 010-.572l8.077-8.516a1.667 1.667 0 00-1.208-2.814h-7.925c-.457 0-.894.189-1.209.52l-9.426 9.949a1.665 1.665 0 000 2.285L10.6 31.138c.315.337.755.529 1.217.529h7.936a1.667 1.667 0 001.215-2.807l-8.11-8.625zm25.985 8.625l-8.095-8.625a.416.416 0 010-.572l8.074-8.516a1.667 1.667 0 00-1.205-2.814h-7.925c-.457 0-.894.189-1.209.52l-9.436 9.949a1.665 1.665 0 000 2.285l9.436 10.056a1.68 1.68 0 001.217.524h7.935a1.668 1.668 0 001.213-2.807h-.005z"/></svg>