<svg class="rokkit" xmlns="http://www.w3.org/2000/svg" viewBox="0 0 77.7 13.7">
    <style>.st5{fill:#FFFFFF}</style>
    <path class="st5" d="M0 12.4h1.9V1.6H0V.2h6.5c.8 0 1.4.1 2 .3s1 .4 1.4.7.6.7.8 1.1.3.9.3 1.4c0 .9-.2 1.7-.7 2.3S8.9 7 7.9 7.2l2.7 5.2h1.7v1.4h-3L6.1 7.4H3.8v4.9h1.8v1.4H0v-1.3zM6.4 6c.5 0 1 0 1.3-.2s.6-.3.8-.5.3-.5.4-.7.1-.6.1-.9c0-.7-.2-1.2-.7-1.6s-1.1-.6-2-.6H3.8V6h2.6zM14.1 7c0-1 .2-1.9.5-2.7s.8-1.6 1.4-2.2S17.3 1 18.2.6 20 0 21 0c1.1 0 2.1.2 2.9.5s1.6.9 2.2 1.5 1.1 1.4 1.4 2.2S28 6 28 7s-.2 1.9-.5 2.7-.8 1.6-1.4 2.2-1.3 1.1-2.2 1.5-1.8.6-2.9.6-2.1-.2-2.9-.5-1.6-.9-2.2-1.5-1.1-1.4-1.4-2.2-.4-1.8-.4-2.8zm2 0c0 .7.1 1.4.3 2.1s.6 1.2 1 1.7.9.9 1.5 1.2 1.3.4 2 .4 1.4-.1 2-.4 1.1-.7 1.5-1.2.8-1.1 1-1.7.3-1.3.3-2.1-.1-1.5-.3-2.1-.6-1.2-1-1.7-.7-.9-1.3-1.2-1.3-.4-2-.4-1.5.2-2.1.4-1.1.7-1.5 1.1-.8 1.1-1 1.7-.4 1.5-.4 2.2zM37.4 12.4h1.5l-4.8-5.5v5.5h1.6v1.4h-5.3v-1.4h1.8V1.6h-1.8V.2H36v1.4h-1.8v4.9l4.9-4.9h-1.6V.2h5.3v1.4h-1.5l-4.9 5 5 5.7h1.5v1.4h-5.5v-1.3zM51.7 12.4h1.5l-4.8-5.5v5.5H50v1.4h-5.3v-1.4h1.8V1.6h-1.8V.2h5.5v1.4h-1.8v4.9l4.9-4.9h-1.6V.2H57v1.4h-1.5l-4.9 5 5 5.7h1.5v1.4h-5.5v-1.3zM59.2 12.4h1.6V1.6h-1.6V.2h5v1.4h-1.5v10.8h1.5v1.4h-5v-1.4zM69.2 12.4h2.1V1.6h-3.1v2.7h-1.5V.2h11.1v4.1h-1.5V1.6h-3v10.8h2v1.4h-6v-1.4z"/>
</svg>