<svg id="Calque_1" xmlns="http://www.w3.org/2000/svg" viewBox="0 0 450 500"><style>.sf0{fill:#fff}.sf1{fill:none}.sf2,.sf3{fill:none;stroke-miterlimit:10}.sf2{stroke-linecap:round;stroke-linejoin:round;stroke:#fff;stroke-width:2}.sf3{stroke:#000;stroke-width:.5}.sf4,.sf5{fill:none;stroke:#fff}.sf4{stroke-miterlimit:10;stroke-width:1.5}.sf5{stroke-width:.5}.sf5,.sf6,.sf7,.sf8{stroke-miterlimit:10}.sf6{stroke-width:.5;stroke:#010202}.sf7,.sf8{stroke:#fff}.sf7{stroke-width:.5;fill:#fff}.sf8{fill:none}</style><path class="sf0" d="M36.4 436.7H28V430h21.7l9.5 23.6 9.3 23.7L87.6 430h22v6.7h-8.3v51.8h8.3v6.6H85.5v-6.6H93v-51.2l-23.4 57.8h-2.4l-23.3-57.7v51.1h7.5v6.6H28v-6.6h8.4v-51.8zM168.8 430v6.7h-5.7c2.6 7.7 4.6 13.8 6.1 18.4 1.5 4.6 2.5 7.5 3 9 1.4 4.3 2.8 8.6 4.1 12.7 1.3 4.1 2.4 8.1 3.4 11.8h7.7v6.6h-25.6v-6.6h8.5l-4.8-17.3h-25.1l-4.7 17.3h8.4v6.6h-25.6v-6.6h7.8c1.1-4 2.3-8.2 3.6-12.6 1.3-4.4 2.7-8.8 4.2-13.2 1.4-4.5 2.9-8.9 4.4-13.3 1.5-4.4 2.9-8.6 4.3-12.7h-5.6V430h31.6zm-5 34.4c-.8-2.5-1.8-6-3.1-10.5s-3.2-10.3-5.6-17.1h-4.2c-2.4 6.9-4.3 12.6-5.7 17.1-1.4 4.5-2.4 8-3.1 10.5h21.7zM195.7 488.5h9.2v-51.8h-9.2V430h31.1c3.7 0 6.9.4 9.6 1.2 2.7.8 4.9 1.9 6.7 3.4 1.7 1.5 3.1 3.2 3.9 5.3.8 2.1 1.3 4.4 1.3 6.9 0 4.4-1.2 8.1-3.6 11-2.4 2.9-6.1 4.8-11.1 5.8l13.2 24.9h8.2v6.6h-14.3l-16-30.4H214v23.8h8.8v6.6h-27.1v-6.6zm30.9-30.5c2.4 0 4.5-.3 6.1-1 1.6-.7 2.9-1.5 3.8-2.6.9-1.1 1.6-2.2 2-3.6.4-1.3.6-2.7.6-4 0-3.2-1.1-5.7-3.4-7.5-2.3-1.8-5.4-2.7-9.4-2.7H214V458h12.6zM265.1 488.5h7.6v-51.8h-7.6V430h24.2v6.7h-7.5v51.8h7.5v6.6h-24.2v-6.6zM301.3 436.7V430h25.5v6.7h-8v37.1c0 2.4.3 4.5.8 6.4.5 1.8 1.3 3.4 2.5 4.6s2.7 2.2 4.5 2.8c1.9.6 4.1 1 6.8 1 2.9 0 5.3-.3 7.2-1 1.9-.7 3.5-1.7 4.6-3 1.1-1.3 2-2.9 2.5-4.8s.7-4.1.7-6.6v-36.5h-8V430h25.5v6.7h-8.4v37c0 4.1-.6 7.5-1.9 10.4-1.3 2.8-3 5.2-5.1 7-2.1 1.8-4.6 3.1-7.5 3.9-2.8.8-5.8 1.2-9 1.2-5 0-9.1-.6-12.3-1.9-3.2-1.3-5.6-3-7.4-5.1-1.8-2.1-3-4.5-3.7-7.2-.7-2.7-1-5.5-1-8.4v-2.1-4.4-5.9-6.6-6.4-11.5h-8.3zM403.4 496.2c-6.4 0-12-2-16.7-5.9v4.9H379v-21.9h7.6v6.6c2.3 2.9 4.7 5.1 7.3 6.6 2.6 1.4 5.7 2.1 9.2 2.1 1.9 0 3.7-.3 5.2-.8s2.9-1.3 4-2.2c1.1-.9 1.9-2.1 2.5-3.3.6-1.3.9-2.7.9-4.2 0-2.1-.5-3.9-1.4-5.2-1-1.4-2.3-2.5-3.9-3.4-1.7-.9-3.6-1.7-5.8-2.3-2.2-.6-4.6-1.2-7.1-1.8-2.6-.6-5-1.3-7.3-2.1-2.3-.9-4.3-2-6-3.4-1.7-1.4-3.1-3.2-4.1-5.3-1-2.1-1.5-4.7-1.5-7.7 0-2.9.5-5.5 1.6-7.7s2.5-4 4.3-5.5c1.8-1.5 4-2.6 6.5-3.3 2.5-.8 5.1-1.1 8-1.1 2.7 0 5.4.4 7.9 1.3s4.9 2.2 7 3.9V430h7.6v18.5h-7.6v-4.6c-1.7-2.4-3.7-4.2-5.8-5.4-2.2-1.2-4.8-1.8-7.9-1.8-2.1 0-4 .2-5.5.7-1.6.5-2.9 1.2-4 2s-1.9 1.8-2.4 3c-.5 1.1-.8 2.4-.8 3.8 0 2.3.6 4.1 1.8 5.4 1.2 1.3 2.7 2.4 4.6 3.2 1.9.8 4 1.5 6.4 2 2.4.5 4.8 1.1 7.3 1.8 2.4.6 4.6 1.5 6.7 2.5 2.1 1 4 2.3 5.6 3.9 1.6 1.5 2.9 3.4 3.8 5.5.9 2.1 1.4 4.6 1.4 7.4 0 2.6-.5 5-1.6 7.3-1.1 2.2-2.5 4.2-4.4 5.8-1.9 1.6-4.2 2.9-6.8 3.8-2.8.9-5.7 1.4-8.9 1.4z"/><g><path class="sf1" d="M201.1 214.3c7.2 7.5 16.1 16.8 23 24h.1-.1c.9.9 1.7 1.8 2.5 2.6l.1-.1-25.4-26.5h-.2z"/><path class="sf2" d="M324.4 163.4s102.8-94.2 105-154.1c0 0-5.6-1.2-16.4 1.2-13.6 3.1-35.5 12.2-64.6 37.3l-160.1 153 12.5 13h.1-.1l25.4 26.5c8.7-8.4 20.6-19.7 29.2-28.1l44.1-42.3c12.9-12.4 26.1-24.3 38.6-37 14-14.2 27.5-28.9 39.7-44.4 12.6-16 24.7-33 32.7-51.9 3.6-8.4 6.4-17.5 6.7-26.7-.3 9.2-3.1 18.2-6.7 26.7-8 18.8-20 35.9-32.7 51.9-12.3 15.5-25.7 30.2-39.7 44.4-12.5 12.7-25.8 24.7-38.6 37l-44.1 42.3c-8.7 8.3-20.5 19.7-29.2 28.1l8.7 9.1 89.5-86z"/><path class="sf3" d="M165 222.2h.1z"/><path class="sf4" d="M200.6 213.8l-23.9-1.6 23.9 1.6c-2.7-2.8-5.1-5.3-7.1-7.4l-10.3-.7 10.3.7c-3.3-3.4-5.4-5.6-5.4-5.6l-22.7 21.7 18.3 19.1c2.9-2.8 5.7-6.4 9.8-7.1 1.7-.3 3.5-.4 5.3-.3 2.8.1 4.9 1 6.8 2.4l17.9 1.2c-6.8-7.2-15.7-16.5-22.9-24zm6.6 7.2l-37-2.5 37 2.5zm-30.1 13.5l13.8 1-13.8-1zm-7.8-8.1l46.5 3.2-46.5-3.2z"/><path class="sf5" d="M206.2 237c2.2 1.5 4 3.6 6.1 5.8.8.8 1.6 1.6 2.3 2.4l17.3 1.2c-1.4-1.5-3.3-3.4-5.3-5.6l-.1.1.1-.1c-.8-.8-1.6-1.7-2.5-2.6l-17.9-1.2z"/><path class="sf5" d="M217.1 247.8c2.6 2.7 4.4 4.6 8.2 5 1.9.2 3.8-.1 5.6-.8.5-.2 4-2.5 3.9-2.7 0 0-.8-.8-2.9-3l-17.3-1.2c.9 1 1.7 1.9 2.5 2.7z"/><path class="sf6" d="M165.1 222.1v.1-.1z"/><path class="sf7" d="M165 222.2L56 327.4c-4.2 4-5.8 10.9-5.3 16.5.6 7.4 5.4 12.1 10.2 17.2 3.2 3.4 6.3 6.6 11 7.5 3.9.8 6.7.5 10.5-.2 1.4-.2 2.7-.6 4-1.1 4.6-1.7 8.5-4.9 11.3-8.9 2.6-3.8 4.2-8.3 6.3-12.3.9-1.7 2-3.2 3.4-4.5l12.4-11.9c1-1 2.3-1.7 3.7-2 3.9-.9 7-1.9 10.3-4.2 4.5-3 8.9-6.7 12.2-10.9 3.3-4.2 5.5-9.1 7.6-14 .7-1.6 1.7-3.1 3-4.3l7.4-7.1c1.6-1.6 3.3-3.1 4.9-4.7 2.1-2 3.8-2.3 6.6-2.7 2.1-.3 4.1-1.1 5.9-2.1 3.7-2.1 6.7-5.2 9.5-8.4 3.1-3.6 5.4-7.8 4.9-12.7 0 0-.3-2.8-6.4-9.2l-6.1-6.3c0 .1-18.3-18.9-18.3-18.9zM72.2 342.9c-2-2.1-1.9-5.4.2-7.3 2.1-2 5.4-1.9 7.3.2 2 2.1 1.9 5.4-.2 7.3-2 1.9-5.3 1.9-7.3-.2zm45.4-43.6c-2-2.1-1.9-5.4.2-7.3 2.1-2 5.4-1.9 7.3.2 2 2.1 1.9 5.4-.2 7.3-2 2-5.3 1.9-7.3-.2zm52.8-43.4c-2.1 2-5.4 1.9-7.3-.2-2-2.1-1.9-5.4.2-7.3 2.1-2 5.4-1.9 7.3.2 1.9 2 1.9 5.3-.2 7.3zM165.1 222.2l18.3 19.1-18.3-19.1z"/><path class="sf1" d="M252.6 214.3c-7.2 7.5-16.1 16.8-23 24h-.1.1c-.9.9-1.7 1.8-2.5 2.6l-.1-.1 25.4-26.5h.2z"/><path class="sf2" d="M129.3 163.4S26.5 69.2 24.3 9.3c0 0 5.6-1.2 16.4 1.2 13.6 3.1 35.5 12.2 64.6 37.3l160.1 153-12.5 13h-.1.1l-25.4 26.5c-8.7-8.4-20.6-19.7-29.2-28.1l-44.1-42.3c-12.9-12.4-26.1-24.3-38.6-37-14-14.2-27.5-28.9-39.7-44.4-12.6-16-24.7-33-32.7-51.9-3.6-8.4-6.4-17.5-6.7-26.7.3 9.2 3.1 18.2 6.7 26.7 8 18.8 20 35.9 32.7 51.9 12.3 15.5 25.7 30.2 39.7 44.4 12.5 12.7 25.8 24.7 38.6 37l44.1 42.3c8.7 8.3 20.5 19.7 29.2 28.1l-8.7 9.1-89.5-86z"/><path class="sf3" d="M288.7 222.2z"/><path class="sf4" d="M230.1 237.8l17.9-1.2c1.9-1.3 4-2.2 6.8-2.4 1.8-.1 3.5 0 5.3.3 4.1.7 6.9 4.4 9.8 7.1l18.3-19.1-22.7-21.7s-2.1 2.2-5.4 5.6l10.3-.7-10.3.7c-2 2.1-4.4 4.6-7.1 7.4l23.9-1.6-23.9 1.6c-7.1 7.5-16 16.8-22.9 24zm53.4-19.4l-37 2.5 37-2.5zm-20.7 17.1l13.8-1-13.8 1zm-24.8-5.9l46.5-3.2-46.5 3.2z"/><path class="sf8" d="M247.5 237c-2.2 1.5-4 3.6-6.1 5.8-.8.8-1.6 1.6-2.3 2.4l-17.3 1.2c1.4-1.5 3.3-3.4 5.3-5.6l.1.1-.1-.1c.8-.8 1.6-1.7 2.5-2.6l17.9-1.2z"/><path class="sf8" d="M236.6 247.8c-2.6 2.7-4.4 4.6-8.2 5-1.9.2-3.8-.1-5.6-.8-.5-.2-4-2.5-3.9-2.7 0 0 .8-.8 2.9-3l17.3-1.2c-.9 1-1.7 1.9-2.5 2.7z"/><path class="sf6" d="M288.7 222.1v.1-.1z"/><path class="sf7" d="M270.4 241.2l-6.1 6.3c-6.2 6.4-6.4 9.2-6.4 9.2-.5 4.9 1.8 9.1 4.9 12.7 2.8 3.2 5.8 6.3 9.5 8.4 1.8 1 3.8 1.8 5.9 2.1 2.9.5 4.5.7 6.6 2.7 1.6 1.6 3.3 3.1 4.9 4.7l7.4 7.1c1.3 1.2 2.3 2.7 3 4.3 2.1 4.9 4.3 9.8 7.6 14 3.3 4.2 7.7 7.8 12.2 10.9 3.4 2.3 6.4 3.3 10.3 4.2 1.4.3 2.6 1 3.7 2l12.4 11.9c1.4 1.3 2.5 2.8 3.4 4.5 2.1 4 3.7 8.5 6.3 12.3 2.8 4 6.7 7.3 11.3 8.9 1.3.5 2.7.8 4 1.1 3.8.6 6.6.9 10.5.2 4.7-.9 7.8-4.2 11-7.5 4.9-5.1 9.6-9.8 10.2-17.2.4-5.6-1.1-12.4-5.3-16.5l-109-105.3-18.3 19zm103.7 101.9c-2.1-2-2.1-5.3-.2-7.3 2-2.1 5.3-2.1 7.3-.2 2.1 2 2.1 5.3.2 7.3-1.9 2.1-5.2 2.1-7.3.2zm-45.4-43.6c-2.1-2-2.1-5.3-.2-7.3 2-2.1 5.3-2.1 7.3-.2 2.1 2 2.1 5.3.2 7.3-1.9 2.1-5.2 2.2-7.3.2zm-45.5-51c2-2.1 5.3-2.1 7.3-.2 2.1 2 2.1 5.3.2 7.3-2 2.1-5.3 2.1-7.3.2-2.2-1.9-2.2-5.2-.2-7.3zM288.7 222.2l-18.3 19.1 18.3-19.1z"/></g></svg>