<svg id="Calque_1" xmlns="http://www.w3.org/2000/svg" viewBox="0 0 405 373"><style>.sst0{fill:#fff}.sst1{fill:none}.sst2,.sst3{fill:none;stroke-miterlimit:10}.sst2{stroke-linecap:round;stroke-linejoin:round;stroke:#fff;stroke-width:2}.sst3{stroke:#000;stroke-width:.5}.sst4,.sst5{fill:none;stroke:#fff}.sst4{stroke-miterlimit:10;stroke-width:1.5}.sst5{stroke-width:.5}.sst5,.sst6,.sst7,.sst8{stroke-miterlimit:10}.sst6{stroke-width:.5;stroke:#010202}.sst7,.sst8{stroke:#fff}.sst7{stroke-width:.5;fill:#fff}.sst8{fill:none}</style><path class="sst0" d="M44.9 294.1H38v-5.5h18.1l7.9 19.6 7.7 19.7 15.9-39.2h18.3v5.5H99v43.1h6.9v5.5H85.8v-5.5H92v-42.5l-19.5 48h-2l-19.3-48v42.5h6.2v5.5H38v-5.5h6.9v-43.2zM155 288.5v5.5h-4.7c2.2 6.4 3.9 11.5 5.1 15.3 1.2 3.8 2.1 6.3 2.5 7.5 1.2 3.6 2.3 7.1 3.4 10.6 1.1 3.4 2 6.7 2.9 9.8h6.4v5.5h-21.3v-5.5h7l-4-14.4h-20.9l-3.9 14.4h7v5.5h-21.3v-5.5h6.5c.9-3.3 1.9-6.8 3-10.5 1.1-3.6 2.3-7.3 3.5-11 1.2-3.7 2.4-7.4 3.7-11 1.2-3.6 2.4-7.2 3.6-10.6h-4.7v-5.5H155zm-4.1 28.6c-.6-2.1-1.5-5-2.6-8.8-1.1-3.8-2.7-8.5-4.7-14.2h-3.5c-2 5.7-3.6 10.5-4.7 14.2-1.1 3.8-2 6.7-2.6 8.8h18.1zM177.4 337.2h7.7v-43.1h-7.7v-5.5h25.9c3.1 0 5.8.3 8 1s4.1 1.6 5.5 2.8c1.5 1.2 2.5 2.7 3.2 4.4.7 1.7 1.1 3.6 1.1 5.7 0 3.7-1 6.7-3 9.1-2 2.4-5 4-9.2 4.8l11 20.7h6.9v5.5h-11.9l-13.3-25.3h-9.1v19.8h7.3v5.5h-22.5v-5.4zm25.7-25.4c2 0 3.7-.3 5-.8 1.3-.5 2.4-1.3 3.2-2.1.8-.9 1.3-1.9 1.6-3 .3-1.1.5-2.2.5-3.4 0-2.7-.9-4.7-2.8-6.2s-4.5-2.2-7.8-2.2h-10.1v17.7h10.4zM235.1 337.2h6.3v-43.1h-6.3v-5.5h20.1v5.5H249v43.1h6.2v5.5h-20.1v-5.5zM265.2 294.1v-5.5h21.2v5.5h-6.7v30.8c0 2 .2 3.8.6 5.3.4 1.5 1.1 2.8 2.1 3.8s2.2 1.8 3.8 2.3c1.5.5 3.4.8 5.7.8 2.4 0 4.4-.3 6-.8 1.6-.6 2.9-1.4 3.8-2.5 1-1.1 1.6-2.4 2-4 .4-1.6.6-3.4.6-5.4v-30.3h-6.7v-5.5h21.2v5.5h-7v30.8c0 3.4-.5 6.3-1.6 8.6-1 2.4-2.5 4.3-4.2 5.8-1.8 1.5-3.9 2.6-6.2 3.3-2.4.7-4.9 1-7.5 1-4.2 0-7.6-.5-10.2-1.6-2.6-1.1-4.7-2.5-6.2-4.2-1.5-1.7-2.5-3.7-3.1-6-.5-2.3-.8-4.6-.8-7v-1.7-3.6-4.9-5.5-5.4-9.6h-6.8zM350 343.5c-5.3 0-10-1.6-13.9-4.9v4.1h-6.3v-18.2h6.3v5.4c1.9 2.4 3.9 4.3 6.1 5.4 2.2 1.2 4.7 1.8 7.7 1.8 1.6 0 3-.2 4.3-.7 1.3-.5 2.4-1.1 3.3-1.9.9-.8 1.6-1.7 2.1-2.8.5-1.1.7-2.2.7-3.5 0-1.8-.4-3.2-1.2-4.3-.8-1.1-1.9-2.1-3.3-2.9-1.4-.8-3-1.4-4.8-1.9-1.8-.5-3.8-1-5.9-1.5-2.1-.5-4.1-1.1-6.1-1.8-1.9-.7-3.6-1.7-5-2.8-1.4-1.2-2.6-2.6-3.4-4.4-.8-1.8-1.2-3.9-1.2-6.4 0-2.4.4-4.5 1.3-6.4.9-1.8 2.1-3.4 3.6-4.6 1.5-1.2 3.3-2.1 5.4-2.8 2.1-.6 4.3-.9 6.6-.9s4.5.4 6.6 1.1c2.1.7 4 1.8 5.8 3.2v-3.5h6.3v15.4h-6.3V300c-1.4-2-3.1-3.5-4.9-4.5-1.8-1-4-1.5-6.5-1.5-1.8 0-3.3.2-4.6.6-1.3.4-2.4 1-3.3 1.7-.9.7-1.6 1.5-2 2.5-.5 1-.7 2-.7 3.1 0 1.9.5 3.4 1.5 4.5s2.2 2 3.8 2.7c1.6.7 3.4 1.2 5.4 1.7 2 .4 4 .9 6.1 1.5 2 .5 3.8 1.2 5.6 2.1 1.8.9 3.3 1.9 4.6 3.2 1.3 1.3 2.4 2.8 3.2 4.6.8 1.8 1.2 3.8 1.2 6.2 0 2.2-.4 4.2-1.3 6-.9 1.9-2.1 3.5-3.7 4.8-1.6 1.4-3.5 2.4-5.7 3.2-2.3.7-4.7 1.1-7.4 1.1z"/><g><path class="sst1" d="M187.8 147.9c4.2 4.4 9.5 9.9 13.5 14.1h.1-.1l1.5 1.5.1-.1-15-15.6-.1.1z"/><path class="sst2" d="M260.4 118s60.4-55.4 61.7-90.6c0 0-3.3-.7-9.6.7-8 1.8-20.9 7.2-38 21.9l-94.2 90 7.4 7.6h.1-.1l15 15.6c5.1-4.9 12.1-11.6 17.2-16.5 8.6-8.3 17.3-16.6 25.9-24.9 7.6-7.3 15.3-14.3 22.7-21.8 8.2-8.3 16.1-17 23.4-26.1 7.4-9.4 14.5-19.4 19.2-30.5 2.1-5 3.7-10.3 3.9-15.7-.2 5.4-1.9 10.7-3.9 15.7-4.7 11.1-11.8 21.1-19.2 30.5-7.2 9.1-15.1 17.8-23.4 26.1-7.4 7.5-15.2 14.5-22.7 21.8-8.6 8.3-17.3 16.6-25.9 24.9-5.1 4.9-12.1 11.6-17.2 16.5l5.1 5.3 52.6-50.5z"/><path class="sst3" d="M166.7 152.6z"/><path class="sst4" d="M187.6 147.7l-14.1-1 14.1 1c-1.6-1.6-3-3.1-4.2-4.3l-6-.4 6 .4c-1.9-2-3.2-3.3-3.2-3.3l-13.4 12.8 10.8 11.2c1.7-1.6 3.3-3.8 5.8-4.2 1-.2 2.1-.2 3.1-.2 1.6.1 2.9.6 4 1.4l10.5.7c-4-4.3-9.2-9.8-13.4-14.1zm3.8 4.1l-21.7-1.5 21.7 1.5zm-17.7 8l8.1.6-8.1-.6zm-4.6-4.7l27.3 1.9-27.3-1.9z"/><path class="sst5" d="M190.8 161.3c1.3.9 2.4 2.1 3.6 3.4.5.5.9 1 1.4 1.4l10.2.7c-.8-.9-1.9-2-3.1-3.3l-.1.1.1-.1-1.5-1.5-10.6-.7z"/><path class="sst5" d="M197.3 167.6c1.5 1.6 2.6 2.7 4.8 3 1.1.1 2.2-.1 3.3-.4.3-.1 2.4-1.5 2.3-1.6 0 0-.5-.5-1.7-1.8l-10.2-.7 1.5 1.5z"/><path class="sst6" d="M166.7 152.5v.1-.1z"/><path class="sst7" d="M166.7 152.6l-64.1 61.9c-2.5 2.4-3.4 6.4-3.1 9.7.3 4.4 3.2 7.1 6 10.1 1.9 2 3.7 3.9 6.5 4.4 2.3.4 3.9.3 6.1-.1.8-.1 1.6-.3 2.4-.6 2.7-1 5-2.9 6.7-5.3 1.5-2.2 2.5-4.9 3.7-7.2.5-1 1.2-1.9 2-2.6l7.3-7c.6-.6 1.3-1 2.2-1.2 2.3-.5 4.1-1.1 6.1-2.5 2.7-1.8 5.3-3.9 7.2-6.4 1.9-2.5 3.2-5.4 4.4-8.2.4-.9 1-1.8 1.7-2.5l4.3-4.2c1-.9 1.9-1.8 2.9-2.8 1.2-1.2 2.2-1.3 3.9-1.6 1.2-.2 2.4-.6 3.5-1.2 2.2-1.2 4-3.1 5.6-4.9 1.8-2.1 3.2-4.6 2.9-7.5 0 0-.2-1.6-3.8-5.4l-3.6-3.7c-.1 0-10.8-11.2-10.8-11.2zm-54.6 70.9c-1.2-1.2-1.1-3.2.1-4.3 1.2-1.2 3.2-1.1 4.3.1 1.2 1.2 1.1 3.2-.1 4.3-1.2 1.2-3.1 1.2-4.3-.1zm26.7-25.6c-1.2-1.2-1.1-3.2.1-4.3 1.2-1.2 3.2-1.1 4.3.1 1.2 1.2 1.1 3.2-.1 4.3-1.2 1.2-3.1 1.1-4.3-.1zm31-25.5c-1.2 1.2-3.2 1.1-4.3-.1-1.2-1.2-1.1-3.2.1-4.3 1.2-1.2 3.2-1.1 4.3.1 1.2 1.2 1.1 3.1-.1 4.3zM166.7 152.6l10.8 11.2-10.8-11.2z"/><path class="sst1" d="M218.2 147.9c-4.2 4.4-9.5 9.9-13.5 14.1h-.1.1l-1.5 1.5-.1-.1 15-15.6.1.1z"/><path class="sst2" d="M145.6 118S85.2 62.6 83.9 27.4c0 0 3.3-.7 9.6.7 8 1.8 20.9 7.2 38 21.9l94.2 89.9-7.4 7.6h-.1.1l-15 15.6c-5.1-4.9-12.1-11.6-17.2-16.5-8.6-8.3-17.3-16.6-25.9-24.9-7.6-7.3-15.3-14.3-22.7-21.8-8.2-8.3-16.1-17-23.4-26.1-7.4-9.4-14.5-19.4-19.2-30.5-2.1-5-3.7-10.3-3.9-15.7.2 5.4 1.8 10.7 3.9 15.7 4.7 11.1 11.8 21.1 19.2 30.5 7.2 9.1 15.1 17.8 23.4 26.1 7.4 7.5 15.2 14.5 22.7 21.8 8.6 8.3 17.3 16.6 25.9 24.9 5.1 4.9 12.1 11.6 17.2 16.5l-5.1 5.3-52.6-50.4z"/><path class="sst3" d="M239.3 152.6z"/><path class="sst4" d="M204.9 161.8l10.5-.7c1.1-.8 2.4-1.3 4-1.4 1-.1 2.1 0 3.1.2 2.4.4 4.1 2.6 5.8 4.2l10.8-11.2-13.4-12.9s-1.2 1.3-3.2 3.3l6-.4-6 .4c-1.2 1.2-2.6 2.7-4.2 4.3l14.1-1-14.1 1c-4.1 4.4-9.3 9.9-13.4 14.2zm31.4-11.5l-21.7 1.5 21.7-1.5zm-12.1 10.1l8.1-.6-8.1.6zm-14.7-3.5l27.3-1.9-27.3 1.9z"/><path class="sst8" d="M215.2 161.3c-1.3.9-2.4 2.1-3.6 3.4-.5.5-.9 1-1.4 1.4l-10.2.7c.8-.9 1.9-2 3.1-3.3l.1.1-.1-.1 1.5-1.5 10.6-.7z"/><path class="sst8" d="M208.7 167.6c-1.5 1.6-2.6 2.7-4.8 3-1.1.1-2.2-.1-3.3-.4-.3-.1-2.4-1.5-2.3-1.6 0 0 .5-.5 1.7-1.8l10.2-.7-1.5 1.5z"/><path class="sst6" d="M239.3 152.5v.1-.1z"/><path class="sst7" d="M228.6 163.8l-3.6 3.7c-3.6 3.8-3.8 5.4-3.8 5.4-.3 2.9 1.1 5.4 2.9 7.5 1.6 1.9 3.4 3.7 5.6 4.9 1.1.6 2.3 1 3.5 1.2 1.7.3 2.7.4 3.9 1.6 1 .9 1.9 1.8 2.9 2.8l4.3 4.2c.7.7 1.3 1.6 1.7 2.5 1.2 2.9 2.5 5.8 4.4 8.2 1.9 2.4 4.5 4.6 7.2 6.4 2 1.3 3.8 1.9 6.1 2.5.8.2 1.6.6 2.2 1.2l7.3 7c.8.8 1.5 1.7 2 2.6 1.2 2.4 2.2 5 3.7 7.2 1.6 2.4 3.9 4.3 6.7 5.3.8.3 1.6.5 2.4.6 2.2.4 3.9.6 6.1.1 2.8-.5 4.6-2.4 6.5-4.4 2.9-3 5.7-5.7 6-10.1.3-3.3-.7-7.3-3.1-9.7l-64.1-61.9-10.8 11.2zm61 59.8c-1.2-1.2-1.3-3.1-.1-4.3 1.2-1.2 3.1-1.3 4.3-.1 1.2 1.2 1.3 3.1.1 4.3-1.2 1.3-3.1 1.3-4.3.1zM262.9 198c-1.2-1.2-1.3-3.1-.1-4.3 1.2-1.2 3.1-1.3 4.3-.1 1.2 1.2 1.3 3.1.1 4.3-1.2 1.2-3.1 1.3-4.3.1zm-26.8-29.9c1.2-1.2 3.1-1.3 4.3-.1 1.2 1.2 1.3 3.1.1 4.3-1.2 1.2-3.1 1.3-4.3.1-1.2-1.2-1.3-3.1-.1-4.3zM239.3 152.6l-10.8 11.2 10.8-11.2z"/></g></svg>