<svg class="primer" xmlns="http://www.w3.org/2000/svg" viewBox="0 0 540 301">
    <style>.st4{fill:#FFFFFF}</style>
    <path class="st4" d="M30.6.6v4h-3.5c1.6 4.6 2.8 8.4 3.7 11.1.9 2.8 1.5 4.6 1.8 5.4.9 2.6 1.7 5.2 2.5 7.7s1.5 4.9 2.1 7.1h4.7v4H26.4v-4h5.1l-2.9-10.5H13.4L10.6 36h5.1v4H.2v-4h4.7c.7-2.4 1.4-5 2.2-7.6.8-2.6 1.7-5.3 2.5-8 .9-2.7 1.8-5.4 2.7-8 .9-2.7 1.8-5.2 2.6-7.7h-3.4v-4h19.1zm-3 20.8c-.5-1.5-1.1-3.6-1.9-6.4-.8-2.7-1.9-6.2-3.4-10.4h-2.5c-1.5 4.2-2.6 7.6-3.4 10.4-.8 2.7-1.5 4.9-1.9 6.4h13.1zM65.3 12.4v2.8h-2.4c1.1 3.3 2 5.8 2.6 7.8.6 1.9 1 3.2 1.3 3.8.6 1.8 1.2 3.6 1.7 5.4.5 1.8 1 3.4 1.5 5h3.3V40H62.4v-2.8H66l-2-7.3H53.3l-2 7.3h3.6V40H44v-2.8h3.3c.5-1.7 1-3.5 1.5-5.3.6-1.9 1.2-3.7 1.8-5.6.6-1.9 1.2-3.8 1.9-5.6.6-1.9 1.2-3.7 1.8-5.4h-2.4v-2.8h13.4zM63.2 27c-.3-1.1-.8-2.5-1.3-4.5-.6-1.9-1.4-4.3-2.4-7.3h-1.8c-1 2.9-1.8 5.3-2.4 7.3-.6 1.9-1 3.4-1.3 4.5h9.2zM99.7 36V4.6h-5.1v-4h16.6c2.4 0 4.4.3 6 .8 1.6.6 3 1.3 4 2.3 1 .9 1.7 2 2.2 3.2.4 1.2.7 2.5.7 3.8 0 1-.1 2-.4 2.9-.3.9-.7 1.7-1.2 2.4s-1.1 1.3-1.7 1.9c-.7.5-1.4 1-2.2 1.3 1 .3 2 .8 2.9 1.4.9.6 1.7 1.3 2.3 2.1s1.2 1.7 1.5 2.8c.4 1 .6 2.2.6 3.4 0 1.2-.2 2.4-.6 3.7-.4 1.3-1.2 2.5-2.3 3.6-1.1 1.1-2.6 2-4.6 2.7-2 .7-4.5 1.1-7.6 1.1H94.6v-4h5.1zm11-18.6c1.4 0 2.6-.2 3.6-.5s1.8-.8 2.4-1.4c.6-.6 1-1.3 1.3-2 .3-.8.4-1.6.4-2.4 0-1-.2-1.9-.5-2.7-.3-.8-.8-1.5-1.5-2s-1.5-1-2.6-1.2c-1.1-.3-2.4-.4-3.9-.4h-4.8v12.8h5.6zM105.1 36h5.7c1.7 0 3.2-.2 4.4-.5 1.2-.4 2.2-.8 2.9-1.5.7-.6 1.3-1.4 1.6-2.3.3-.9.5-1.9.5-3 0-.9-.2-1.7-.5-2.6s-.8-1.5-1.5-2.2c-.7-.6-1.7-1.1-2.8-1.5-1.2-.4-2.6-.6-4.4-.6h-5.9V36zM136.1 37.2v-22h-3.5v-2.8h11.6c1.7 0 3.1.2 4.2.6 1.1.4 2.1.9 2.8 1.6.7.7 1.2 1.4 1.5 2.3.3.9.5 1.7.5 2.6 0 .7-.1 1.4-.3 2-.2.6-.5 1.2-.8 1.7-.3.5-.7.9-1.2 1.3s-1 .7-1.5.9c.7.2 1.4.6 2 1 .6.4 1.2.9 1.6 1.5.5.6.8 1.2 1.1 1.9.3.7.4 1.5.4 2.4 0 .8-.1 1.7-.4 2.6-.3.9-.8 1.7-1.6 2.5s-1.8 1.4-3.2 1.9c-1.4.5-3.1.7-5.3.7h-11.4v-2.8h3.5zm7.7-13c1 0 1.9-.1 2.5-.4.7-.2 1.2-.6 1.7-1 .4-.4.7-.9.9-1.4.2-.5.3-1.1.3-1.7 0-.7-.1-1.4-.3-1.9-.2-.6-.6-1-1-1.4-.5-.4-1.1-.7-1.8-.9-.8-.2-1.7-.3-2.8-.3H140v8.9h3.8zm-3.9 13h4c1.2 0 2.2-.1 3.1-.4.8-.2 1.5-.6 2-1s.9-1 1.1-1.6c.2-.6.3-1.3.3-2.1 0-.6-.1-1.2-.3-1.8-.2-.6-.6-1.1-1.1-1.5-.5-.4-1.2-.8-2-1.1-.8-.3-1.9-.4-3.1-.4h-4.1v9.9zM197.4 40.7c-3 0-5.7-.5-8.2-1.5s-4.5-2.4-6.2-4.2c-1.7-1.8-3-3.9-3.9-6.4-.9-2.5-1.4-5.2-1.4-8.3s.5-5.8 1.4-8.3c.9-2.5 2.2-4.7 4-6.4 1.8-1.8 3.9-3.2 6.5-4.2s5.5-1.5 8.7-1.5c2.6 0 5 .5 7 1.4 2 .9 3.8 2.2 5.2 3.7V.6h4.4v11.9h-4.3c-1.3-2.7-3.1-4.6-5.4-5.9-2.3-1.3-4.9-1.9-7.7-1.9-2.2 0-4.1.4-5.8 1.2-1.7.8-3.1 1.9-4.3 3.3-1.2 1.4-2.1 3-2.7 4.9-.6 1.9-.9 4-.9 6.2s.3 4.2.8 6.2c.5 1.9 1.3 3.6 2.4 5 1.1 1.4 2.6 2.6 4.3 3.4 1.8.8 3.9 1.2 6.4 1.2 1.4 0 2.8-.1 4.2-.4 1.4-.3 2.7-.8 3.9-1.5 1.2-.7 2.3-1.6 3.2-2.8.9-1.1 1.7-2.5 2.3-4.2l4.6 2.4c-.9 2.3-2.1 4.1-3.5 5.5-1.4 1.4-3 2.6-4.6 3.4-1.7.8-3.4 1.4-5.2 1.7-1.7.3-3.5.5-5.2.5zM236.3 40.5c-2.1 0-4-.3-5.7-1-1.7-.7-3.1-1.7-4.3-2.9-1.2-1.2-2.1-2.7-2.7-4.5-.6-1.7-1-3.7-1-5.8s.3-4 1-5.8c.6-1.8 1.6-3.3 2.8-4.5 1.2-1.3 2.7-2.2 4.5-2.9 1.8-.7 3.8-1 6.1-1 1.8 0 3.5.3 4.9 1 1.4.7 2.6 1.5 3.6 2.6v-3.1h3.1V21h-3c-.9-1.9-2.2-3.3-3.8-4.2-1.6-.9-3.4-1.4-5.4-1.4-1.5 0-2.9.3-4.1.8-1.2.5-2.2 1.3-3 2.3-.8 1-1.5 2.1-1.9 3.5-.4 1.3-.7 2.8-.7 4.3s.2 3 .5 4.3c.4 1.3.9 2.5 1.7 3.5.8 1 1.8 1.8 3 2.4 1.2.6 2.7.9 4.5.9 1 0 2-.1 3-.3 1-.2 1.9-.6 2.7-1.1.8-.5 1.6-1.1 2.3-1.9.7-.8 1.2-1.8 1.6-3l3.2 1.7c-.7 1.6-1.5 2.9-2.5 3.9s-2.1 1.8-3.2 2.4c-1.2.6-2.4 1-3.6 1.2-1.1.1-2.4.2-3.6.2zM272.3 36h5.4V4.6h-5.4v-4h18.9c2.6 0 4.9.3 6.9.8s3.7 1.2 5.2 2.2c1.5.9 2.7 2 3.7 3.2 1 1.2 1.8 2.6 2.4 4s1.1 2.9 1.3 4.5c.3 1.6.4 3.1.4 4.6 0 3-.4 5.8-1.1 8.2-.8 2.5-2 4.6-3.6 6.3-1.6 1.8-3.8 3.1-6.4 4.1s-5.7 1.4-9.4 1.4h-18.5V36zm11 0h8.4c2.5 0 4.6-.4 6.3-1.2 1.8-.8 3.2-2 4.3-3.4s2-3.1 2.5-5 .8-4 .8-6.2c0-2.1-.3-4.2-.8-6-.5-1.9-1.3-3.5-2.5-4.9-1.2-1.4-2.6-2.5-4.5-3.3-1.8-.8-4.1-1.2-6.8-1.2h-7.8V36zM317.9 37.2h3.8v-22h-3.8v-2.8h13.3c1.8 0 3.4.2 4.8.6 1.4.4 2.6.9 3.7 1.5 1 .6 1.9 1.4 2.6 2.3.7.9 1.3 1.8 1.7 2.8s.7 2.1.9 3.1c.2 1.1.3 2.2.3 3.2 0 2.1-.3 4-.8 5.8-.5 1.7-1.4 3.2-2.5 4.4-1.1 1.2-2.6 2.2-4.5 2.8s-4 1-6.6 1h-12.9v-2.7zm7.7 0h5.9c1.7 0 3.2-.3 4.4-.9 1.2-.6 2.2-1.4 3-2.4.8-1 1.4-2.2 1.7-3.5.4-1.3.6-2.8.6-4.3s-.2-2.9-.5-4.2c-.4-1.3-.9-2.5-1.7-3.5-.8-1-1.9-1.8-3.1-2.3-1.3-.6-2.9-.8-4.7-.8h-5.5v21.9zM368.5 36h5.3V4.6h-5.3v-4h33.2v11h-4.5v-7h-17.9v13h12.4v-3.9h3.4V26h-3.5v-4h-12.3v14h17.9v-7.2h4.4V40h-33.2v-4zM408.9 37.2h3.7v-22h-3.7v-2.8h23.2v7.7H429v-4.9h-12.6v9.1h8.7v-2.7h2.4v8.6h-2.4v-2.8h-8.6v9.8H429v-5h3.1V40h-23.2v-2.8zM466.5 22v14h5.3v4h-16v-4h5.2V4.6h-5.2v-4h31.3v11h-4.5v-7h-16.2v12.9h10.7v-3.9h3.4v12.3H477v-4h-10.5zM499.8 27.4v9.8h3.7V40h-11.2v-2.8h3.6v-22h-3.6v-2.8h21.9v7.7H511v-4.9h-11.3v9h7.5v-2.7h2.4v8.6h-2.4v-2.8h-7.4zM22.9 65c2.8 0 5.4.5 7.6 1.4 2.2.9 4.1 2.2 5.6 3.7v-4.5h4.4v11.9h-4.2c-1.4-2.7-3.2-4.7-5.4-6-2.2-1.3-4.8-1.9-7.7-1.9-2.3 0-4.3.4-6.1 1.2-1.8.8-3.3 1.9-4.5 3.2-1.2 1.4-2.1 3-2.8 4.9-.5 2-.8 4.1-.8 6.3s.3 4.3.9 6.3c.6 1.9 1.6 3.6 2.8 5 1.2 1.4 2.8 2.5 4.6 3.3 1.8.8 4 1.2 6.4 1.2 2.3 0 4.2-.2 5.8-.7 1.6-.5 2.9-1.2 3.9-2.1s1.8-2.1 2.3-3.4c.5-1.4.9-2.9 1-4.7h-7.8v-4.3H43c-.1 3.6-.6 6.7-1.6 9.2-1 2.5-2.4 4.6-4.1 6.2-1.7 1.6-3.7 2.8-6 3.5-2.3.7-4.8 1.1-7.5 1.1-2.8 0-5.3-.3-7.5-1-2.1-.6-4-1.5-5.5-2.6S8 99.9 7 98.5c-1-1.4-1.8-2.9-2.4-4.4-.6-1.5-1-3-1.2-4.5-.2-1.5-.4-2.9-.4-4.2 0-1.5.1-3 .4-4.6.3-1.6.8-3.1 1.4-4.6.7-1.5 1.5-2.9 2.5-4.2 1-1.3 2.3-2.5 3.8-3.5s3.2-1.8 5.2-2.4c1.9-.8 4.2-1.1 6.6-1.1zM63.3 77c2 0 3.8.3 5.3 1 1.6.7 2.9 1.5 3.9 2.6v-3.1h3.1v8.4h-3c-1-1.9-2.2-3.3-3.8-4.2-1.6-.9-3.4-1.4-5.4-1.4-1.6 0-3 .3-4.2.8-1.2.5-2.3 1.3-3.1 2.3-.9 1-1.5 2.1-1.9 3.5-.4 1.3-.7 2.8-.7 4.4s.2 3 .7 4.4a9.4 9.4 0 0 0 2 3.5c.9 1 1.9 1.8 3.2 2.3 1.3.6 2.8.8 4.5.8 1.6 0 2.9-.2 4-.5s2-.8 2.8-1.5c.7-.6 1.3-1.4 1.6-2.4.4-.9.6-2 .7-3.3h-5.4v-3h9.7c0 2.5-.4 4.7-1.1 6.4-.7 1.8-1.7 3.2-2.9 4.3-1.2 1.1-2.6 1.9-4.2 2.4s-3.4.8-5.3.8c-2 0-3.7-.2-5.2-.7-1.5-.5-2.8-1.1-3.9-1.8-1.1-.8-2-1.6-2.7-2.6-.7-1-1.3-2-1.7-3.1-.4-1.1-.7-2.1-.9-3.2-.2-1.1-.3-2-.3-3 0-1.1.1-2.1.3-3.2.2-1.1.5-2.2 1-3.2.5-1.1 1.1-2 1.8-3 .7-.9 1.6-1.7 2.6-2.4s2.2-1.2 3.6-1.7c1.6-.4 3.1-.6 4.9-.6zM100.5 101h4.8V69.6h-4.8v-4h15.1v4h-4.9v12.6h18.8V69.6h-4.9v-4h15.1v4h-4.8V101h4.8v4h-15.1v-4h4.9V86.6h-18.8V101h4.9v4h-15.1v-4zM146.8 102.2h3.3v-22h-3.3v-2.8h10.6v2.8H154V89h13.2v-8.8h-3.4v-2.8h10.6v2.8H171v22h3.3v2.8h-10.6v-2.8h3.4v-10H154v10.1h3.4v2.8h-10.6v-2.9zM198.1 101h4.6V69.6h-4.6v-4h14.6v4h-4.5V101h4.5v4h-14.6v-4zM220 102.2h3.2v-22H220v-2.8h10.2v2.8H227v22h3.2v2.8H220v-2.8zM249.3 107.1c.5 0 1.1.1 1.8.1h2.3c1.8 0 3-.5 3.7-1.4s1.1-2.3 1.1-4.2v-32H253v-4h16.1v4h-5.2v32.7c0 1.9-.3 3.5-.9 4.8-.6 1.3-1.3 2.3-2.2 3-.9.8-1.9 1.3-3.1 1.6s-2.2.5-3.3.5c-.8 0-1.7-.1-2.6-.2s-1.7-.2-2.4-.4v-4.5zM271.8 106.5c.4 0 .8.1 1.2.1h1.6c1.2 0 2.1-.3 2.6-.9.5-.6.8-1.6.8-2.9V80.3h-3.7v-2.8h11.3v2.8H282v22.9c0 1.3-.2 2.5-.6 3.3-.4.9-.9 1.6-1.6 2.1-.6.5-1.4.9-2.1 1.1-.8.2-1.6.3-2.3.3-.6 0-1.2 0-1.8-.1-.6-.1-1.2-.2-1.7-.3v-3.1zM328.5 101h4.4L319 85v16h4.8v4h-15.4v-4h5.1V69.6h-5.1v-4h15.9v4H319v14.3l14.4-14.3h-4.6v-4h15.4v4h-4.4l-14.4 14.7L340 101h4.5v4h-15.9v-4zM363.5 102.2h3.1L356.8 91v11.2h3.3v2.8h-10.8v-2.8h3.6v-22h-3.6v-2.8h11.1v2.8h-3.7v10l10.1-10h-3.3v-2.8h10.8v2.8h-3.1l-10.1 10.3 10.3 11.7h3.1v2.8h-11.1v-2.8zM396.6 101h5.4V69.6h-5.4v-4h16.2v4h-5.3V101h14V89.6h5V105h-29.9v-4zM432.4 102.2h3.8v-22h-3.8v-2.8h11.3v2.8H440v22h9.8v-8h3.5V105h-20.9v-2.8zM7.9 134.6H2.8v-4H16l5.7 14.3 5.6 14.3 11.6-28.6h13.3v4h-5V166h5v4H37.6v-4h4.5v-31L28 170h-1.4l-14.1-34.9V166H17v4H2.8v-4h5.1v-31.4zM62.4 145.3h-3.5v-2.8h9.2l4 10 3.9 10 8.1-20h9.3v2.8H90v22h3.5v2.8H83.2v-2.8h3.2v-21.7L76.5 170h-1l-9.9-24.5v21.7h3.2v2.8h-9.9v-2.8h3.5v-21.9zM116.4 166h5.8v-31.4h-5.8v-4h13.1l18.7 32.2v-28.2h-5.6v-4h16.1v4h-5.9V170h-6.3l-19.8-34.1V166h5.8v4h-16.1v-4zM163.8 167.2h4v-22h-4v-2.8h9.1l13.1 22.5v-19.7h-3.9v-2.8h11.3v2.8h-4.1V170h-4.4l-13.8-23.9v21.1h4v2.8h-11.3v-2.8zM215.8 150.4c0-2.8.5-5.5 1.4-8 .9-2.5 2.3-4.6 4-6.5 1.7-1.8 3.9-3.3 6.4-4.3 2.5-1 5.3-1.6 8.5-1.6s6 .5 8.5 1.6 4.7 2.5 6.4 4.3c1.8 1.8 3.1 4 4 6.5.9 2.5 1.4 5.1 1.4 8 0 2.8-.5 5.5-1.4 7.9-.9 2.5-2.3 4.6-4 6.4-1.8 1.8-3.9 3.3-6.4 4.3-2.5 1.1-5.4 1.6-8.5 1.6-3.2 0-6-.5-8.5-1.6-2.5-1-4.6-2.5-6.4-4.3-1.7-1.8-3.1-4-4-6.4-.9-2.4-1.4-5.1-1.4-7.9zm6.1 0c0 2.2.3 4.2 1 6.1.7 1.9 1.6 3.5 2.9 5 1.3 1.4 2.8 2.5 4.5 3.4s3.7 1.2 5.9 1.2 4.1-.4 5.9-1.2c1.8-.8 3.3-1.9 4.5-3.4 1.2-1.4 2.2-3.1 2.9-5 .7-1.9 1-3.9 1-6.1 0-2.2-.3-4.2-1-6.2-.7-1.9-1.6-3.6-2.9-5-1.2-1.4-2.7-2.5-4.5-3.3-1.8-.8-3.7-1.2-5.9-1.2s-4.1.4-5.9 1.2c-1.7.8-3.2 1.9-4.5 3.3-1.3 1.4-2.2 3.1-2.9 5-.7 1.9-1 4-1 6.2zM263.1 156.3c0-2 .3-3.9 1-5.6.7-1.7 1.6-3.2 2.8-4.5 1.2-1.3 2.7-2.3 4.5-3 1.8-.7 3.7-1.1 5.9-1.1s4.2.4 6 1.1c1.8.7 3.3 1.8 4.5 3 1.2 1.3 2.2 2.8 2.8 4.5.7 1.7 1 3.6 1 5.6 0 2-.3 3.8-1 5.6-.7 1.7-1.6 3.2-2.8 4.5-1.2 1.3-2.7 2.3-4.5 3-1.8.7-3.8 1.1-6 1.1s-4.2-.4-6-1.1c-1.8-.7-3.2-1.7-4.5-3-1.2-1.3-2.2-2.8-2.8-4.5-.6-1.8-.9-3.6-.9-5.6zm4.2 0c0 1.5.2 2.9.7 4.3.5 1.3 1.1 2.5 2 3.5.9 1 1.9 1.8 3.1 2.4 1.2.6 2.6.9 4.1.9 1.5 0 2.9-.3 4.1-.9 1.2-.6 2.3-1.4 3.2-2.4.9-1 1.5-2.2 2-3.5.5-1.3.7-2.7.7-4.3 0-1.5-.2-3-.7-4.3-.5-1.3-1.1-2.5-2-3.5-.9-1-1.9-1.8-3.2-2.3-1.2-.6-2.6-.8-4.1-.8-1.5 0-2.9.3-4.1.8-1.2.6-2.3 1.3-3.1 2.3-.9 1-1.6 2.2-2 3.5-.4 1.3-.7 2.7-.7 4.3zM314.7 166h5.2v-31.4h-5.2v-4H333c2.7 0 5 .4 6.7 1.1 1.7.7 3.1 1.7 4.1 2.8 1 1.2 1.7 2.4 2.1 3.8.4 1.4.6 2.8.6 4.1 0 2.3-.4 4.2-1.2 5.6-.8 1.5-1.9 2.6-3.3 3.5-1.4.9-3.1 1.4-5.1 1.8-2 .3-4.1.5-6.4.5h-5V166h5.4v4h-16.1v-4zm10.7-15.7h6.1c1.8 0 3.4-.2 4.6-.6 1.2-.4 2.2-1 2.9-1.7.7-.7 1.2-1.5 1.5-2.5.3-1 .4-2 .4-3.1 0-2.5-.7-4.4-2-5.8-1.3-1.4-3.2-2-5.7-2h-7.8v15.7zM352.1 167.2h3.6v-22h-3.6v-2.8h12.8c1.9 0 3.5.3 4.7.8 1.2.5 2.2 1.2 2.9 2 .7.8 1.2 1.7 1.5 2.7.3 1 .4 1.9.4 2.9 0 1.6-.3 2.9-.8 3.9-.6 1-1.3 1.8-2.3 2.4-1 .6-2.2 1-3.6 1.2-1.4.2-2.9.3-4.5.3h-3.5v8.5h3.8v2.8h-11.3v-2.7zm7.4-11h4.3c1.3 0 2.4-.1 3.2-.4.9-.3 1.5-.7 2-1.2s.8-1.1 1-1.7c.2-.7.3-1.4.3-2.2 0-1.7-.5-3.1-1.4-4-.9-.9-2.3-1.4-4-1.4h-5.4v10.9zM397 150.4c0-2.8.5-5.5 1.4-8 .9-2.5 2.3-4.6 4-6.5 1.7-1.8 3.9-3.3 6.4-4.3 2.5-1 5.3-1.6 8.5-1.6s6 .5 8.5 1.6 4.7 2.5 6.4 4.3c1.8 1.8 3.1 4 4 6.5.9 2.5 1.4 5.1 1.4 8 0 2.6-.4 5-1.2 7.3-.8 2.3-2 4.3-3.6 6-1.6 1.8-3.5 3.2-5.7 4.3-2.2 1.1-4.8 1.9-7.6 2.2.8.2 1.6.5 2.4.8l2.4.9c.8.3 1.7.5 2.5.7.8.2 1.7.3 2.5.3.5 0 .9 0 1.3-.1s.8-.2 1.3-.3v5.1c-1 .3-2.1.4-3.2.4-.8 0-1.6-.1-2.4-.3-.8-.2-1.5-.4-2.2-.6-.7-.3-1.4-.5-2.2-.8s-1.5-.6-2.2-.8c-.8-.3-1.6-.5-2.4-.6-.8-.2-1.8-.3-2.7-.3-1.7 0-3.3.2-4.8.5s-2.9.8-4.2 1.3v-4.7c1.4-.7 2.6-1.2 3.7-1.5 1.1-.3 2.1-.4 3-.4-2.4-.5-4.5-1.4-6.4-2.6-1.9-1.2-3.5-2.7-4.8-4.3-1.3-1.7-2.3-3.6-3-5.7-.8-2.3-1.1-4.5-1.1-6.8zm6 0c0 2.2.3 4.3 1 6.2.7 1.9 1.6 3.6 2.9 5 1.3 1.4 2.8 2.5 4.5 3.3 1.7.8 3.7 1.2 5.9 1.2s4.1-.4 5.9-1.2c1.8-.8 3.3-1.9 4.5-3.3 1.2-1.4 2.2-3.1 2.9-5 .7-1.9 1-4 1-6.2s-.3-4.2-1-6.2c-.7-1.9-1.6-3.6-2.9-5-1.2-1.4-2.7-2.5-4.5-3.3-1.8-.8-3.7-1.2-5.9-1.2s-4.1.4-5.9 1.2c-1.7.8-3.2 1.9-4.5 3.3-1.3 1.4-2.2 3.1-2.9 5-.6 1.9-1 4-1 6.2zM444.3 156.3c0-2 .3-3.9 1-5.6.7-1.7 1.6-3.2 2.8-4.5 1.2-1.3 2.7-2.3 4.5-3 1.8-.7 3.7-1.1 5.9-1.1s4.2.4 6 1.1c1.8.7 3.3 1.8 4.5 3 1.2 1.3 2.2 2.8 2.8 4.5.7 1.7 1 3.6 1 5.6 0 1.8-.3 3.5-.9 5.1-.6 1.6-1.4 3-2.5 4.2-1.1 1.2-2.4 2.2-4 3-1.6.8-3.3 1.3-5.3 1.5.5.2 1.1.3 1.7.6.6.2 1.1.4 1.7.6.6.2 1.2.4 1.8.5.6.1 1.2.2 1.8.2.3 0 .6 0 .9-.1.3 0 .6-.1.9-.2v3.5c-.7.2-1.5.3-2.3.3-.6 0-1.2-.1-1.7-.2s-1.1-.3-1.6-.4l-1.5-.6c-.5-.2-1-.4-1.6-.6-.5-.2-1.1-.3-1.7-.4-.6-.1-1.2-.2-1.9-.2-1.2 0-2.3.1-3.4.3-1 .2-2 .5-2.9.9V171c1-.5 1.8-.8 2.6-1 .8-.2 1.5-.3 2.1-.3-1.7-.4-3.2-1-4.5-1.8-1.3-.8-2.4-1.9-3.4-3-.9-1.2-1.6-2.5-2.1-4-.4-1.4-.7-3-.7-4.6zm4.3 0c0 1.6.2 3 .7 4.3.5 1.3 1.1 2.5 2 3.5.9 1 1.9 1.8 3.1 2.3 1.2.6 2.6.8 4.1.8 1.5 0 2.9-.3 4.1-.8 1.2-.6 2.3-1.3 3.2-2.3.9-1 1.5-2.1 2-3.5.5-1.3.7-2.8.7-4.3s-.2-3-.7-4.3c-.5-1.3-1.1-2.5-2-3.5-.9-1-1.9-1.8-3.2-2.3-1.2-.6-2.6-.8-4.1-.8-1.5 0-2.9.3-4.1.8-1.2.6-2.3 1.3-3.1 2.3-.9 1-1.6 2.2-2 3.5-.5 1.3-.7 2.7-.7 4.3zM2.6 231h5.6v-31.4H2.6v-4h18.8c2.3 0 4.2.2 5.8.7 1.6.5 3 1.2 4 2.1s1.8 2 2.4 3.2c.5 1.3.8 2.6.8 4.2 0 2.7-.7 4.9-2.2 6.6s-3.7 2.9-6.7 3.5l8 15.1h5v4h-8.6l-9.7-18.4h-6.6V231h5.3v4H2.6v-4zm18.6-18.4c1.5 0 2.7-.2 3.7-.6 1-.4 1.7-.9 2.3-1.6.6-.6 1-1.4 1.2-2.2.2-.8.3-1.6.3-2.4 0-1.9-.7-3.4-2.1-4.5-1.4-1.1-3.3-1.6-5.7-1.6h-7.4v12.9h7.7zM42.6 232.2h3.9v-22h-3.9v-2.8h13.2c1.6 0 2.9.2 4.1.5 1.1.3 2.1.8 2.8 1.4.7.6 1.3 1.4 1.7 2.2.4.9.5 1.9.5 2.9 0 1.9-.5 3.4-1.5 4.7-1 1.2-2.6 2-4.7 2.5l5.6 10.6h3.5v2.8h-6.1L55 222.2h-4.6v10.1h3.7v2.8H42.6v-2.9zm13.1-12.9c1 0 1.9-.1 2.6-.4.7-.3 1.2-.6 1.6-1.1.4-.4.7-1 .8-1.5.2-.6.2-1.1.2-1.7 0-1.4-.5-2.4-1.4-3.2-1-.8-2.3-1.1-4-1.1h-5.2v9h5.4zM105.2 235.6c-3.9 0-7.2-1.2-10.1-3.6v3h-4.6v-13.2h4.6v4c1.4 1.8 2.8 3.1 4.4 4 1.6.9 3.4 1.3 5.6 1.3 1.2 0 2.2-.2 3.1-.5.9-.3 1.7-.8 2.4-1.4.7-.6 1.2-1.2 1.5-2 .4-.8.5-1.6.5-2.5 0-1.3-.3-2.3-.9-3.2-.6-.8-1.4-1.5-2.4-2.1-1-.6-2.2-1-3.5-1.4-1.3-.4-2.8-.7-4.3-1.1-1.5-.3-3-.8-4.4-1.3-1.4-.5-2.6-1.2-3.6-2.1-1-.9-1.9-1.9-2.5-3.2-.6-1.3-.9-2.8-.9-4.7 0-1.8.3-3.3 1-4.6.6-1.3 1.5-2.4 2.6-3.3 1.1-.9 2.4-1.6 3.9-2 1.5-.5 3.1-.7 4.8-.7 1.7 0 3.3.3 4.8.8s2.9 1.3 4.2 2.3v-2.5h4.6v11.2h-4.6V204c-1-1.4-2.2-2.5-3.5-3.2-1.3-.7-2.9-1.1-4.8-1.1-1.3 0-2.4.1-3.3.4-1 .3-1.8.7-2.4 1.2s-1.1 1.1-1.5 1.8c-.3.7-.5 1.5-.5 2.3 0 1.4.4 2.5 1.1 3.3.7.8 1.6 1.5 2.8 1.9 1.2.5 2.4.9 3.9 1.2 1.4.3 2.9.7 4.4 1.1 1.4.4 2.8.9 4.1 1.5 1.3.6 2.4 1.4 3.4 2.3 1 .9 1.7 2 2.3 3.3.6 1.3.9 2.8.9 4.5 0 1.6-.3 3-1 4.4-.6 1.4-1.5 2.5-2.7 3.5-1.1 1-2.5 1.8-4.1 2.3-1.6.7-3.4.9-5.3.9zM135.8 235.5c-2.7 0-5.1-.8-7.1-2.5v2.1h-3.2v-9.3h3.2v2.8c1 1.2 2 2.2 3.1 2.8 1.1.6 2.4.9 3.9.9.8 0 1.5-.1 2.2-.3.7-.2 1.2-.5 1.7-.9s.8-.9 1.1-1.4c.2-.5.4-1.1.4-1.8 0-.9-.2-1.6-.6-2.2-.4-.6-1-1.1-1.7-1.5-.7-.4-1.5-.7-2.5-1-.9-.3-1.9-.5-3-.8-1.1-.2-2.1-.5-3.1-.9s-1.8-.8-2.5-1.4c-.7-.6-1.3-1.3-1.7-2.2-.4-.9-.6-2-.6-3.3 0-1.2.2-2.3.7-3.2.4-.9 1.1-1.7 1.8-2.3.8-.6 1.7-1.1 2.8-1.4 1.1-.3 2.2-.5 3.4-.5 1.2 0 2.3.2 3.3.6 1.1.4 2.1.9 3 1.6v-1.8h3.2v7.8h-3.2v-2c-.7-1-1.6-1.8-2.5-2.3-.9-.5-2-.8-3.3-.8-.9 0-1.7.1-2.3.3-.7.2-1.2.5-1.7.8-.5.4-.8.8-1 1.3-.2.5-.3 1-.3 1.6 0 1 .2 1.7.7 2.3.5.6 1.1 1 1.9 1.4.8.3 1.7.6 2.7.8 1 .2 2 .5 3.1.7 1 .3 2 .6 2.8 1.1.9.4 1.7 1 2.4 1.6.7.7 1.2 1.4 1.6 2.3.4.9.6 2 .6 3.1s-.2 2.1-.7 3.1c-.4.9-1.1 1.8-1.9 2.5-.8.7-1.8 1.2-2.9 1.6-1.2.5-2.4.7-3.8.7zM174.9 231h6v-31.4h-9.1v7.9h-4.4v-11.9h32.4v11.9h-4.5v-7.9h-8.9V231h5.9v4h-17.5v-4zM210.3 232.2h4.2v-22h-6.3v5.5h-3.1v-8.3h22.7v8.3h-3.1v-5.5h-6.2v22h4.2v2.8h-12.2v-2.8zM249.4 199.6v-4h15.4v4H260v22.5c0 1.5.2 2.7.5 3.8.3 1.1.8 2 1.5 2.8.7.8 1.6 1.3 2.7 1.7 1.1.4 2.5.6 4.1.6 1.7 0 3.2-.2 4.4-.6 1.2-.4 2.1-1 2.8-1.8.7-.8 1.2-1.8 1.5-2.9.3-1.2.4-2.5.4-4v-22.1H273v-4h15.4v4h-5.1V222c0 2.5-.4 4.6-1.1 6.3-.8 1.7-1.8 3.1-3.1 4.2s-2.8 1.9-4.5 2.4c-1.7.5-3.5.7-5.5.7-3.1 0-5.5-.4-7.5-1.2s-3.4-1.8-4.5-3.1-1.8-2.7-2.2-4.4c-.4-1.6-.6-3.3-.6-5.1v-1.3-2.6-3.6-4-3.9-7h-4.9zM293.3 210.3v-2.8h10.8v2.8h-3.4V226c0 1 .1 1.9.3 2.7.2.8.6 1.4 1.1 2 .5.5 1.1.9 1.9 1.2.8.3 1.8.4 2.9.4 1.2 0 2.2-.1 3.1-.4.8-.3 1.5-.7 2-1.3.5-.5.8-1.2 1-2 .2-.8.3-1.7.3-2.8v-15.5h-3.4v-2.8h10.8v2.8h-3.6v15.8c0 1.7-.3 3.2-.8 4.4-.5 1.2-1.3 2.2-2.2 3s-2 1.3-3.2 1.7c-1.2.3-2.5.5-3.8.5-2.1 0-3.9-.3-5.2-.8s-2.4-1.3-3.1-2.1c-.8-.9-1.3-1.9-1.6-3.1-.3-1.1-.4-2.3-.4-3.6v-.9-1.9-2.5-2.8-2.7-4.9h-3.5zM345.2 199.6h-5v-4h15.6v4H351l10.8 29.1 10.7-29.1h-4.8v-4h15.2v4h-5L364.2 235h-5.3l-13.7-35.4zM388 210.3h-3.5v-2.8h10.9v2.8H392l7.6 20.4 7.5-20.4h-3.4v-2.8h10.6v2.8h-3.5l-9.5 24.8h-3.7l-9.6-24.8zM437.6 199.6h-5v-4h15.1v4h-4.9l8.4 28.2 4.2-14.1 4-14.1h-4.8v-4h17.7v4h-4.8l8.2 28.2 4.3-14.1 4.1-14.1h-4.9v-4h14.6v4h-4.9l-10.6 35.7h-5.4l-9.8-32.1-9.6 32.1h-5.2l-10.7-35.7zM499.3 210.3h-3.5v-2.8h10.6v2.8H503l5.9 19.7 2.9-9.9 2.8-9.9h-3.3v-2.8h12.4v2.8h-3.3l5.8 19.7 3-9.9 2.8-9.9h-3.4v-2.8h10.2v2.8h-3.4l-7.4 25h-3.8l-6.8-22.4-6.7 22.4H507l-7.7-24.8zM11.8 296h5.4v-14.1L5 264.6H0v-4h16.1v4H11l9.4 13.2 8.8-13.2H24v-4h15.7v4h-5.3l-11.7 17.3V296h5.6v4H11.8v-4zM49.9 297.2h3.8v-9.9l-8.6-12.1h-3.5v-2.8h11.3v2.8h-3.6l6.6 9.3 6.1-9.3h-3.6v-2.8h11v2.8h-3.7l-8.2 12.1v9.9h3.9v2.8H49.9v-2.8zM90.7 295.6l22.5-31h-17v6.9h-4.4v-10.9h28.4v3.8L97.3 296H116v-7.5h4.4V300H90.7v-4.4zM127.3 297l15.7-21.7h-11.9v4.8H128v-7.7h20v2.7l-16 22.1h13.1V292h3.1v8h-20.9v-3zM172.9 283.5h17.7v4.9h-17.7v-4.9zM226.5 300.7c-2.4 0-4.5-.5-6.3-1.5s-3.2-2.4-4.4-4.1-2-3.9-2.6-6.4c-.6-2.5-.9-5.3-.9-8.3 0-3 .3-5.8.9-8.3.6-2.5 1.4-4.6 2.6-6.4s2.6-3.2 4.4-4.1c1.8-1 3.9-1.5 6.3-1.5s4.5.5 6.3 1.5c1.8 1 3.3 2.4 4.4 4.1s2 3.9 2.6 6.4c.6 2.5.9 5.3.9 8.3 0 3.1-.3 5.8-.9 8.3-.6 2.5-1.4 4.6-2.6 6.4s-2.6 3.2-4.4 4.1c-1.8 1-3.9 1.5-6.3 1.5zm-.1-4.1c1.5 0 2.9-.3 4-.9 1.1-.6 2.1-1.6 2.8-2.9.7-1.3 1.3-3 1.6-5.1.4-2.1.5-4.5.5-7.3 0-5.6-.7-9.7-2.2-12.3s-3.7-3.9-6.8-3.9c-1.7 0-3.1.4-4.2 1.1-1.1.8-2.1 1.8-2.7 3.2s-1.2 3.1-1.5 5.1c-.3 2-.4 4.2-.4 6.7 0 2.6.1 4.8.4 6.8.3 2 .8 3.7 1.5 5.1s1.6 2.5 2.7 3.2c1.2.8 2.6 1.2 4.3 1.2zM248.6 295.8h5.7V265h-5.9v-4.3h11v35.1h5.3v4.3h-16v-4.3zM293.1 287.1h4.3V300h-26c-.1-.6-.1-1.2-.1-1.8 0-1.9.3-3.6.9-5.1.6-1.5 1.4-2.9 2.3-4.2 1-1.3 2.1-2.4 3.3-3.5s2.5-2.1 3.8-3c1.3-.9 2.5-1.9 3.8-2.7 1.2-.9 2.3-1.8 3.3-2.7 1-.9 1.7-1.9 2.3-2.9.6-1 .9-2.1.9-3.3 0-1.9-.6-3.4-1.8-4.5-1.2-1.1-3-1.6-5.5-1.6-1.4 0-2.5.2-3.4.6s-1.7 1-2.3 1.8c-.6.8-1 1.8-1.2 3.1-.3 1.3-.4 2.8-.4 4.5h-4.9c0-5 1-8.7 3.1-11 2-2.4 5.1-3.5 9.1-3.5 2.5 0 4.5.3 6.2 1 1.7.7 3 1.5 4 2.5s1.7 2.2 2.2 3.5c.4 1.3.6 2.5.6 3.7 0 1.5-.3 2.9-.8 4.1-.5 1.2-1.2 2.4-2.1 3.4-.9 1-1.9 2-3 3-1.1.9-2.3 1.8-3.6 2.7s-2.4 1.7-3.7 2.5c-1.2.8-2.3 1.7-3.3 2.6-1 .9-1.9 1.9-2.6 2.9-.7 1-1.2 2.2-1.5 3.4h16.1v-8.4zM310.7 288.1c.2 2.6 1.1 4.5 2.5 5.9 1.4 1.4 3.4 2.1 5.9 2.1 1.5 0 2.8-.2 3.9-.5s2.1-.8 2.8-1.4 1.3-1.3 1.7-2.2c.4-.8.6-1.7.6-2.7 0-1.5-.3-2.7-1-3.6-.6-1-1.5-1.7-2.6-2.3s-2.4-.9-4-1.1c-1.5-.2-3.2-.3-4.9-.3v-4.5h3c2.8 0 4.8-.5 6.2-1.5 1.4-1 2-2.6 2-4.8 0-.9-.2-1.7-.5-2.5s-.8-1.5-1.5-2c-.7-.6-1.5-1-2.5-1.4-1-.3-2.2-.5-3.6-.5-1.1 0-2.1.2-3 .5-.8.3-1.6.8-2.1 1.4-.6.6-1 1.3-1.3 2.1-.3.8-.5 1.7-.6 2.8l-5.1-.9c.1-1.6.4-3 1-4.3.6-1.3 1.4-2.4 2.4-3.3 1-.9 2.3-1.6 3.7-2.1 1.4-.5 3-.8 4.8-.8 2.1 0 3.9.2 5.6.7 1.7.5 3.1 1.2 4.3 2.1 1.2.9 2.1 2 2.7 3.3.6 1.3.9 2.8.9 4.4 0 1-.1 1.9-.3 2.8-.2.9-.6 1.8-1.1 2.6s-1.2 1.5-2.1 2.1-1.9 1.1-3.2 1.5c1.3.3 2.5.7 3.6 1.2 1 .6 1.9 1.3 2.6 2.1.7.8 1.2 1.8 1.6 2.8.4 1 .5 2.2.5 3.3 0 1.7-.3 3.3-1 4.8-.7 1.4-1.6 2.7-2.9 3.7-1.3 1-2.8 1.8-4.7 2.4-1.9.6-4 .9-6.3.9-1.9 0-3.6-.3-5.2-.8s-3-1.3-4.1-2.3-2.1-2.3-2.7-3.9c-.6-1.6-1-3.4-1-5.5l5-.3zM350.3 295.8h5.6v-6.5h-15.7v-4.1l15.8-24.5h4.7v24.5h6.5v4.1h-6.5v6.5h5.1v4.3h-15.6v-4.3zm5.6-28.1l-10.8 17.5h10.8v-17.5zM380.1 288.7c.4 2.4 1.3 4.3 2.7 5.6 1.4 1.3 3.1 2 5.3 2 1.4 0 2.6-.2 3.6-.7 1-.4 1.9-1 2.6-1.8.7-.8 1.2-1.7 1.6-2.7.4-1 .5-2.2.5-3.4 0-1.5-.2-2.9-.6-4s-1-2.1-1.7-2.8c-.7-.8-1.5-1.3-2.5-1.7-.9-.4-2-.6-3-.6-1.4 0-2.9.3-4.3.9-1.4.6-2.8 1.6-4.1 2.9l-2.8-1.5v-20.4h22v8.1h-4.7v-3.4h-13c-.2 2.1-.4 4.2-.5 6.2-.2 2-.3 4.1-.5 6.2 1-1.4 2.2-2.4 3.6-3 1.4-.6 3-.9 4.8-.9 2 0 3.7.3 5.3 1 1.6.7 2.9 1.6 4 2.8 1.1 1.2 2 2.7 2.6 4.4.6 1.7.9 3.5.9 5.6 0 1.8-.3 3.4-.8 5s-1.4 2.9-2.5 4.1-2.6 2.1-4.3 2.8c-1.7.7-3.8 1-6.2 1-2 0-3.7-.3-5.2-.8s-2.9-1.3-3.9-2.4-2-2.3-2.6-3.7c-.6-1.5-1-3.1-1.1-5l4.8.2zM431.5 271c-.1-1-.4-1.9-.8-2.8s-.9-1.5-1.6-2.1c-.6-.6-1.3-1-2.1-1.4-.8-.3-1.6-.5-2.4-.5-1.4 0-2.7.3-3.9.9-1.2.6-2.1 1.5-2.9 2.7-.8 1.2-1.4 2.6-1.8 4.4-.4 1.7-.6 3.7-.6 5.9 1.2-1 2.6-1.7 4.3-2.2 1.7-.5 3.6-.7 5.5-.7 1.8 0 3.4.3 4.8.9 1.4.6 2.7 1.4 3.7 2.5s1.8 2.4 2.4 3.8c.6 1.5.8 3 .8 4.8 0 1.9-.3 3.6-.9 5.3-.6 1.6-1.4 3-2.5 4.2-1.1 1.2-2.4 2.1-4 2.8s-3.3 1-5.3 1c-2.3 0-4.4-.5-6.1-1.4-1.8-.9-3.2-2.2-4.4-3.9-1.2-1.7-2.1-3.8-2.7-6.3-.6-2.5-.9-5.3-.9-8.5 0-3.1.3-5.9.9-8.4s1.5-4.7 2.6-6.5c1.2-1.8 2.6-3.2 4.4-4.1 1.8-1 3.8-1.5 6.2-1.5 1.8 0 3.4.3 4.8.8s2.7 1.3 3.7 2.3c1 1 1.9 2.1 2.4 3.5.6 1.3.9 2.8.9 4.5h-4.5zm-6.9 8.8c-.6 0-1.3.1-2.1.2s-1.6.3-2.4.5-1.6.5-2.4.9c-.8.4-1.5.8-2.2 1.2.3 4.4 1.1 7.8 2.5 10 1.3 2.3 3.3 3.4 6.1 3.4 1.3 0 2.4-.2 3.4-.6 1-.4 1.8-1 2.5-1.8s1.2-1.6 1.5-2.6c.3-1 .5-2.1.5-3.3 0-1.1-.2-2.2-.5-3.2s-.8-1.8-1.4-2.5c-.6-.7-1.4-1.2-2.3-1.6-1-.4-2.1-.6-3.2-.6zM470 260.6v4.4c-2.1 2.1-3.9 4.4-5.5 6.9-1.5 2.4-2.8 5-3.8 7.6-1 2.6-1.8 5.3-2.2 8.1-.5 2.7-.7 5.5-.7 8.2h6.2v4.3h-17.5v-4.3h5.9c0-3.1.3-6.1.9-9 .6-2.9 1.4-5.7 2.4-8.3 1-2.6 2.2-5.1 3.7-7.3 1.4-2.3 3-4.3 4.6-6.1h-15.1v5.7h-4.7v-10H470zM490.2 300.6c-2.2 0-4.1-.3-5.9-.8s-3.3-1.3-4.6-2.3-2.2-2.2-2.9-3.6c-.7-1.4-1-3-1-4.7 0-2.3.6-4.4 1.9-6.1 1.3-1.7 3.2-2.9 5.9-3.6-1.3-.5-2.3-1-3.2-1.7-.8-.6-1.5-1.3-2-2.1s-.9-1.6-1.1-2.5c-.2-.9-.3-1.9-.3-2.9 0-1.5.3-2.9.9-4.2.6-1.3 1.5-2.4 2.7-3.3s2.6-1.6 4.2-2.1 3.5-.8 5.5-.8 3.9.3 5.5.8 3 1.2 4.2 2.1 2.1 2 2.7 3.3c.6 1.3.9 2.7.9 4.2 0 1-.1 2-.3 2.9-.2.9-.6 1.7-1.1 2.5-.5.8-1.2 1.5-2.1 2.1-.9.6-1.9 1.2-3.2 1.7 2.6.7 4.6 1.9 5.8 3.6 1.3 1.7 1.9 3.8 1.9 6.1 0 1.7-.3 3.3-1 4.7-.7 1.4-1.7 2.6-2.9 3.6s-2.8 1.8-4.6 2.3-3.7.8-5.9.8zm0-18.8c-2.9 0-5.1.6-6.6 1.9-1.5 1.3-2.2 3.1-2.2 5.3 0 1 .2 2 .6 2.8.4.9 1 1.6 1.8 2.2.8.6 1.7 1.1 2.8 1.4 1.1.3 2.3.5 3.6.5s2.5-.2 3.6-.5 2-.8 2.8-1.4c.8-.6 1.4-1.4 1.8-2.2.4-.9.6-1.8.6-2.8 0-2.3-.7-4.1-2.2-5.3-1.4-1.3-3.6-1.9-6.6-1.9zm0-17.3c-2.6 0-4.5.6-5.9 1.7-1.4 1.2-2.1 2.7-2.1 4.6 0 1 .2 1.8.6 2.6.4.8 1 1.5 1.7 2.1s1.6 1 2.6 1.4 2.1.5 3.2.6c1.2-.1 2.2-.3 3.2-.6s1.8-.8 2.5-1.4 1.3-1.3 1.7-2.1.6-1.7.6-2.6c0-1.9-.7-3.5-2.1-4.6-1.4-1.1-3.4-1.7-6-1.7zM518.4 289.6c.1 1 .4 1.9.9 2.8s1 1.5 1.7 2.1c.7.6 1.4 1 2.3 1.4.9.3 1.7.5 2.7.5 1.3 0 2.5-.3 3.6-.9 1.1-.6 2-1.5 2.7-2.7s1.3-2.7 1.7-4.5c.4-1.8.6-4 .6-6.4-1.2 1.2-2.6 2-4.3 2.6-1.7.6-3.6.9-5.5.9-1.8 0-3.4-.3-4.8-.9-1.4-.6-2.7-1.4-3.7-2.5s-1.8-2.4-2.4-3.8c-.6-1.5-.8-3-.8-4.8 0-1.9.3-3.7.9-5.3.6-1.6 1.4-3 2.5-4.2 1.1-1.2 2.4-2.1 4-2.8 1.6-.7 3.3-1 5.3-1 4.6 0 8.2 1.7 10.5 5.2 2.4 3.5 3.6 8.4 3.6 14.9 0 3.1-.3 5.9-.9 8.5-.6 2.5-1.5 4.7-2.6 6.5-1.2 1.8-2.6 3.2-4.4 4.1-1.8 1-3.8 1.5-6.2 1.5-1.8 0-3.4-.3-4.8-.8s-2.7-1.3-3.7-2.3c-1-1-1.9-2.1-2.4-3.5-.6-1.3-.9-2.8-.9-4.5h4.4zm7-9.1c.6 0 1.3-.1 2.1-.3.8-.2 1.6-.4 2.4-.8s1.6-.8 2.4-1.3c.8-.5 1.5-1.2 2.2-1.9-.2-1.9-.5-3.6-.9-5s-.9-2.7-1.6-3.6c-.7-1-1.5-1.7-2.5-2.2-1-.5-2.2-.8-3.6-.8-1.3 0-2.4.2-3.4.6-1 .4-1.8 1-2.5 1.8s-1.2 1.6-1.5 2.6c-.3 1-.5 2.1-.5 3.3 0 1.1.2 2.1.5 3 .3.9.8 1.7 1.4 2.4.6.7 1.4 1.2 2.3 1.6 1 .4 2 .6 3.2.6z"/>
</svg>