<svg class="primer mobile" xmlns="http://www.w3.org/2000/svg" viewBox="0 0 342.4 172">
    <style>.st0{fill:#218288}</style>
    <path class="st0" d="M20.2 21.7H18c-.3 0-.5-.1-.6-.2-.2-.1-.3-.3-.4-.5l-2-5.2H5.3l-2 5.2c-.1.2-.2.3-.4.5s-.4.2-.6.2H0L8.6.2h3l8.6 21.5zM6.1 13.8h8L10.7 5c-.2-.5-.4-1.2-.6-2-.1.4-.2.8-.3 1.1-.1.4-.2.7-.3.9l-3.4 8.8zM35.8 21.7h-1.6c-.2 0-.3 0-.4-.1l-.3-.3-1.4-3.6h-6.8l-1.4 3.6c0 .1-.1.2-.3.3-.1.1-.3.1-.4.1h-1.6l6-15h2.1l6.1 15zm-9.9-5.6h5.6L29.2 10c-.2-.4-.3-.9-.5-1.4-.1.3-.2.6-.2.8-.1.2-.1.5-.2.6l-2.4 6.1zM46.6 21.7V.2h6.9c1.3 0 2.5.1 3.4.4 1 .3 1.7.6 2.4 1.1.6.5 1.1 1.1 1.4 1.8.2.7.3 1.5.3 2.4 0 .5-.1 1-.2 1.5-.2.5-.4.9-.8 1.4-.3.4-.8.8-1.3 1.1-.5.3-1.1.6-1.8.8 1.6.3 2.8.9 3.6 1.7.8.8 1.2 1.9 1.2 3.2 0 .9-.2 1.7-.5 2.5s-.8 1.4-1.5 1.9-1.4 1-2.4 1.3-2 .4-3.2.4h-7.5zm2.9-11.8h3.8c.8 0 1.5-.1 2.1-.3.6-.2 1.1-.4 1.5-.8.4-.3.7-.7.9-1.2s.3-1 .3-1.5c0-1.3-.4-2.2-1.1-2.8-.8-.6-1.9-.9-3.5-.9h-3.9v7.5zm0 2v7.5h4.6c.8 0 1.5-.1 2.1-.3.6-.2 1.1-.5 1.5-.8.4-.3.7-.8.8-1.2s.3-1 .3-1.6c0-1.1-.4-2-1.2-2.6s-2-1-3.6-1h-4.5zM66.5 21.7v-15h4.8c.9 0 1.7.1 2.4.3s1.2.4 1.6.8c.4.3.7.7 1 1.2s.3 1 .3 1.6c0 .4-.1.7-.2 1.1-.1.3-.3.7-.5 1-.2.3-.5.6-.9.8l-1.2.6c1.1.2 1.9.6 2.5 1.2.6.6.8 1.3.8 2.3 0 .6-.1 1.2-.4 1.7s-.6 1-1 1.4-1 .7-1.7.9c-.7.2-1.4.3-2.2.3h-5.3zm2-8.3h2.7c.6 0 1.1-.1 1.5-.2s.8-.3 1-.5c.3-.2.5-.5.6-.8.1-.3.2-.7.2-1 0-.9-.3-1.5-.8-1.9-.5-.4-1.4-.6-2.5-.6h-2.8v5zm0 1.5v5.2h3.3c.6 0 1.1-.1 1.5-.2s.8-.3 1-.6c.3-.2.5-.5.6-.9s.2-.7.2-1.1c0-.8-.3-1.4-.8-1.8-.5-.5-1.4-.7-2.5-.7h-3.3zM104.1 17.3c.2 0 .3.1.4.2l1.1 1.2c-.9 1-1.9 1.8-3.2 2.4-1.3.6-2.8.9-4.5.9-1.6 0-3-.3-4.2-.8-1.3-.5-2.3-1.3-3.2-2.2-.9-1-1.6-2.1-2.1-3.5-.5-1.3-.7-2.8-.7-4.5 0-1.6.3-3.1.8-4.5.5-1.3 1.3-2.5 2.2-3.4.9-1 2.1-1.7 3.4-2.3 1.4-.5 2.8-.8 4.4-.8 1.6 0 2.9.2 4.1.7 1.1.5 2.2 1.2 3.1 2l-.9 1.3-.2.2s-.2.1-.4.1c-.1 0-.3 0-.4-.1-.1-.1-.3-.2-.5-.4-.2-.1-.4-.3-.7-.5-.3-.2-.6-.3-1-.5-.4-.1-.8-.3-1.3-.4-.5-.1-1.1-.1-1.7-.1-1.1 0-2.2.2-3.2.6-1 .4-1.8 1-2.5 1.7s-1.2 1.6-1.6 2.7c-.4 1.1-.6 2.2-.6 3.5 0 1.3.2 2.5.6 3.6.4 1 .9 1.9 1.6 2.7.7.7 1.5 1.3 2.4 1.7.9.4 1.9.6 2.9.6.6 0 1.2 0 1.7-.1s1-.2 1.4-.4l1.2-.6c.4-.2.8-.5 1.1-.9.2 0 .4-.1.5-.1zM120.6 18.6c.1 0 .2 0 .3.1l.8.9c-.6.7-1.4 1.3-2.2 1.7-.9.4-1.9.6-3.2.6-1.1 0-2.1-.2-3-.6s-1.6-.9-2.3-1.6c-.6-.7-1.1-1.5-1.4-2.4-.3-.9-.5-2-.5-3.1s.2-2.2.6-3.1c.4-.9.9-1.8 1.5-2.4.7-.7 1.5-1.2 2.4-1.6.9-.4 2-.6 3.1-.6s2.1.2 2.9.5c.8.3 1.5.8 2.1 1.4l-.7.9c0 .1-.1.1-.2.2-.1 0-.2.1-.3.1-.1 0-.2 0-.3-.1s-.2-.1-.4-.2c-.1-.1-.3-.2-.5-.3-.2-.1-.4-.2-.7-.3-.3-.1-.6-.2-.9-.2-.3-.1-.7-.1-1.2-.1-.8 0-1.5.1-2.2.4s-1.2.7-1.7 1.2-.9 1.1-1.1 1.9c-.3.7-.4 1.6-.4 2.5 0 .9.1 1.8.4 2.5.3.7.6 1.4 1.1 1.9.5.5 1 .9 1.7 1.2.6.3 1.3.4 2.1.4.4 0 .9 0 1.2-.1.4-.1.7-.1 1-.2.3-.1.6-.3.9-.4.3-.2.5-.4.8-.6.1-.4.2-.5.3-.5zM152 11c0 1.6-.3 3.1-.8 4.4-.5 1.3-1.2 2.5-2.2 3.4s-2 1.7-3.3 2.2c-1.3.5-2.7.8-4.3.8h-8V.2h8c1.6 0 3 .3 4.3.8 1.3.5 2.4 1.2 3.3 2.2.9.9 1.6 2.1 2.2 3.4.5 1.3.8 2.8.8 4.4zm-3 0c0-1.3-.2-2.5-.5-3.5-.4-1-.9-1.9-1.5-2.6-.7-.7-1.5-1.3-2.4-1.6-.9-.4-2-.6-3.1-.6h-5.1v16.8h5.1c1.1 0 2.2-.2 3.1-.6.9-.4 1.7-.9 2.4-1.6s1.2-1.6 1.5-2.6c.3-1.2.5-2.4.5-3.7zM169.5 14.2c0 1.1-.2 2.2-.5 3.1-.4.9-.9 1.7-1.5 2.4-.7.7-1.4 1.2-2.3 1.5-.9.4-1.9.5-3 .5h-5.6v-15h5.6c1.1 0 2.1.2 3 .5.9.4 1.7.9 2.3 1.5.7.7 1.2 1.5 1.5 2.4.3 1 .5 2 .5 3.1zm-2.1 0c0-.9-.1-1.8-.4-2.5s-.6-1.3-1.1-1.8c-.5-.5-1-.9-1.7-1.2s-1.4-.4-2.2-.4h-3.6V20h3.6c.8 0 1.5-.1 2.2-.4s1.2-.6 1.7-1.1.8-1.1 1.1-1.8.4-1.6.4-2.5zM194.4.2v2.4h-10.3v7.1h8.4V12h-8.4v7.3h10.3v2.4h-13.2V.2h13.2zM208.4 6.7v1.7h-7.2v5h5.8V15h-5.8v5.1h7.2v1.7h-9.3v-15h9.3zM233.4.2v2.4h-10.3v7.5h8.8v2.4h-8.8v9.2h-2.9V.2h13.2zM246.9 6.7v1.7h-7.2v5.3h6.2v1.7h-6.2v6.5h-2v-15h9.2zM268 19.6c.6 0 1.1 0 1.6-.1s.9-.1 1.4-.2c.4-.1.8-.2 1.2-.4.4-.2.8-.3 1.1-.5v-4.7H270c-.2 0-.3-.1-.5-.2-.1-.1-.2-.2-.2-.4v-1.6h6.6v8.2c-.5.4-1.1.7-1.7 1s-1.2.5-1.9.7c-.7.2-1.4.3-2.1.4-.8.1-1.6.1-2.5.1-1.6 0-3-.3-4.3-.8-1.3-.5-2.4-1.3-3.4-2.2-.9-1-1.7-2.1-2.2-3.5-.5-1.3-.8-2.8-.8-4.5 0-1.6.3-3.1.8-4.5s1.2-2.5 2.2-3.5c1-1 2.1-1.7 3.5-2.2 1.4-.5 2.9-.8 4.6-.8.8 0 1.6.1 2.4.2s1.4.3 2 .5 1.2.5 1.7.9c.5.3 1 .7 1.5 1.1L275 4c-.2.3-.4.4-.7.4-.2 0-.3-.1-.5-.2s-.5-.3-.8-.5c-.3-.2-.7-.4-1.1-.6s-1-.3-1.6-.5c-.6-.1-1.3-.2-2.2-.2-1.2 0-2.3.2-3.3.6-1 .4-1.8 1-2.5 1.7s-1.2 1.6-1.6 2.7c-.4 1-.6 2.2-.6 3.5 0 1.4.2 2.6.6 3.6.4 1.1.9 2 1.6 2.7.7.7 1.5 1.3 2.5 1.7 1 .5 2.1.7 3.2.7zM287.7 20.3c.4 0 .8 0 1.1-.1.3 0 .7-.1 1-.2l.9-.3c.3-.1.5-.2.8-.4V16h-2.3c-.1 0-.2 0-.3-.1s-.1-.2-.1-.3v-1.2h4.6v5.8c-.4.3-.8.5-1.2.7-.4.2-.8.4-1.3.5l-1.5.3c-.5.1-1.1.1-1.7.1-1.1 0-2.1-.2-3-.6-.9-.4-1.7-.9-2.4-1.6-.7-.7-1.2-1.5-1.5-2.4-.4-.9-.6-2-.6-3.1s.2-2.2.5-3.1c.4-.9.9-1.8 1.5-2.4.7-.7 1.5-1.2 2.4-1.6.9-.4 2-.6 3.2-.6.6 0 1.1 0 1.7.1.5.1 1 .2 1.4.4l1.2.6c.4.2.7.5 1 .8l-.6.9c-.1.2-.3.3-.5.3-.1 0-.2 0-.4-.1s-.4-.2-.6-.4c-.2-.1-.5-.3-.8-.4-.3-.1-.7-.2-1.1-.3-.4-.1-.9-.1-1.5-.1-.8 0-1.6.1-2.3.4s-1.3.7-1.8 1.2-.9 1.1-1.1 1.9c-.3.7-.4 1.6-.4 2.5 0 1 .1 1.8.4 2.5s.6 1.4 1.1 1.9c.5.5 1.1.9 1.7 1.2s1.7.5 2.5.5zM322.7 21.7h-2.9V12h-11.6v9.8h-2.9V.2h2.9v9.6h11.6V.2h2.9v21.5zM340.7 21.7h-2v-6.8h-8.1v6.8h-2v-15h2v6.7h8.1V6.7h2v15zM5.9 71.7H3V50.2h2.9v21.5zM14.6 71.7h-2v-15h2v15zM38.3 64.3c0 1.2-.1 2.3-.4 3.2s-.7 1.8-1.3 2.4c-.6.7-1.3 1.2-2.1 1.5-.8.3-1.8.5-2.9.5-1 0-2-.1-3-.4 0-.3 0-.6.1-.9 0-.3.1-.6.1-.8 0-.2.1-.3.2-.4.1-.1.3-.2.5-.2s.4 0 .7.1c.3.1.7.1 1.2.1.7 0 1.2-.1 1.8-.3.5-.2.9-.5 1.3-.9s.6-1 .8-1.6.3-1.4.3-2.3V50.2h2.9v14.1zM49.7 66.5c0 .8-.1 1.6-.3 2.3-.2.7-.5 1.2-.9 1.7s-.9.8-1.5 1.1c-.6.2-1.3.4-2 .4s-1.4-.1-2.1-.3c0-.2 0-.4.1-.6 0-.2 0-.4.1-.6 0-.1.1-.2.1-.3.1-.1.2-.1.3-.1.1 0 .3 0 .5.1s.5.1.8.1c.5 0 .9-.1 1.2-.2.4-.1.7-.4.9-.7.2-.3.4-.7.6-1.1.1-.5.2-1 .2-1.6v-9.9h2v9.7zM68.2 59.7h1.1c.4 0 .7 0 .9-.1.2-.1.4-.3.6-.5L78 51c.2-.2.4-.4.6-.5.2-.1.5-.2.8-.2h2.5l-8.2 9.3-.6.6c-.2.2-.4.3-.6.4.3.1.5.2.7.4l.7.7 8.5 10.2h-2.9c-.1 0-.2-.1-.3-.1s-.2-.1-.3-.2c-.1-.1-.2-.2-.2-.3l-7.4-8.5-.3-.3c-.1-.1-.2-.2-.3-.2-.1-.1-.3-.1-.4-.1h-1.9V72h-2.9V50.2h2.9v9.5zM88.2 63.3h.8c.3 0 .5 0 .6-.1.2-.1.3-.2.4-.3l5-5.7.4-.4c.1-.1.3-.1.6-.1h1.7L92 63.2c-.1.2-.3.3-.4.4-.1.1-.3.2-.4.3.2.1.4.2.5.3l.5.5 6 7.1h-2.1c-.1 0-.2 0-.2-.1-.1 0-.1-.1-.2-.1s-.1-.1-.2-.2l-5.2-6c-.1-.1-.1-.2-.2-.2s-.2-.2-.3-.2-.2-.1-.3-.1h-1.3v6.9h-2v-15h2v6.5zM114.8 69.3h9.3v2.4h-12.2V50.2h2.9v19.1zM129.8 70h6.5v1.7h-8.5v-15h2V70zM161.1 64.7c.1.3.2.5.3.8.1-.3.2-.5.3-.8.1-.3.2-.5.4-.8l7.3-13.2c.1-.2.3-.4.4-.4s.3-.1.6-.1h2.1v21.5H170V55.9v-.7-.7L162.7 68c-.2.4-.6.7-1.1.7h-.4c-.4 0-.8-.2-1-.7l-7.5-13.5c0 .3.1.5.1.8v16.5h-2.6V50.2h2.1c.3 0 .5 0 .6.1s.3.2.4.4l7.4 13.2c.2.3.3.6.4.8zM186 66.8c.1.2.1.4.2.6.1-.2.1-.4.2-.6.1-.2.2-.4.3-.5l5.1-9.3c.1-.2.2-.3.3-.3s.2-.1.4-.1h1.5v15h-1.8V60.7v-.5-.5l-5.2 9.4c-.2.3-.4.5-.7.5h-.3c-.3 0-.6-.2-.7-.5l-5.3-9.4v12.1h-1.8v-15h1.5c.2 0 .3 0 .4.1s.2.1.3.3l5.2 9.3c.2 0 .3.1.4.3zM211.3 50.3c.1.1.3.2.4.4l12.4 16.2c0-.3-.1-.5-.1-.8V50.2h2.5v21.5H225c-.2 0-.4 0-.6-.1-.2-.1-.3-.2-.5-.4L211.7 55v16.7h-2.6V50.2h1.5c.4 0 .6.1.7.1zM233.9 56.8c.1 0 .2.1.3.3l8.7 11.3v-.5-11.2h1.8v15h-1c-.2 0-.3 0-.4-.1l-.3-.3-8.8-11.3v11.7h-1.8v-15h1c.2 0 .4 0 .5.1zM279.9 61c0 1.6-.3 3.1-.8 4.4-.5 1.3-1.2 2.5-2.2 3.5-.9 1-2 1.7-3.4 2.3-1.3.5-2.7.8-4.3.8-1.6 0-3-.3-4.3-.8s-2.4-1.3-3.3-2.3c-.9-1-1.7-2.1-2.2-3.5-.5-1.3-.8-2.8-.8-4.4 0-1.6.3-3.1.8-4.4.5-1.3 1.2-2.5 2.2-3.5.9-1 2-1.7 3.3-2.3s2.7-.8 4.3-.8c1.6 0 3 .3 4.3.8 1.3.5 2.4 1.3 3.4 2.3.9 1 1.6 2.1 2.2 3.5.5 1.3.8 2.8.8 4.4zm-3 0c0-1.3-.2-2.5-.5-3.6-.4-1-.9-1.9-1.5-2.7-.7-.7-1.5-1.3-2.4-1.7-.9-.4-2-.6-3.1-.6-1.2 0-2.2.2-3.1.6s-1.7.9-2.4 1.7c-.7.7-1.2 1.6-1.5 2.7-.4 1-.5 2.2-.5 3.6 0 1.3.2 2.5.5 3.5.4 1 .9 1.9 1.5 2.7.7.7 1.5 1.3 2.4 1.7.9.4 2 .6 3.1.6 1.2 0 2.2-.2 3.1-.6.9-.4 1.7-.9 2.4-1.7.7-.7 1.2-1.6 1.5-2.7.3-1 .5-2.2.5-3.5zM298.3 64.2c0 1.1-.2 2.2-.5 3.1s-.9 1.8-1.5 2.4-1.4 1.2-2.3 1.6c-.9.4-1.9.6-3 .6s-2.1-.2-3-.6c-.9-.4-1.7-.9-2.3-1.6-.7-.7-1.2-1.5-1.5-2.4s-.5-2-.5-3.1.2-2.2.5-3.1c.4-.9.9-1.8 1.5-2.4.7-.7 1.4-1.2 2.3-1.6.9-.4 1.9-.6 3-.6s2.1.2 3 .6 1.7.9 2.3 1.6 1.2 1.5 1.5 2.4c.3 1 .5 2 .5 3.1zm-2.1 0c0-.9-.1-1.8-.4-2.5-.3-.7-.6-1.4-1.1-1.9-.5-.5-1-.9-1.7-1.2-.7-.3-1.4-.4-2.2-.4-.8 0-1.5.1-2.2.4-.7.3-1.2.7-1.7 1.2s-.8 1.1-1.1 1.9c-.3.7-.4 1.6-.4 2.5 0 .9.1 1.8.4 2.5.3.7.6 1.4 1.1 1.9.5.5 1 .9 1.7 1.2.7.3 1.4.4 2.2.4.8 0 1.5-.1 2.2-.4.7-.3 1.2-.7 1.7-1.2s.8-1.1 1.1-1.9c.3-.7.4-1.6.4-2.5zM315.9 63.7v8H313V50.2h6.3c1.4 0 2.5.2 3.5.5s1.8.8 2.5 1.3c.7.6 1.2 1.3 1.5 2.1.3.8.5 1.7.5 2.7 0 1-.2 1.9-.5 2.7-.4.8-.9 1.5-1.5 2.1-.7.6-1.5 1.1-2.5 1.4-1 .3-2.1.5-3.4.5h-3.5zm0-2.3h3.4c.8 0 1.6-.1 2.2-.3.6-.2 1.2-.5 1.6-.9.4-.4.8-.9 1-1.4.2-.6.3-1.2.3-1.8 0-1.4-.4-2.4-1.3-3.2-.8-.8-2.1-1.2-3.8-1.2h-3.4v8.8zM333.8 66.1v5.6h-2v-15h4.4c1 0 1.8.1 2.5.3.7.2 1.3.5 1.7.9.5.4.8.9 1 1.5.2.6.3 1.2.3 1.9s-.1 1.3-.4 1.9-.6 1.1-1.1 1.5c-.5.4-1.1.7-1.8 1-.7.2-1.5.4-2.4.4h-2.2zm0-1.6h2.4c.6 0 1.1-.1 1.5-.2.4-.2.8-.4 1.1-.6.3-.3.5-.6.7-1 .2-.4.2-.8.2-1.3 0-1-.3-1.7-.9-2.2-.6-.5-1.5-.8-2.7-.8h-2.4v6.1zM22.5 111c0 1-.1 2-.3 2.9-.2.9-.5 1.8-.9 2.5s-.9 1.5-1.4 2.1c-.6.6-1.2 1.2-1.9 1.7l5.5 6h-2.4c-.4 0-.7-.1-1-.2-.3-.1-.5-.3-.8-.5l-3.8-4.1c-.6.2-1.2.3-1.8.4-.6.1-1.3.1-1.9.1-1.6 0-3-.3-4.3-.8s-2.4-1.3-3.3-2.3c-.9-1-1.7-2.1-2.2-3.5-.5-1.3-.8-2.8-.8-4.4 0-1.6.3-3.1.8-4.4.5-1.3 1.2-2.5 2.2-3.5.9-1 2-1.7 3.3-2.3s2.7-.8 4.3-.8c1.6 0 3 .3 4.3.8 1.3.5 2.4 1.3 3.4 2.3.9 1 1.6 2.1 2.2 3.5.5 1.4.8 2.9.8 4.5zm-3 0c0-1.3-.2-2.5-.5-3.6-.4-1-.9-1.9-1.5-2.7-.7-.7-1.5-1.3-2.4-1.7-.9-.4-2-.6-3.1-.6-1.2 0-2.2.2-3.1.6s-1.7.9-2.4 1.7c-.7.7-1.2 1.6-1.5 2.7-.4 1-.5 2.2-.5 3.6 0 1.3.2 2.5.5 3.5.4 1 .9 1.9 1.5 2.7.7.7 1.5 1.3 2.4 1.7.9.4 2 .6 3.1.6 1.2 0 2.2-.2 3.1-.6.9-.4 1.7-.9 2.4-1.7.7-.7 1.2-1.6 1.5-2.7.3-1 .5-2.2.5-3.5zM40.9 114.2c0 .7-.1 1.4-.2 2-.1.6-.4 1.2-.6 1.8-.3.5-.6 1-1 1.5-.4.4-.8.8-1.3 1.2l3.9 4.2H40c-.3 0-.5 0-.7-.1-.2-.1-.4-.2-.5-.4l-2.6-2.9-1.2.3c-.4.1-.9.1-1.3.1-1.1 0-2.1-.2-3-.6-.9-.4-1.7-.9-2.3-1.6-.7-.7-1.2-1.5-1.5-2.4s-.5-2-.5-3.1.2-2.2.5-3.1c.4-.9.9-1.8 1.5-2.4.7-.7 1.4-1.2 2.3-1.6.9-.4 1.9-.6 3-.6s2.1.2 3 .6 1.7.9 2.3 1.6 1.2 1.5 1.5 2.4c.2 1 .4 2 .4 3.1zm-2.1 0c0-.9-.1-1.8-.4-2.5-.3-.7-.6-1.4-1.1-1.9-.5-.5-1-.9-1.7-1.2-.7-.3-1.4-.4-2.2-.4-.8 0-1.5.1-2.2.4-.7.3-1.2.7-1.7 1.2s-.8 1.1-1.1 1.9c-.3.7-.4 1.6-.4 2.5 0 .9.1 1.8.4 2.5.3.7.6 1.4 1.1 1.9.5.5 1 .9 1.7 1.2.7.3 1.4.4 2.2.4.8 0 1.5-.1 2.2-.4.7-.3 1.2-.7 1.7-1.2s.8-1.1 1.1-1.9c.3-.7.4-1.6.4-2.5zM60.9 112.8v9H58v-21.5h6c1.4 0 2.5.1 3.5.4 1 .3 1.8.7 2.5 1.2.6.5 1.1 1.1 1.4 1.9.3.7.5 1.6.5 2.5 0 .8-.1 1.5-.4 2.1s-.6 1.3-1 1.8c-.5.5-1 1-1.7 1.3-.7.4-1.4.7-2.2.8.4.2.7.5 1 .9l6.3 8.5h-2.6c-.5 0-.9-.2-1.2-.6l-5.6-7.7c-.2-.2-.4-.4-.6-.5-.2-.1-.5-.2-.9-.2h-2.1zm0-2.1h3c.8 0 1.6-.1 2.2-.3s1.2-.5 1.6-.9.8-.8 1-1.3c.2-.5.3-1.1.3-1.7 0-1.3-.4-2.2-1.3-2.9-.8-.7-2.1-1-3.8-1h-3.2v8.1zM79.7 115.5v6.3h-2v-15H82c1 0 1.8.1 2.5.3.7.2 1.3.5 1.7.8.5.4.8.8 1 1.3.2.5.3 1.1.3 1.7 0 .5-.1 1-.3 1.5s-.4.9-.7 1.2c-.3.4-.7.7-1.2.9s-1 .5-1.6.6c.3.1.5.4.7.6l4.4 6H87c-.4 0-.6-.1-.8-.4l-3.9-5.4c-.1-.2-.2-.3-.4-.4s-.4-.1-.6-.1h-1.6zm0-1.5h2.1c.6 0 1.1-.1 1.6-.2s.8-.3 1.1-.6c.3-.3.5-.6.7-.9s.2-.8.2-1.2c0-.9-.3-1.6-.9-2s-1.5-.7-2.6-.7h-2.2v5.6zM116 103.6c-.1.1-.2.3-.3.3-.1.1-.2.1-.4.1s-.4-.1-.6-.3c-.2-.2-.5-.4-.9-.6-.3-.2-.8-.4-1.2-.6-.5-.2-1.1-.3-1.8-.3s-1.2.1-1.7.3c-.5.2-.9.4-1.3.7-.3.3-.6.7-.8 1.1-.2.4-.3.8-.3 1.3 0 .6.1 1.1.4 1.5.3.4.7.7 1.2 1 .5.3 1 .5 1.7.7.6.2 1.2.4 1.9.6.6.2 1.3.5 1.9.7.6.3 1.2.6 1.6 1s.9.9 1.2 1.5c.3.6.4 1.4.4 2.2 0 .9-.2 1.8-.5 2.6s-.8 1.5-1.4 2.2c-.6.6-1.4 1.1-2.3 1.4-.9.3-1.9.5-3.1.5-1.4 0-2.7-.3-3.8-.8-1.1-.5-2.1-1.2-2.9-2l.8-1.4.3-.3c.1-.1.2-.1.4-.1s.5.1.7.3c.3.2.6.5 1 .7.4.3.9.5 1.5.7.6.2 1.3.3 2.1.3.7 0 1.3-.1 1.8-.3.5-.2 1-.5 1.4-.8s.7-.8.9-1.2.3-1 .3-1.6c0-.6-.1-1.2-.4-1.6s-.7-.8-1.2-1c-.5-.3-1-.5-1.6-.7-.6-.2-1.2-.4-1.9-.6s-1.3-.4-1.9-.7c-.6-.3-1.2-.6-1.6-1.1-.5-.4-.9-1-1.2-1.6-.3-.6-.4-1.4-.4-2.4 0-.8.1-1.5.4-2.2.3-.7.7-1.3 1.3-1.9s1.3-1 2.1-1.3 1.8-.5 2.8-.5c1.2 0 2.3.2 3.3.6 1 .4 1.9.9 2.6 1.7l-.5 1.9zM129.1 109c-.1.1-.1.2-.2.2s-.2.1-.3.1c-.1 0-.3-.1-.4-.2-.2-.1-.4-.3-.6-.4-.2-.1-.5-.3-.9-.4-.3-.1-.8-.2-1.2-.2-.5 0-.9.1-1.2.2-.4.1-.6.3-.9.5-.2.2-.4.5-.5.7-.1.3-.2.6-.2.9 0 .4.1.8.3 1 .2.3.5.5.8.7.3.2.7.4 1.2.5.4.1.9.3 1.3.4.5.2.9.3 1.3.5s.8.4 1.2.7c.3.3.6.7.8 1.1s.3 1 .3 1.6c0 .7-.1 1.3-.3 1.9-.2.6-.6 1.1-1 1.5-.4.4-1 .8-1.6 1-.6.2-1.3.4-2.1.4-1 0-1.9-.2-2.7-.5-.8-.4-1.5-.8-2.1-1.4l.6-1 .2-.2c.1-.1.2-.1.3-.1.1 0 .3.1.5.2.2.2.4.3.7.5.3.2.6.4 1 .5s.9.2 1.5.2c.5 0 .9-.1 1.3-.2s.7-.3 1-.6c.3-.2.5-.5.6-.9.1-.3.2-.7.2-1.1 0-.5-.1-.8-.3-1.1-.2-.3-.5-.5-.8-.7-.3-.2-.7-.4-1.1-.5s-.9-.3-1.3-.4c-.5-.1-.9-.3-1.3-.5s-.8-.4-1.1-.7c-.3-.3-.6-.7-.8-1.1-.2-.5-.3-1-.3-1.7 0-.5.1-1 .3-1.5s.5-.9.9-1.3.9-.7 1.5-.9c.6-.2 1.2-.3 2-.3s1.6.1 2.3.4 1.3.7 1.8 1.2l-.7 1zM161.1 100.2v2.4h-6.9v19h-2.9v-19h-7v-2.4h16.8zM174.9 106.7v1.7H170v13.3h-2v-13.3h-4.9v-1.7h11.8zM199.4 119.4c.9 0 1.7-.2 2.4-.5s1.3-.7 1.8-1.3c.5-.5.9-1.2 1.1-1.9.3-.8.4-1.6.4-2.5v-13.1h2.9v13.1c0 1.2-.2 2.4-.6 3.4-.4 1.1-1 2-1.7 2.8-.7.8-1.6 1.4-2.7 1.8-1.1.4-2.2.7-3.6.7-1.3 0-2.5-.2-3.6-.7-1.1-.4-2-1-2.7-1.8-.7-.8-1.3-1.7-1.7-2.8-.4-1.1-.6-2.2-.6-3.4v-13.1h2.9v13c0 .9.1 1.7.4 2.5.3.8.6 1.4 1.1 1.9.5.5 1.1 1 1.8 1.3.7.5 1.5.6 2.4.6zM219.3 120.1c.6 0 1.2-.1 1.7-.3.5-.2.9-.5 1.2-.9.3-.4.6-.8.8-1.4.2-.5.3-1.1.3-1.7v-9.1h2v9.1c0 .9-.1 1.7-.4 2.4-.3.7-.7 1.4-1.2 1.9s-1.1 1-1.9 1.3c-.7.3-1.6.5-2.5.5-.9 0-1.8-.2-2.5-.5s-1.4-.7-1.9-1.3c-.5-.5-.9-1.2-1.2-1.9-.3-.7-.4-1.5-.4-2.4v-9.1h2v9.1c0 .6.1 1.2.3 1.7.2.5.4 1 .8 1.4.3.4.8.7 1.2.9.5.2 1.1.3 1.7.3zM240.3 100.2h2.3c.3 0 .5.1.6.2.2.1.3.3.4.5l6.1 15.2c.1.3.3.7.4 1.1l.3 1.2.3-1.2c.1-.4.2-.8.4-1.1l6-15.2c.1-.2.2-.3.4-.5s.4-.2.6-.2h2.3l-8.8 21.5H249l-8.7-21.5zM261.9 106.7h1.6c.2 0 .3 0 .4.1l.3.3 4.3 10.6c.1.2.2.5.3.8s.2.6.2.9c.1-.3.1-.6.2-.9.1-.3.2-.5.3-.8l4.2-10.6c0-.1.1-.2.3-.3s.3-.2.4-.2h1.6l-6.1 15H268l-6.1-14.9zM289.5 100.2h2.4c.3 0 .5.1.6.2.2.1.3.3.3.5l4.4 14.9c.1.3.2.6.2.9.1.3.1.6.2 1 .1-.3.1-.7.2-1 .1-.3.1-.6.2-.9l5.1-14.9c.1-.2.2-.3.4-.5s.4-.2.6-.2h.8c.3 0 .5.1.6.2s.3.3.4.5l5 14.9c.2.5.3 1.1.5 1.8.1-.3.1-.6.2-.9 0-.3.1-.6.2-.8l4.5-14.9c0-.2.2-.3.3-.5.2-.1.4-.2.6-.2h2.3l-6.7 21.5h-2.6l-5.4-16.4c-.1-.3-.2-.7-.3-1.1-.1.2-.1.4-.1.6 0 .2-.1.4-.1.5l-5.5 16.4h-2.6l-6.7-21.6zM321.3 106.7h1.7c.2 0 .3 0 .5.1.1.1.2.2.2.3l3.1 10.5c.1.2.1.4.2.6 0 .2.1.4.1.7 0-.2.1-.5.1-.7s.1-.4.2-.6l3.5-10.5c0-.1.1-.2.2-.3.1-.1.3-.2.4-.2h.6c.2 0 .3 0 .4.1.1.1.2.2.2.3l3.5 10.5.3 1.2c0-.2.1-.5.1-.7 0-.2.1-.4.1-.6l3.1-10.5c0-.1.1-.2.2-.3.1-.1.3-.1.4-.1h1.6l-4.7 15h-1.8l-3.8-11.5c-.1-.2-.1-.5-.2-.8 0 .1-.1.3-.1.4 0 .1-.1.2-.1.4l-3.8 11.5H326l-4.7-14.8zM10.8 163.2v8.5H7.9v-8.5l-7.9-13h2.5c.3 0 .5.1.6.2.1.1.3.3.4.5l4.9 8.4c.2.3.4.7.5 1 .1.3.3.6.4.9.1-.3.2-.6.4-.9.1-.3.3-.6.5-1l4.9-8.4c.1-.2.2-.3.4-.5.2-.1.4-.2.6-.2h2.6l-7.9 13zM27.7 165.8v6h-2v-6l-5.5-9.1H22c.2 0 .3 0 .4.1l.3.3 3.4 5.8c.1.2.3.5.4.7l.3.6c.1-.2.2-.4.3-.7s.2-.4.3-.7l3.4-5.8c.1-.1.1-.2.3-.3.1-.1.3-.2.4-.2h1.8l-5.6 9.3zM58.8 150.2v1.1c0 .3-.1.7-.3 1l-12.2 17.1h12.3v2.4H42.5v-1.1c0-.3.1-.6.3-.9L55 152.6H43.1v-2.4h15.7zM73.5 156.7v.8c0 .2-.1.5-.2.7l-8.5 12h8.6v1.7H62.1v-.8c0-.2.1-.4.2-.6l8.5-12h-8.3v-1.7h11zM83.8 161.6h7.4v2.3h-7.4v-2.3zM117.6 161c0 1.9-.2 3.5-.6 4.9-.4 1.4-1 2.5-1.7 3.4-.7.9-1.5 1.6-2.5 2-1 .4-2 .7-3.1.7s-2.1-.2-3.1-.7c-.9-.4-1.8-1.1-2.5-2-.7-.9-1.2-2-1.6-3.4s-.6-3-.6-4.9c0-1.9.2-3.5.6-4.9s.9-2.5 1.6-3.4c.7-.9 1.5-1.6 2.5-2 .9-.4 2-.7 3.1-.7s2.1.2 3.1.7c1 .4 1.8 1.1 2.5 2 .7.9 1.3 2 1.7 3.4.4 1.4.6 3 .6 4.9zm-2.8 0c0-1.6-.1-3-.4-4.1-.3-1.1-.6-2-1.1-2.7-.5-.7-1-1.2-1.6-1.5s-1.2-.4-1.9-.4-1.3.1-1.9.4-1.1.8-1.6 1.5-.8 1.6-1.1 2.7c-.3 1.1-.4 2.5-.4 4.1 0 1.6.1 3 .4 4.1.3 1.1.6 2 1.1 2.7.5.7 1 1.2 1.6 1.5s1.2.4 1.9.4 1.3-.1 1.9-.4 1.1-.8 1.6-1.5.8-1.6 1.1-2.7c.3-1.1.4-2.5.4-4.1zM124.1 169.7h4.6V155v-1.3l-3.8 3.3c-.1.1-.2.1-.3.2-.1 0-.2.1-.3.1-.1 0-.3 0-.4-.1-.1-.1-.2-.1-.3-.2l-.8-1.2 6.4-5.5h2.2v19.5h4.2v2h-11.5v-2.1zM147.5 150c.9 0 1.8.1 2.5.4.8.3 1.5.7 2 1.2s1 1.1 1.4 1.9c.3.7.5 1.6.5 2.5 0 .8-.1 1.5-.4 2.2-.2.7-.6 1.3-1 2s-.9 1.2-1.4 1.8-1.1 1.2-1.7 1.8l-5.7 5.8 1.2-.3c.4-.1.8-.1 1.2-.1h7.2c.3 0 .5.1.7.3.2.2.3.4.3.7v1.6H140v-.9c0-.2 0-.4.1-.6.1-.2.2-.4.4-.6l6.9-6.9c.6-.6 1.1-1.1 1.6-1.7s.9-1.1 1.2-1.6.6-1.1.8-1.6c.2-.6.3-1.1.3-1.8s-.1-1.2-.3-1.7c-.2-.5-.5-.9-.8-1.2-.4-.3-.8-.5-1.2-.7-.5-.2-1-.2-1.5-.2s-1 .1-1.5.2c-.5.2-.9.4-1.2.7s-.7.6-.9 1c-.2.4-.4.8-.5 1.3-.1.3-.2.5-.4.6-.2.1-.4.2-.6.2h-.4l-1.4-.2c.1-1 .4-1.8.8-2.6s.9-1.4 1.5-1.9 1.3-.9 2.1-1.2c.7-.3 1.6-.4 2.5-.4zM166.5 150c.9 0 1.8.1 2.5.4s1.4.6 2 1.1c.6.5 1 1.1 1.3 1.7.3.7.5 1.4.5 2.3 0 .7-.1 1.3-.3 1.8-.2.5-.4 1-.8 1.4-.3.4-.7.7-1.2 1s-1 .5-1.5.7c1.4.4 2.5 1 3.2 1.9.7.9 1.1 2 1.1 3.3 0 1-.2 1.9-.6 2.7s-.9 1.5-1.5 2c-.7.6-1.4 1-2.3 1.3-.9.3-1.8.4-2.8.4-1.1 0-2.1-.1-2.9-.4-.8-.3-1.5-.7-2.1-1.2s-1-1.1-1.4-1.8c-.4-.7-.7-1.4-.9-2.2l1.1-.5c.2-.1.4-.1.6-.1.2 0 .4 0 .5.1.2.1.3.2.4.4 0 0 0 .1.1.1 0 0 0 .1.1.1.1.3.3.6.5 1s.5.7.8 1 .8.6 1.3.8 1.1.3 1.9.3 1.4-.1 2-.4 1-.6 1.4-1c.4-.4.7-.8.8-1.3.2-.5.3-1 .3-1.4 0-.6-.1-1.1-.2-1.6-.2-.5-.4-.9-.8-1.2-.4-.4-1-.6-1.7-.8s-1.6-.3-2.8-.3v-2c.9 0 1.7-.1 2.3-.3.6-.2 1.2-.5 1.6-.8.4-.3.7-.7.9-1.2.2-.5.3-1 .3-1.5 0-.6-.1-1.2-.3-1.6-.2-.5-.5-.8-.8-1.1-.3-.3-.7-.5-1.2-.7-.5-.2-1-.2-1.5-.2s-1 .1-1.5.2-.9.4-1.2.7c-.4.3-.7.6-.9 1-.2.4-.4.8-.5 1.3-.1.3-.2.5-.4.6-.2.1-.4.2-.6.2h-.4l-1.4-.2c.1-1 .4-1.8.8-2.6s.9-1.4 1.5-1.9 1.3-.9 2.1-1.2c.8-.2 1.7-.3 2.6-.3zM189.4 164h3.3v1.5c0 .2 0 .3-.1.4-.1.1-.2.2-.4.2h-2.7v5.7h-2.4v-5.7h-9.5c-.2 0-.4-.1-.5-.2-.1-.1-.2-.3-.3-.4l-.3-1.4 10.5-13.9h2.5V164zm-2.3-8.9v-.8c0-.3 0-.6.1-.9l-7.8 10.6h7.7v-8.9zM209.2 151.4c0 .4-.1.7-.4.9-.2.2-.6.4-1.2.4h-6.8l-1 5.6c1.1-.2 2.2-.4 3.1-.4 1.1 0 2.1.2 3 .5s1.6.8 2.2 1.4c.6.6 1 1.3 1.3 2.1.3.8.4 1.7.4 2.6 0 1.1-.2 2.2-.6 3.1-.4.9-.9 1.7-1.6 2.4-.7.7-1.5 1.2-2.5 1.5s-2 .5-3 .5c-.6 0-1.2-.1-1.8-.2s-1.1-.3-1.6-.5-1-.5-1.4-.7c-.4-.3-.8-.6-1.1-.9l.8-1.1c.2-.3.4-.4.7-.4.2 0 .4.1.7.2s.6.3.9.5c.4.2.8.4 1.3.5.5.2 1.1.2 1.7.2.8 0 1.4-.1 2-.4s1.1-.6 1.5-1c.4-.4.8-1 1-1.6.2-.6.3-1.3.3-2.1 0-.7-.1-1.3-.3-1.8-.2-.5-.5-1-.9-1.4-.4-.4-.9-.7-1.5-.9-.6-.2-1.3-.3-2.1-.3-.5 0-1.1 0-1.7.1-.6.1-1.2.2-1.8.4l-1.7-.5 1.7-10H209v1.3zM223 158.6c.9 0 1.7.1 2.4.4s1.4.7 2 1.2c.6.5 1 1.2 1.4 2 .3.8.5 1.7.5 2.7 0 1-.2 1.9-.5 2.8-.4.8-.9 1.6-1.5 2.2s-1.4 1.1-2.3 1.5c-.9.4-1.9.5-3 .5s-2.1-.2-2.9-.5-1.6-.8-2.2-1.5c-.6-.6-1.1-1.4-1.4-2.3-.3-.9-.5-1.9-.5-3 0-.9.2-1.9.6-3 .4-1.1 1.1-2.2 2-3.4l5.4-7.3c.1-.2.3-.3.6-.5s.5-.2.9-.2h2.4l-7.5 9.4c.5-.4 1.1-.6 1.7-.8.5-.1 1.2-.2 1.9-.2zm-5.6 6.5c0 .7.1 1.3.3 1.9.2.6.5 1.1.9 1.5.4.4.9.7 1.4 1 .6.2 1.2.3 1.9.3s1.4-.1 1.9-.3c.6-.2 1.1-.5 1.5-1s.7-.9 1-1.5c.2-.6.3-1.2.3-1.8 0-.7-.1-1.3-.3-1.9-.2-.6-.5-1-.9-1.4-.4-.4-.9-.7-1.4-.9s-1.2-.3-1.8-.3c-.7 0-1.4.1-1.9.4-.6.2-1.1.6-1.5 1-.4.4-.7.9-.9 1.4-.3.4-.5 1-.5 1.6zM248.2 150.2v1.2c0 .3 0 .6-.1.8s-.2.4-.2.6l-8.9 18c-.1.3-.3.5-.5.7-.2.2-.5.3-.9.3h-1.9l9-17.7c.1-.2.3-.5.4-.7.1-.2.3-.4.5-.6h-11.2c-.2 0-.3-.1-.5-.2-.1-.1-.2-.3-.2-.5v-1.8h14.5zM259.3 172c-1.1 0-2.1-.1-2.9-.4-.9-.3-1.7-.7-2.3-1.2-.6-.5-1.1-1.2-1.5-1.9-.4-.8-.5-1.6-.5-2.5 0-1.4.4-2.5 1.1-3.4.7-.9 1.8-1.5 3.1-1.9-1.1-.4-2-1-2.6-1.9-.6-.8-.9-1.8-.9-3 0-.8.2-1.5.5-2.2.3-.7.8-1.3 1.3-1.8.6-.5 1.3-.9 2-1.2s1.7-.4 2.7-.4c1 0 1.9.1 2.7.4.8.3 1.5.7 2.1 1.2.6.5 1 1.1 1.3 1.8.3.7.5 1.4.5 2.2 0 1.2-.3 2.2-.9 3-.6.8-1.4 1.5-2.6 1.9 1.3.4 2.4 1 3.1 1.9.7.9 1.1 2 1.1 3.4 0 .9-.2 1.8-.5 2.5-.4.8-.9 1.4-1.5 1.9s-1.4.9-2.3 1.2-1.9.4-3 .4zm0-2.2c.7 0 1.3-.1 1.9-.3.6-.2 1-.5 1.4-.8.4-.4.7-.8.9-1.3s.3-1 .3-1.6c0-.7-.1-1.4-.4-1.9-.2-.5-.6-1-1-1.3-.4-.3-.9-.6-1.4-.7-.5-.2-1.1-.2-1.7-.2-.6 0-1.2.1-1.7.2-.5.2-1 .4-1.4.7-.4.3-.7.8-1 1.3-.2.5-.4 1.2-.4 1.9 0 .6.1 1.1.3 1.6s.5.9.9 1.3.9.6 1.4.8c.6.2 1.2.3 1.9.3zm0-10.3c.7 0 1.3-.1 1.8-.3s.9-.5 1.2-.9c.3-.4.5-.8.7-1.2s.2-.9.2-1.4c0-.5-.1-1-.2-1.4-.2-.4-.4-.8-.7-1.2-.3-.3-.7-.6-1.2-.8-.5-.2-1-.3-1.7-.3-.6 0-1.2.1-1.7.3-.5.2-.9.5-1.2.8-.3.3-.6.7-.7 1.2-.2.4-.2.9-.2 1.4 0 .5.1 1 .2 1.4s.4.9.7 1.2c.3.4.7.6 1.2.9s.9.3 1.6.3zM277.5 162.9c-.8 0-1.6-.1-2.3-.4-.7-.3-1.4-.7-1.9-1.2-.6-.5-1-1.2-1.3-1.9-.3-.8-.5-1.6-.5-2.6 0-.9.2-1.8.5-2.6s.8-1.5 1.5-2.1c.6-.6 1.4-1.1 2.2-1.4.9-.3 1.8-.5 2.9-.5 1 0 2 .2 2.8.5.8.3 1.6.8 2.2 1.4s1.1 1.3 1.4 2.2c.3.9.5 1.8.5 2.8 0 .6-.1 1.2-.2 1.8-.1.6-.3 1.1-.5 1.6s-.5 1.1-.8 1.6c-.3.5-.7 1.1-1 1.6l-5.2 7.6c-.1.2-.3.3-.6.5-.2.1-.5.2-.8.2h-2.5l6.5-8.6c.2-.3.4-.6.6-.8.2-.3.4-.5.5-.8-.6.4-1.2.8-1.9 1-.6 0-1.3.1-2.1.1zm5.4-6.3c0-.7-.1-1.3-.3-1.8-.2-.5-.5-1-.9-1.4-.4-.4-.8-.7-1.4-.9-.5-.2-1.1-.3-1.7-.3-.7 0-1.3.1-1.8.3-.5.2-1 .5-1.4.9-.4.4-.7.8-.9 1.4s-.3 1.1-.3 1.7c0 .7.1 1.3.3 1.8.2.5.5 1 .8 1.4.4.4.8.7 1.3.8.5.2 1.1.3 1.8.3s1.4-.1 1.9-.4c.6-.2 1-.5 1.4-.9.4-.4.7-.8.9-1.3.2-.5.3-1 .3-1.6z"/>
</svg>