<svg class="mm" xmlns="http://www.w3.org/2000/svg" viewBox="0 0 582 207"><style>.st0{fill:#259097}</style><path class="st0" d="M249.6 0H177l-8.3 45h80.9zM72.8 0H.2v45h81zM52.7 77.5L76.2 207h35l-30-162H.2v162h52.5zM168.7 45l-30 162h35l23.4-129.5V207h52.5V45zM357.5 147.2c14.3-11.8 28.3-17.7 42-17.7 2.8 0 5.1.7 7 2 1.9 1.3 3.3 2.8 4.2 4.4.9 1.6 1.6 4 2.1 7.3s.8 5.9.8 8V207h56v-58.7c4.7-3.8 8.6-6.7 11.7-8.9 3.1-2.1 7.5-4.3 13.2-6.6 5.7-2.3 11.4-3.4 17.1-3.4 3.4 0 6.1.8 8.1 2.4 2 1.6 3.5 4.1 4.3 7.5.8 3.4 1.3 6.5 1.4 9.1.1 2.6.2 6.3.2 11.2V207h56v-43.2-3.1-13.8c0-3.1-.1-7.3-.4-12.7-.3-5.4-.7-9.5-1.1-12.3-.4-2.8-1.1-6.3-2.1-10.5s-2.1-7.5-3.5-9.7c-1.4-2.3-3.1-4.7-5.2-7.4s-4.6-4.7-7.3-6c-2.8-1.3-6-2.4-9.7-3.4-3.7-.9-7.9-1.4-12.6-1.4-16.2 0-29.6 3.1-40.3 9.4-10.6 6.3-20.6 15.5-29.8 27.6-2.2-12.8-6.4-22.2-12.7-28.1-6.3-5.9-16.1-8.9-29.5-8.9-26.5 0-49.8 11.9-69.8 35.7V87.5h-56V207h56v-59.8z"/></svg>