<svg xmlns="http://www.w3.org/2000/svg" viewBox="0 0 561.6 577.5"><style>.st0{fill:none}.st1{fill:#c3c3c2}.st2{opacity:.3}.st3{fill:#1d1d1b}.st4{fill:#b89a65}.st5{fill:#080c26}.st6{fill:#d8d8d8}</style><path class="st0" d="M192.6 174.5l13.8-19.3h-15v21.9l1.6-2.2zM377.4 169.5v-14.3h-20l13.9 19.3-.6.6 6.7 9.1zM356 153.2V152h-.9z"/><path class="st1" d="M191.4 177.1v50.1l23.2-31.9-21.6-20.4zM377.4 184.2l-6.7-9.1-21.4 20.4-8.1-10.9 34.7 47.8c.4.5.9 1 1.5 1.3v-49.5zM227.2 126c.5-.7 1.7-2 4.1-3.1l-15-.1v18.5l10.9-15.3z"/><g class="st2"><path class="st3" d="M421.2 557.3c-1.9 4.6-6.2 7.8-11.3 7.8H390.2c-5.2 0-9.6-3.5-11.2-8.4-14.1-.2-28.7-.3-43.8-.4-1.6 5.1-6.1 8.8-11.4 8.8H304.1c-5.5 0-10.2-3.8-11.7-9h-21.5c-1.5 5.2-6.2 9-11.7 9H239.5c-5.3 0-9.8-3.7-11.4-8.8-13.3.1-26.3.2-38.8.4-1.7 4.9-6.1 8.5-11.3 8.5H158.3c-5.1 0-9.5-3.2-11.3-7.8-84.2 1.6-141 4.6-141 8 0 5.1 123.7 9.2 276.2 9.2s276.2-4.1 276.2-9.2c0-3.5-55.2-6.5-137.2-8.1z"/><path class="st3" d="M421.4 557.6c-.1.2-.1.4-.2.6-.1.2-.2.5-.3.7-.2.5-.5.9-.8 1.4-.6.9-1.3 1.7-2.1 2.4-1.6 1.4-3.6 2.5-5.7 2.9-1 .2-2.2.3-3.2.3l-3.1.1-6.2.1-6.2.1-3.1.1c-1 0-2.2 0-3.3-.3-4.5-1-8.1-4.5-9.6-8.8l1.3 1c-7.3.1-14.6.1-21.9.2l-21.9.1 2.1-1.5c-.7 2.4-2 4.6-3.7 6.4-1.7 1.8-4 3.1-6.5 3.8-.6.2-1.2.3-1.9.3-.6.1-1.3.1-1.8.1h-3.2l-6.4.1-6.4.1h-3.2c-1.3 0-2.6-.1-3.8-.5-5-1.3-9.1-5.4-10.5-10.3l2.5 1.9-21.5.2 2.7-2c-1.4 5-5.4 9.2-10.6 10.6-1.3.3-2.6.5-3.9.5h-19.2c-.5 0-1.2 0-1.9-.1s-1.3-.2-2-.3c-2.6-.6-5-2-6.9-3.9-1.9-1.8-3.2-4.2-4-6.7l2.9 2.2c-12.9.2-25.9.2-38.8.4l2.8-2.1c-.8 2.4-2.2 4.6-4 6.4-1.8 1.8-4.2 3.1-6.7 3.7-.6.1-1.3.3-1.9.3-.3 0-.6 0-1 .1h-21.2c-.6-.1-1.3-.1-1.9-.3-2.5-.5-4.8-1.7-6.7-3.3-1.9-1.6-3.3-3.7-4.2-6l2.5 1.6c-17.4.1-34.7.3-52.1.6-17.3.3-34.7.6-52 1.5-8.7.4-17.3.9-25.9 1.9-2.1.2-4.3.5-6.4.9-1 .2-2.1.4-3 .7-.2.1-.4.2-.6.2-.1 0-.2.1-.2.1s0-.1.1-.2v-.4c0-.1-.1-.2-.1-.2h.1c.1.1.3.2.6.2 1.9.6 4.1.9 6.2 1.3 2.1.3 4.3.5 6.4.7 17.2 1.6 34.6 2.3 51.9 2.9 34.7 1 69.4 1.3 104.1 1.3 34.7.1 69.4.1 104.1-.1 17.4-.1 34.7-.2 52.1-.4l52.1-.6 52-.8c17.3-.3 34.7-.8 52-1.2 8.7-.3 17.3-.6 26-.9 8.6-.4 17.3-.8 25.9-1.5 4.3-.3 8.6-.7 12.7-1.4 1-.2 2-.4 2.9-.6.2-.1.4-.1.5-.2.1 0 .3-.1.1 0 0 0-.2.1-.3.3-.1.1-.3.4-.4.8-.1.5-.1.9 0 1.3.2.5.2.5.4.7l.2.2.1.1h-.1c-.2-.1-.7-.3-1.1-.4-.5-.1-.9-.2-1.4-.3-1-.2-2-.4-3.1-.5-8.4-1.3-17.1-2-25.7-2.6-17.3-1.3-34.6-2.2-51.9-3l-26-1.2-13-.6-6.5-.3-3.2-.1-2.9-.8zm-.4-.6l3.4-.1h22.8l26.1.2c17.4.3 34.7.7 52.1 1.5 8.7.4 17.4.9 26.2 1.9 1.1.1 2.2.3 3.3.5.6.1 1.1.2 1.7.4.6.1 1.2.3 2 .6l.3.1.4.2c.1.1.2.1.4.3.2.2.3.2.5.5.3.3.4.4.6 1 .2.6.2 1.1.1 1.7-.1.5-.4.9-.6 1.2l-.5.5c-.6.5-1 .6-1.4.8-.4.2-.7.3-1 .4-1.2.4-2.3.6-3.5.8-4.4.8-8.8 1.2-13.1 1.7-17.4 1.7-34.8 2.5-52.1 3.3-69.5 3-138.9 3.5-208.4 3.1-34.7-.1-69.5-.7-104.2-1.5-17.4-.5-34.7-1-52.1-1.6-17.4-.6-34.7-1.3-52.1-2.1-8.7-.4-17.4-.8-26-1.4-8.7-.5-17.3-1.1-26-1.9-2.2-.2-4.3-.5-6.5-.8-2.2-.3-4.3-.6-6.6-1.3-.3-.1-.6-.2-.9-.4-.1 0-.2-.1-.3-.2-.1-.1-.2-.1-.3-.3-.1-.1-.2-.3-.3-.5-.1-.3-.1-.6 0-.8.1-.3.2-.4.3-.6.1-.2.2-.2.3-.3.2-.2.4-.2.5-.3.3-.2.6-.3.9-.4 1.1-.4 2.2-.6 3.3-.8 2.2-.4 4.3-.7 6.5-.9 4.3-.5 8.7-.9 13-1.2 4.3-.4 8.7-.7 13-1 34.7-2.2 69.4-3.7 104.1-4.8l1.7-.1.7 1.7c1.3 3 4.1 5.4 7.2 5.9.4.1.8.1 1.2.1H179c.4 0 .7-.1 1.1-.2 2.9-.7 5.4-3.2 6.4-6.2l.7-2h2.2c12.9-.1 25.9-.3 38.8-.4h2.3l.6 2.2c.9 3.1 3.5 5.8 6.5 6.5.4.1.8.2 1.2.2.4 0 .7.1 1.3 0h19.2c.8 0 1.6-.1 2.4-.3 3.1-.8 5.8-3.4 6.7-6.6l.6-2h2.1l21.5.2h2l.5 1.9c.9 3.3 3.6 6 6.8 6.9.8.2 1.6.3 2.5.3h3.2l6.4.1 6.4.1h4.6c.4 0 .8-.1 1.3-.2 3.3-.7 6.1-3.5 7.2-6.9l.5-1.6h1.6l21.9.5 21.9.6h1.1l.3.9c1.1 3.5 3.9 6.5 7.5 7.4.9.3 1.8.3 2.8.4l3.1.1 6.2.1 6.2.1 3.1.1c1.1 0 2 0 2.9-.1 1.9-.3 3.7-1.1 5.3-2.3.8-.6 1.5-1.3 2.1-2.1.3-.4.6-.8.8-1.2.1-.2.2-.4.4-.7-.5-.4-.4-.6-.2-.9z"/></g><path class="st1" d="M491.3 149.4l33.7-9.5-33.7 9.5zM521.9 110.2h.1l8.4 28.2 28.5-8V99.5z"/><circle class="st1" cx="432.6" cy="62.3" r="41.2"/><path class="st1" d="M336.3 126l18.7 26h.9v-29.3l-23.7.2c2.4 1.1 3.7 2.4 4.1 3.1z"/><path class="st4" d="M390.2 565.1H409.9c5.1 0 9.4-3.2 11.3-7.8.6-1.5 1-3.2 1-5v-16.8h-44v16.8c0 1.5.3 3 .7 4.3 1.7 4.9 6.1 8.5 11.3 8.5zM469.4 505.9l-.7-.1-3.5 16.4c-1.5 6.9 2.7 13.6 9.4 15l.8.2 18.2 3.8.3.1c6.5 1.4 12.9-3.1 14.3-10l3.5-16.4-32.6-6.9-9.1-2-.6-.1z"/><path class="st1" d="M30.1 197.4L0 167.7v42l26.2 25.8c2.4 2.4 7.1 1.8 11.7-1 1.4-.3 2.6-1 3.4-2.1l1.1-1.5.2-.2c2-2 3.5-4.2 4.6-6.4l21.2-29.2-21.6-20.3-16.7 22.6z"/><circle class="st1" cx="135.5" cy="62.3" r="41.2"/><circle class="st1" cx="281.9" cy="62.3" r="41.2"/><path class="st4" d="M239.4 565.1H259.1c5.5 0 10.2-3.8 11.7-9 .4-1.2.5-2.5.5-3.8v-16.8h-43.9v16.8c0 1.4.2 2.7.6 3.9 1.6 5.2 6.1 8.9 11.4 8.9zM304.1 565.1H323.8c5.3 0 9.8-3.7 11.4-8.8.4-1.2.6-2.6.6-3.9v-16.8h-43.9v16.8c0 1.3.2 2.6.5 3.8 1.5 5.1 6.2 8.9 11.7 8.9z"/><path class="st5" d="M229.4 311.8v6.4c0 .4.1.7.1 1.1 0 .3-.1.6-.1.9v215.1h42v-206h21v206h43V320.2c0-.3-.1-.6-.1-.9 0-.4.1-.7.1-1.1v-25.9h-106v19.5zM486.1 291.9l-.5.3H377.4v25.9c0 .4.1.7.1 1.1 0 .3-.1.6-.1.9v215.1h45v-206h24.8l2.6 4.7-.1.1 24.3 43.6 16.1 28.9-21 99.3.4.1.7.1 9.1 1.9 32.2 6.8 24.4-115.1.1-.4-.4-.1-25.2-45.2c-6.9-12.4-18.9-46.6-22.8-58.2v-3.5h-1.2l-.3-.3z"/><path class="st4" d="M158.3 565.1H178c5.2 0 9.6-3.5 11.3-8.5.4-1.3.7-2.8.7-4.3v-16.8h-44v16.8c0 1.7.3 3.4 1 4.9 1.8 4.6 6.2 7.9 11.3 7.9z"/><path class="st5" d="M83.4 292.7l-1.4-.8s-15.8 47-24.1 62l-13.7 24.7L0 345.8v53.8L47.8 435c.7.7 1.5 1.4 2.4 2 6.6 4.9 15.3-7.3 22-19.8l22.1-39.7 24.3-43.6-.1-.1 2.6-4.7H147.5v206h44V320.2c0-.3-.1-.6-.1-.9 0-.4.1-.7.1-1.1v-25.9h-108v.4z"/><path class="st6" d="M521.9 110.2c-13.1 3.8-43.7 9.6-51.1 11h-81c-.6 0-1.1.2-1.7.4-14.1.2-32.2.8-32.2.8v30.8l-.9-1.2-18.7-26c-.5-.7-1.7-2-4-3.1-1.8-.8-4.3-1.5-7.5-1.6H238.8c-3.2.1-5.7.8-7.5 1.6-2.4 1.1-3.6 2.5-4.1 3.1l-10.9 15.3v-18.9H184c-1-.3-2.5-.5-3.2-.6-.8-.1-1.6-.6-2.5-.6H93.4c-8.1 0-11.5 3.6-12.4 4.8l-34.6 48.5.4.4 21.6 20.3.4.3 14.7-18.8v115.5h108v-137h15l-13.8 19.3.4.4 21.6 20.3.3.3 14.5-18.8v115.5h106V176.7l5.8 7.9 8.1 10.9 21.4-20.4.6-.6-13.9-19.3h20.1v137h108.2l.5-.3s0 .1.1.3h1l-.1-126.7c0-11.8 4.1-16.2 4.1-16.2l33.7-9.5 5.5-1.5-8.7-28.1z"/></svg>