<svg xmlns="http://www.w3.org/2000/svg" viewBox="0 0 262.3 202.1"><path d="M24.9 69.7c0-.2-.2 0-.2 0-.2.1-.3.2-.4.4-.1.2.6-.1.5.2-.4.6-1.7.9-1.5 1.8-.4-.1-.5.1-.7.1 0 .5-.2.6-.3 1-.5.1.1-.4-.2-.4-.5.3-.5 1.1-1.3 1-.2.2.2.4-.2.5v-.1c-.1 0-.1.1 0 .1-.3.6-.6.6-1.2.7 0 .8-1 .8-1.3 1-.3 0-.3-.2-.3-.5-.1.3-.4.3-.6.4.1.5.5-.1.7.2-.1.3-.6.6-.8.4 0 .2-.1.4.2.4-1.3.6-2 1.2-3.6 1.6-.3.2-.7.8-1.2.5-2.1 1.4-5.4 1.9-8.1 2-3.6-.7-4.7-4.7-3.8-8.7 1.5-5.3 6.5-7.4 10.8-10.1 2-.8 4.2-1.8 6.3-2-.1.5 0 .6.6.5-.4.4-.9.7-1.1 1.3-1.8.3-3.3 1.2-4.4 2.2.2.5.5-.3 1 .1.4 0 .6-.6.2-.7.4-.2.6-.9 1.1-.7-.1.5-.6.5-.6 1 .1.2.2-.1.5 0-.4.3-.7.7-1.2.9.2.4.5-.2.8-.1-.1.7-.8.6-1.3.8-.7 1.2-2.6 1.4-3.3 2.7-.7 0-.9.5-1.3.6.1.4-.4.3-.4.7-2.4 1.4-4.2 3.5-5.7 6 .2.1.1.4.1.6 1.8 1.9 6.4.4 8.4-.1-.2.4.4-.2 0 0 0-.2.2-.2.2-.4.4.1 0 .3.2.5.8-.6 2.2-1.3 3.2-1.5.8-.6 1.8-1.2 2.7-1.5 2.5-1.8 4.8-4 7-6.1.7-1.2 1.1-2.2 2-2.9 1-1.9 1.5-3.4 1.5-6-.4-3.4-2.6-4.9-3.9-7.1-.1-.2-.3.1-.4-.1-1.9-2.2-4.3-3.7-6.7-5.4-.2-.1-.3-.5-.6-.6-.1-.2-.6-.1-.9-.4-.1 0-.1-.2-.2-.3-.6-.5-1.2-.7-2-1-2-1.6-4.2-3-6.4-4.2-1.5-1.4-3.6-2.3-4.5-4.3-.9-.6-1.4-1.6-1.7-2.5-1.6-5.3 1.8-9.6 4.7-12.1 0-.2.1-.4.2-.6.7-.1.7-.8 1.4-.8.3-.7 1.2-1.3 2.2-1.7.4 0-.1-.2 0-.4 1.3-.6 2.3-1.7 3.8-2.1 0 .2 0 0 0 0 .2-.6 1.2-1.1 1.6-1 3.1-2.4 7.1-3.9 10.8-5.9.2 0 .1-.2.2-.2 3.8-1.5 7.6-3.2 11.7-4.4.1 0 0-.2 0-.4 1.6.1 3.1-.9 4.5-1C44.3.4 49.9-.8 53 .6c.2.3.5.4.5.8 1 .2 1 1.3 1.6 2 .9 1.1 1.5 2.8 1 4-.2.2-.4.6-.6.7-1.1.2-1.7.9-2.5 1.4 0-.2-.4-.1-.7-.1C52.8 8 53.4 7 53.5 5c-6.1-1.3-10.9 1-16.1 1.9-.7.6-1.8.7-2.4 1.2-.3 0-.3-.2-.5-.2v.4c-1.5.5-3.2 1.2-4.4 1.7 0 .2-.6 0-.8.1-1.1 1.4-3.4 1-4.3 2.3-.1 0-.1-.1-.1-.3-.2 0-.1.5-.4.6-1-.2-1.1.6-1.5.7-.4.3-.8.1-1.1.3-.8.3-1.2 1.1-2.1 1.1-.1.7-1.5 1-2.3 1.5-.5.5-1.3.9-2.2 1.1-.3.1.1.2 0 .5-3.2 1.1-4.8 3.1-7.5 4.6 0 .1 0 .3.1.2 0 .3-.2.3-.4.1-1.2 1-2.1 2.1-3.3 3.1 0 .1.1.1.1.3-1.3 1.1-2.6 2.6-2.1 4.9.3.7.8 1 1 1.6 2.1 1.1 3.4 2.9 5.7 3.6.4.5.7.9 1.2 1v.3c.7 0 .5.2 1.1.3.1.2.2.4.2.6 1.6.1 2.9 1.8 4.7 2.4 1.6 1.8 4.4 2.9 6 5.1 3.4 2.6 5.8 6.1 7 10.8-.4-.2-.1-1.2-.5-1.4.5 2.3.5 5.3.5 7.9-.5 1.8-1.4 2.6-1.7 4-.2 0-.4.1-.5.2-.2 1-1.3 1.2-1.3 2.2-.4.1-.7.7-.9.1.1-.1.2-.1.2-.1zm-22.6-43c-.2.3.4.4.4.2-.2 0-.2-.2-.4-.2zm.4-1.5c0 .1-.1.2-.2.4.3.2.4-.3.2-.4zm1.5 42.9c-.3.6-1.2.6-1.4 1.2.2-.3.5-.6 1.1-.6 0-.1 0-.3.2-.4.1.1.1.2.3.2v-.3h.3c.1-.3-.5-.3-.3 0-.2 0-.2-.1-.2-.1zm-1 3.6c.1 0 .2 0 .2-.1-.1 0-.2 0-.2.1zM3.8 78.3c.3 0 .3-.2.6-.2.1.2.1 0 0 0 .1-.2.9-.4 1 0-.3.1-.3-.1-.5-.1.1.6 1.1.3 1.4 0-.1-.1-.4 0-.4-.2.1 0 .1-.2.1-.3.2 0 0-.1 0 0-1.2.1-1.8.2-2.2.8zm1.1-8.8c-.3 0-.3.2-.5.2.3.1.4 0 .5-.2zM5.2 67.7c-.2 0-.2-.2-.4-.2 0 .2-.1.4.1.5 0-.2.2-.1.3-.3zm0-46.3s.2 0 .2-.1c-.1 0-.2 0-.2.1zm0 2.1s.2 0 .2-.1c-.1 0-.2 0-.2.1zm3.4 41.9c0-.1.1-.4 0-.4-1.1.8-2.5 1.4-3.3 2.5 1-.5 2.1-1.6 3.3-2.1zM5.7 22.6c0 .3.1.4.3.4.1-.3-.2-.2-.3-.4zm1.1 45c-.2.7-1 .6-1.1 1.1.5-.3 1.2-.5 1.4-1.2-.1-.3-.1 0-.3.1-.2-.4-.3.4 0 0zm-.8-46c-.2.3.3.4.3.2-.1 0-.1-.2-.3-.2zm.5-1.9c0-.1.1-.1.1-.2-.1 0-.1-.1-.3-.1v.3h.2zm.2 58.4c-.2 0-.2-.1-.2-.3.6 0 1.2.1 1.4-.4-.1 0-.3.1-.4-.1.3-.2.7 0 .9-.3-.9-.2-1.6.6-2.2.4.2.4.2 1 .5.7zm-.2.5c.2.1.5.1.5-.1-.3.1-.5.1-.5.1zM6.8 19.3c.5 0 1.3-.8 1.2.1.3 0 .4-.2.5-.4-.4 0-.3-.5-.6-.6 0 .6-.2.2-.6.3.2.5-.7.4-.5.6zM7.9 67.1h-.3c0 .1-.1.2-.1.3.2 0 .4 0 .4-.3zm-.3-47.6c.2 0 .3 0 .3-.1 0 0-.2 0-.3.1zm2.2 58.2c-.8.2-1.7.3-2.2.8.7-.2 1.9 0 2.2-.8zm-.5-11.5c-.5.4-1.5.6-1.3 1.1.7-.5 1.7-.8 2.3-1.6 0 .2.1.2.3.1.5-.7 2-.4 2.1-1.8h-.3c-.2.7-.5.4-.8.8-.9.1-1.8.6-2.3 1.4zm-.8-48V18h-.2v.2h.2zm1.1.1H9c.1.5-.5.2-.5.7.5-.2.9-.4 1.1-.7zm-.7 20.8v-.2h-.3v.2h.3zm.1 38c.2-.2-.4-.3-.4-.1.1.1.2.1.2.1H9zm-.2.3v-.2h-.2v.2h.2zm.3-57.8c-.2 0-.4.1-.4.2.3 0 .6.1.4-.2zM9 76.4c-.2.4.6.3.6.1-.1-.1-.4-.1-.6-.1zm.4-12.2c-.1.3-.7.7-.4 1 0-.3.5-.3.5-.1.3-.9.8-.8 1.4-1.1-.2 0-.1-.2-.3-.2-.1.3-.5 0-.8 0 0 .2-.1.8-.4.4zm.4-46.7c-.1-.1 0-.3-.2-.3.1.3-.5-.1-.3.3.2-.1.2-.1.5 0zm.3-.9c0 .5-.4-.2-.5.3.5.4 1.2 0 1.4-.5h-.5c0 .3-.1.4-.2.4 0-.1-.1-.2-.2-.2zm1.1.7c-.7.2-1.1.6-1.5.9.5-.2 1.2-.3 1.5-.9zm-1.3 2.2c0-.1 0-.1 0 0-.1-.1-.2-.1-.3-.1v.1h.3zm.5.2v-.2h-.3v.2h.3zm-.3 58.1c.3-.2.7-.5 1-.7-.4 0-.6.1-.8.1-.1-.1-.2 0 0 0-.1.2-.2.3-.2.6zm.5-59.1c.1-.1.2 0 .3-.2-.1.2-.3.2-.3.2zm.4-2.4c.2-.1.2 0 .2.1h.5c.1-.3-.3-.3-.1-.6.2-.1 0-.1 0 0-.3.2-.6.2-.6.5zm1.9 46.5c-.2-.3-.3 0-.7 0-.1 0 0 .4-.2.4-.4-.2-.4.4-.9 0 .1.4-.2.3-.2.5.2 0 .2.1.6.1.1-.3 1.1-.4 1.4-1 .4.1 0-.4 0 0zm-1.7-45.6c.4.1.9-.4 1.2-.8.1 0-.1 0 0 0-.6.2-.9.4-1.2.8zm0 1.6s.1 0 .2-.1c-.1 0-.2 0-.2.1zm0 58.4c.4.1.2-.3.4-.4.2 0 .4 0 .5-.3-.4 0-.5.2-.5.3-.3 0-.4.2-.4.4zm.7-58.5c-.4 0-.4-.3-.5.1.1.2.5.2.5-.1zm1.1-3c0-.3-.3-.7-.5-.4.4.5-1-.1-.7.6.5-.2.9-.1 1.2-.2zm-1 2.2c.1 0 .2.2.2 0H12zm.1 58.6c.1 0 .2 0 .3-.1-.1.1-.3 0-.3.1zm.4-.3c.4-.2.8.3.9-.1-.3 0-.3-.1-.3-.3 1 .2 1.1-.7 1.4-.5.6-1.1 1.5-.4 2.1-1.2.1-.2.6 0 .5-.5-.4-.1-.6.1-.5.5-1.4.2-2.8 1.5-4.1 2.1zm.7-60.2c-.2.1-.4.1-.3.4.1-.1.4-.1.3-.4zM13 17.3s.1 0 0 0c0-.1 0-.1 0 0zm.1 24.1v-.3H13c0 .1 0 .2.1.3-.1 0-.1 0 0 0zm.3 36c-.1-.2 0-.3-.3-.3v.2c.1 0 .2.1.3.1zm.1-62.1c.1-.3.2-.2.1-.5.5 0 .9-.3 1.2-.4-.1-.4.2-.3.3-.6-.7.2-1 .8-1.8 1-.1.1 0 .4.2.5zM13.7 76.9c.1.2-.3.3 0 .4.1-.2.3-.3 0-.4zm.8-14.8c-.1 0-.1-.2-.4-.1.2.4-.6.2-.5.5.5-.1.8-.2.9-.4zm-.7-20.5c-.1.4.4.2.5.4-.1-.3-.3-.4-.5-.4zm.5 35.2v-.4H14c0 .2 0 .3.1.4h.2zm-.1-61.3c.3-.1.7-.4.9-.7.5 0 0-.4 0 0-.4.1-.7.3-.9.7zm.3 61.9v-.2h-.1c0 .1 0 .1.1.2zm.1-61.1c0 .1-.1.2-.1.2.3.1.3-.3.1-.2zm.1 24.6c0-.1-.1-.1-.2-.1v.1h.2zM15 61.9v-.3h-.3v.3h.3zm-.1-21c-.1.2.1.3.3.2.1-.2-.2-.2-.3-.2zm0 35.5c.2-.2.5-.3.7-.6-.4-.1-.4.2-.7.1v.5zM16.1 13.7c-.3.2-.9-.2-1 .3.8.3 1.2-.4.7-.8 0 .2-.2.2-.2.2 0 .2.4.1.5.3zm-1 29.6c.1-.1.2 0 .2-.2-.1.1-.2.1-.2.2zm0 18.5c.3-.2.7-.2.8-.5h.2c-.1-.1 0-.1 0-.1v-.3c-.2 0-.2.2-.2.4-.3.2-.8.1-.8.5zm.1-45.4h.3-.3zm0 46.4c0-.4.5-.5.7-.4-.2.1-.4.3-.7.4zm.6-48c0-.2 0-.4-.2-.4v.3c.1 0 .1.1.2.1zm.4 1.1c0 .1-.1.1 0 0-.1 0-.1-.3 0 0-.1.1-.2.3-.3.4.2 0 .6-.2.3-.4zm-.1-1.8v.3c0-.1.1-.2 0-.3zm.1 28.8H16c0 .1 0 .3.1.4.1-.2.2-.3.1-.4zM16.2 13.2c-.1.2-.1.4.3.2-.1-.1-.2-.2-.3-.2zm.5 2c.1-.3-.4-.4-.5-.1.2 0 .3.1.5.1zm.1 28.2c-.1 0-.2-.1-.3-.1.1.3-.4.5 0 .6-.1-.3.4-.1.3-.5zm-.4-30.2c.2.1.3-.4.1-.4 0 .1 0 .2-.1.1v.3zm.1.7c.2.3.4-.1.6-.2.4 0 .5-.3.7-.4-.3-.2-.4.3-.7.4-.3.1-.5.2-.6.2zM16.5 76v.4c.3.1.3-.5 0-.4zm.7-15.4c-.3 0-.5.1-.6.2.3 0 .6 0 .6-.2zm.4-47.9c-.2-.4-.7 0-.9.2.2.2.8.2.9-.2zm.1 2.5c-.3.1-.8 0-.9.3.5 0 .8 0 .9-.3zM17.3 75c.1-.2.4 0 .3-.4.1 0 .2-.1.2-.3-.1 0-.2.1-.2.3-.2-.1-.6.3-.3.4zm.1-32.4c0-.1-.1-.1-.2-.1v.1h.2zm.2-27.9c.1-.1.1 0 .1-.2 0 .1-.1.1-.1.2zm.2 58.4c.2-.1.2.1.4.1 0-.3-.1-.4-.4-.4v.3c-.2 0 .1.5 0 0zm.8 1.9c-.3.1-.7.1-.9.2.4.2.9 0 .9-.2zm-.2-62.9c0-.2-.1-.2-.3-.2v.2h.3zm-.2 3.2c.1 0 .2 0 .2-.1-.1 0-.2 0-.2.1zm.1 57.3c-.1.3.2.3.5.2-.1-.1.1-.5-.1-.5v.4c-.2 0-.2-.2-.4-.1zm.4-57.9c-.3-.1-.5 0-.5.1.3 0 .4 0 .5-.1zM19.1 73.9c-.1-.2-.7-.4-.6.2.3-.3.5 0 .6-.2zm.8-62.4c-.6.1-1 .1-1.3.5.3 0 1.1-.2 1.3-.5zm-1.1 2.7v-.3h-.2v.3h.2zm-.1 29.5c-.2.5.5.1.3-.1-.1-.1-.3.1-.3.1zm.5-31c-.2 0-.3 0-.3.2.1 0 .2-.1.3-.2zm-.1 32.5V45h-.2v.2h.2zm.4 28.9c-.3 0-.5.3-.6.6.3-.1.5-.2.6-.6zm0-59.4c-.1-.4-.2-.6-.4-.4-.1.3.1.4.4.4zm-.2 29.4v-.2h-.1s0 .1.1.2zm-.1 1.1c.1.5.3.6.7.7-.1-.3-.5-.4-.7-.7zm0 26.8c.1 0 .2 0 .3-.1-.2 0-.3 0-.3.1zm.3 1.3h-.2c0 .1-.1.2-.1.2.1 0 .3.1.3-.2zm-.2-60.7c.4-.1.7-.2.9-.5.4.1 0-.3 0 0-.4 0-.8.1-.9.5zm.8 61.2c-.1.3-.6.1-.5.3.4.1.9-.1.5-.3zm.6-1.6c-.6.1-.8.5-1.1 1 .5-.2.8-.6 1.1-1zm-.3-26.1c0-.1.1-.1.1-.2h-.4c-.1.1 0 .1.1.2h.2zm-.3 25.3s.2 0 .2-.1c-.1.1-.2 0-.2.1zm.3 2.2c.1 0 .1 0 .2-.1-.1.1-.2.1-.2.1zm.1-60.9c.1.2.4.1.5-.1-.1 0-.5-.2-.5.1zm3.9 37.1c-.4-.7-1.4-1.8-2.5-2.4-.4-.2-1-1.4-1.4-1 .7.2.8 1 1.4 1 .7 1.1 1.6 1.7 2.5 2.4zm-3.5-36.4h-.2c0 .2-.1.2-.1.3.1 0 .4 0 .3-.3zm.1 58.2c0 .1-.5.3-.1.5.1-.2.4-.4.1-.5zm.7-60.8c-.3-.3.1-.5-.3-.6 0 .3-.3.3-.6.3 0 .5.5.3.9.3zM21 73.9v0zm.1-2.3c.2-.1.5-.1.5-.4.3.1.5-.4.3-.5 0 .3-.4.3-.3.5-.3.1-.4.2-.5.4zm.8-60.3c-.1-.1-.7.2-.3.3 0-.2.3-.1.3-.3zm-.3 58.4c0 .1-.1.3.2.3 0-.2-.1-.3-.2-.3zm.2 3c.2.1.2-.4.1-.4 0 .1 0 .2-.1.1v.3zm.7-62c0 .2-.1.2-.1.5.2.2.2-.5.1-.5zm.3 2.2c.2-.1.4-.2.5-.3-.5.1-.7-.1-.9.2.2 0 .2.1.4.1zM22.7 70c.4.1.4-.2.5-.4h.1c.1-.1.2-.3 0-.4-.1.1-.2.2-.1.4-.2.1-.6.1-.5.4zm.1-60.1c.1 0 .2 0 .2-.1-.1.1-.2 0-.2.1zm.1 58.6c.2 0 .4 0 .4-.2-.2.1-.4 0-.4.2zm.1.3c.1 0 .3 0 .3-.1-.1.1-.3 0-.3.1zm.4-59.1c.1 0 .1.2.3.2.2-.6 1.9-.6 1.3-1.2.1.3-.4.4-.6.2-.1.5-.9.4-1 .8zm.3 59c-.2.1-.3.2-.4.4.2.2.4-.1.4-.4.1.1.1 0 0 0 .3-.1.1-.1 0 0zM23.9 67.8c-.3 0-.5-.2-.5.2.1.2.4.1.5-.2zM23.9 67.2c-.1.2-.1.5.3.5-.1-.2-.1-.4-.3-.5zm.5.8c-.2 0-.3 0-.2.2.1 0 .2-.1.2-.2zm.3-18c.1.3.2.5.6.6-.1-.3-.4-.5-.6-.6zM25.8 11.4c-.3.1-.5.2-.5.4.5 0 .4-.3.5-.4zm.6-3.2c-.3 0-.5.1-.6.3.4 0 .7 0 .6-.3zm.4 0V8h-.3v.2h.3zm.5-.6c-.2.3.3.4.2.1 0 0-.1-.1-.2-.1zm1.8-.5c-.3 0-.8-.1-.8.4.4-.2.7 0 .8-.4zM29.3 57.2h-.2v-.3c.2.1.2.1.2.3zm.1.8c-.3 0-.3-.2-.3-.7.4 0 .2.6.3.7zm-.1 3.6c-.2 0 0-.4 0-.5.3.1 0 .5 0 .5zm0-1.1V59c.4.2.6 1.4 0 1.5zM29.8 6.7c.2-.1.4.4.4 0h-.4c-.2.1 0 .2 0 0zm1.3-.4c.1 0 .3 0 .3-.1-.1.1-.3 0-.3.1zm1.5-.5c.1 0 .2.2.3 0 0-.1-.3-.1-.3 0zM64.9 53.6c.1 0 .1.1.2.1.4-.4.7-.6 1.5-.8-.5 1.4-1.4 2.8-2.4 3.7-2.4 1.7-5 4.5-8.3 5.3-3.5.6-5-1.9-5.6-5.2-3.7 2.6-6 6.3-10.7 7.9-3.5.1-4.2-4.4-3.5-7.5.9-2.7 1.9-6 2.8-8.6.4-.2.6-.6.9-.9.6.4 1.2.8 1.5 1.3-.6 5.2-3 8.1-3.5 12.7 0 .2.4.1.4.2 4.7-2 8.4-6.2 12.1-9.1.3-.1-.1-.2 0-.4 1 .4 1.5 1.3 2.6 2-.3 1.3-.3 2.7-.2 4.4 3.5 1.2 6.2-2.6 8.9-3.9.4-.6 1.2-.9 1.5-1.6.2-.1.2.1.4.1.4-.9 1.7-1.7 2.6-2.4-.5-.1-.5.4-.9.4.4-.8 1.1-1.2 1.6-1.7.3.2-.1.6-.2.9.1.2.2-.1.4 0-.2.6-.1 1-.6 1.1-.1.3.3.1.2.4-.2.1-.3.1-.4.4-.2 0-.2-.2-.1-.4-.4.1-.6.4-.8.7.3.2.4-.2.7-.2 0 .4-.5.3-.6.6-.2.1-.1-.2-.2-.3-.1.1-.3.2-.4.4 0 .1.1.1.1.1.2.2 0 .2 0 .3zm-21.6 6.2h.1l.1-.1v-.1h-.2s0 .1-.1.1c.1 0 .1.1.1.1zm1.6-.9c-.1-.4.3-.3.2-.6-.4.2-1.2.6-1.1 1.1.3-.2.4-.5.9-.5zm1.2-1c.6-.9-1.3.1-.4.4-.1-.4.2-.7.4-.4zm2.8-2.9c-.4.1-.4.4-.6.6-.8-.1-1.4.8-2.1 1.1.1.3.1.4-.1.6.2.2.2-.3.5-.2 0 .2-.5.4-.3.5l.9-.6c-.2-.5.3-.9.4-1.2.2.2.4-.1.6-.2.3 0 .1-.4.5-.3 0 .3 0 .6-.3.5 0-.1.1-.1.1-.1-.4.1-.4.6-.7.6.1.1.3.1.5.2.1-.2-.1-.5.1-.6.5.3.7-.7 1.2-.4 0-.1.1-.1.1-.2-.4 0 .2-.3-.1-.4-.1.3-.3.4-.6.2.1.2-.1.3-.2.3.1-.2.1-.3.1-.4zM49.9 54.8c0 .2.1.4.3.4 0-.2-.1-.3-.3-.4zm11.6 1.4c.4-.1.7-.2.8-.7-.6-.1-.6.6-.9.4-.1.2.1.2.1.3zM63.6 54.6c-.3.1-.7.4-.5.6.1-.3.5-.3.5-.6zM63.6 54v.4c.5 0 .2-.4 0-.4zm.9.6c.1-.1 0-.5-.1-.6-.2.3-.5.4-.6.6.3 0 .3-.4.7 0zm0-.8v-.2h-.3v.2h.3zm.3-.5c-.1.1-.3.1-.2.3.2 0 .4-.3.2-.3zm-.2.5c0 .2 0 .4.2.4.1-.2.1-.4-.2-.4zm1.9-2.8v-.2h-.2v.2h.2z"/><path d="M80.9 47.8c-2.3.9-3.9 3-5.9 3.7-.1.6-.4 1.2-1 1.3-2.2 3-4.3 6-6 9.4-.2 1.7-1 2.7-2.4 3.2-3.6-1.7-1.5-7.3-1.2-10.6.7-1.7.8-4.2 1.6-5.5 3.2.7 1.9 4.1 1.5 6.4 1.7-2.5 3.7-4.6 5.8-6.8 1.9-1.7 6.8-4 8.6-.6-.3-.2-.6-.4-1-.5zM77.5 47.6c-.2-.5.6-.1.6-.6-.5.1-.9.2-1.2.1-4 2.3-7.1 6-9.3 10.1 2.5-3.6 5.3-7 8.9-9.4.6.1.6-.3 1-.2zm-3.7 4.2c0-.1 0-.2-.1-.1-.1 0-.1.2.1.1-.1.1-.1 0 0 0zM75 50.5h-.2c.1.4-.6.5-.4.8.2-.3.6-.3.6-.8zm.9-.9c-.2.1-.8.2-.6.5.3-.2.6-.2.6-.5zm1.7-1c-.1-.2.3-.5-.1-.4-.4.5-1.2.8-1.6 1.3.7-.1 1.1-.9 1.7-.9zm-1-.8c-.1.1-.2 0 0 0zM78.5 48.1c-.3-.1-.7 0-.5.4.2-.1.3-.3.5-.4zm0 0c.3-.1.6-.1.7-.4-.2.1-.4.1-.6.1.1.1 0 .2-.1.3zM106.4 64.2c.1 0 .1-.1.2-.1.2.1.3.4.5.5 3.7-.9 5.9-3.2 8.4-5.1 3.6-3.1 7.1-6.2 10.6-9.4h.4c.2.1 0-.4.3-.4-.4 1.1-2.1 2.2-2.4 3.3-.8-.1-1.9 1.4-2.4 2-.1.2-.2-.1-.3-.1v.4c-.4-.1-.6 0-.7.4-.4.1-.9.6-.9.9-.3.1-.8.3-1 .7.2.1.4-.5.4-.1-.1.1-.3.2-.6.2 0-.1-.1 0 0 0 .1.5-.5-.1-.3.5-.2.1-.3 0-.4-.1-.1.5-1.1.9-1.1 1.5-.1-.1-.1 0-.1-.1.1.1.1 0 .1-.1-.1 0-.1.1-.1.1-.4.4-.9.7-1.2 1.2.2.4.4-.4.8-.1.1-.6 1.1-1.4 1.7-1.2-.4.6-1 .8-1.4 1.4.9-.5 1.6-1.4 2.5-1.9-1.2 1.5-3.1 2.4-4.3 4 .2.2.6-.1.7-.4.2.1-.1.8-.3.5-.1.2-.1.4.1.4-1.7 1.7-4 3.4-6.8 3.6-3.9-.6-6.3-3.9-6.5-8.4.1-.2-.1-.1-.2-.3.5-2.1.9-4 .2-5.9 1.4-1.3 1.1-3.7 1.7-5.5.2.1-.1.4 0 .7.3-.3.4-1.2 0-1.3 2-10.1 5-19.9 8.6-28.8 2.7-4.7 5-10.3 9.4-13.6 4.8.4 4.1 6.6 2.9 9.9 0 2.1-.7 4.1-1.6 5.8-2.7 8.2-5.8 14.5-9.2 22.3-.1.1-.3.3-.5.4 0 .2.1.3.1.6-2.3 3.5-3.7 8.3-7.3 10.7-.6.8-.5 2.7-1 3.5.3 2-.6 5 .9 7.1 0 .1.1.2.1.3zm-3.9-5.8v.1h-.1v-.1h.1zm.7-1.5c.2.1.2-.3.1-.2.1-.4-.3-.1 0 0 0 .2-.1.2-.1.2zm0 .2c-.1.1.1.4.1.1 0 .1 0-.1-.1-.1zm.5 2.8c-.1.1-.1.3.1.4 0-.2.1-.4-.1-.4zm1.6-16.7v-.1h-.2v.1h.2zm-.1-.7c.1.3-.2.4.1.5.1-.1.2-.6-.1-.5zm1 20.5c-.3 0-.4-.2-.4-.5.4 0 .4.4.4.5zm.1.8c0-.2-.1-.4-.1-.5.2-.2.4.4.4.7-.1 0-.1-.1-.3-.2zM106.9 36.7v-.3h-.1v.3h.1zm14.2-30c-.1.2.2.1.2.4-.5.3-.6 1-1.2 1.2.1-.1.1-.2-.1-.3-.3.3-.4.6-.6.9.1.3.4-.4.4-.1-.5.7-1.2 2.1-1.9 2.2.4.8-.6 1.4-.9 2.1-.1.3.4.1.3.5-.2 0-.4 0-.4.1-.1.2.1.2.1.3-.1 0-.1.1-.4.1.4.6-.9 1.5-.2 2.1-.2.1-.3.4-.6.4-.1.2.2.1.2.3-.9 2.2-2.2 4.3-2.7 6.8-1 1.6-.9 3.5-2.3 4.8-.1.3.4.1.4.4-.3.6-.3 1.7-.9 2.3 0 1.2-.7 2.4-.9 3.7-.1.1-.4 0-.4.1.4.1.2 1.1-.3 1 .1 1.2-.2 3.2-1.1 4.2.4.4 0 .9.2 1.4-.5-.1-.4.7-.6 1.2.3.1.1-.6.4-.3-.4 1.5-1.1 3.9-1.2 5.5 5.1-8.3 8.8-17.7 12.7-26.3 1.2-4.3 3-8.2 3.5-12.5.5-.8.1-2.1.3-3.2-.8-.4-1.6.9-1.9 1.3 0-.3.1-.6-.1-.6zm-13.6 28c-.1 0-.1-.1-.3-.1.1.4-.4.8-.1.9.1-.2.3-.4.4-.8zM107.8 33.4c-.3-.1-.2.3-.3.4.2 0 .3-.2.3-.4zM108 31.9c0 .4-.4.8-.3 1.2.1-.4.8-1 .3-1.2zm.3-.2c-.1-.1 0-.3-.2-.3v.2c.1.1.2.1.2.1zm0 5.2v-.2h-.2v.2h.2zm.5-7.4c-.1.5-.4 1.2-.6 1.9.4-.4.8-1.6.6-1.9zm-.6 6.5v.2c.3.2.3-.3 0-.2zm.8-7.1c-.1.1-.1.5.2.4-.1-.1.1-.5-.2-.4zm.3-.6c0 .1-.2.1-.2.4.2 0 .4-.4.2-.4zm.4-1.3c-.1.3-.3.6-.4.9.3-.1.6-.6.4-.9zm.2 2.3c0-.1 0-.2-.1-.1 0 0 0 .1.1.1-.1 0-.1 0 0 0zm.2-2.8v-.2h-.2v.2h.2zm.2-1c-.3.1-.3.4-.4.7.4 0 .5-.5.4-.7zm-.1 3v-.3h-.1v.3h.1zm0-.9v.3c.2.2.2-.4 0-.3zm1.4-5.4c0-.1-.1-.1-.1-.1-.4 1-.9 2.2-1.2 3.2.6-.9.9-2 1.3-3.1zm-1.1 9V31h-.2v.2h.2zM118.7 25.5c0 .2-.1.2-.3.2.3.6-.4.6-.1 1.1-.3-.1-.3.1-.4.2-.1.3.1.3.1.5-.1.1-.4 0-.4.1.2.5-.1 1.2-.5 1.3-.1.5.1.6.2.8-.6-.1-.7.5-.6.9-.3 0-.4.1-.4.3.1.1.1.1.1.3-.6 1.2-2 2.3-1.3 3.7-.1 0-.1.1-.4.1v-.3c-1.4 1.6-1.8 4.2-3.2 5.8.1.5-.4.8.1.9.2-.2-.1-.1-.1-.4.2-.2.5-.3.7-.5 0-.9.7-1.7 1.1-2.6.3-.1.1.4.4.4 0-.3.1-.4.3-.5-.1.3.3.1.2-.1-.1 0-.1.1-.2.1 0-.4 0-.6.3-.6.1-.2-.4-.3-.1-.4.3 0 .2.3.5.2.3-.3-.2-.1-.1-.4.2-.2.1.1.4.1-.2-.5-.1-.9 0-1.2.1.1.1.1.1.2s-.1.2-.1.4c1.2-1.7 1.7-4.3 3-5.8-.2-.3-.1-.4.2-.5.1-.2-.1-.3-.1-.5.3-.1.4-.4.3-.6.2-.1.2-.4.5-.4 0-.3-.2-.2-.3-.4.1-.1.4 0 .4-.2-.1-.2-.3 0-.4-.1 0-.4.3-.1.4-.1.2-.6.3-1.1.5-1.6-.2-.1-.1.3-.4.2 0-.2.3-.4 0-.4-.1.1-.4-.1-.4-.2.4.1.1-.4.4-.2-.1.1 0 .3.1.2.2 0-.1-.5.3-.5 0 .2-.3.6 0 .7 0-.4.4-.5.3-1.1-.2.1-.3.1-.4-.1.6-.1-.1-.2.1-.4.3 0 .2.4.6.4-.1-.7.6-.9.5-1.4-.1-.1-.3 0-.4-.2.1-.1.1-.4.3-.4.1.3-.1.3-.1.4.3.1.4 0 .6-.1-.1-.2-.1-.5-.1-.8.2-.1.4.1.4-.4-.4 0-.6-.1-.7-.1 0-.4.6-.2.7-.4-.1.1-.1.5.1.5.1-.4.1-.8.1-1.1-.1-.1-.1.1-.2.1-.1-.4.2-.2.2-.4-.4-.1.3-.9.4-.4-.1-.2.5-.8.1-1-.1.1.1.6-.3.5.3-.2-.2-.9.4-.9 0-.3-.4-.1-.3-.6-.3.4-1 1.6-.4 1.7-.1.1-.1.4-.2.4s-.1-.1-.3-.1c-.1.9-.6 1.4-.7 2.3-.1.1-.4.1-.5.3-.1.3.1.3.1.5-.2-.1-.1.2-.3.2.2.4-.3.5-.2 1h-.4c.1.5-.3.5-.3.9.2 0 .2.2.1.5zM112.2 64.1c-.1.3-.7.2-.9.5.3-.1 1.3-.3.9-.5zm5.6-54.6c-2.5 3.7-4.5 7.7-6.3 12.4 2-4.2 4.5-8.9 6.3-12.4zM113.2 38.7c-.3.1-.5.6-.4.9.1-.3.4-.5.4-.9zm.2-.1v-.2h-.1v.2h.1zm.2.4c-.4 0-.4.2-.4.6.3-.1.2-.5.4-.6zm.1 25.2c-.3-.1-.4.1-.4.3.2-.1.4-.2.4-.3zm-.1-26.5c-.1-.1 0-.4.2-.4 0 .2 0 .4-.2.4zm.1.6c0 .2-.2.1-.1.4.1.1.4-.3.1-.4zm.5 23.5h.2c.1-.1.1-.1-.1-.2 0 .1 0 .1-.1.1v.1zm.8 1.4c0 .2-.4.1-.3.3.2.1.5-.2.3-.3zM115.1 62.6c-.2-.1-.4.3-.1.4 0-.2.2-.1.1-.4zM115.8 60.6c-.1 0-.1-.1-.1-.2-.2.2-.5.4-.6.6.4 0 .5-.3.7-.4zm-.5-44.5c0 .1-.2.1-.2.3.2.1.4-.3.2-.3zm.1 18.3c.2.1-.1.3-.1.4-.1 0-.1-.1-.1-.3.1 0 .1 0 .2-.1zm0-18.9c.1-.1.3.3.4 0-.1 0-.4-.3-.4 0zm.7 17.2c0 .1-.4.1-.3-.1.2-.1.2.1.3.1zM116.2 63h-.3c.1-.1.1-.1.1-.2.2-.1.2 0 .2.2zm.5-49.3c-.4.1-.3.1-.6.1-.1.4.7.2.6-.1zm.9 47.5c0 .1.2 0 .3-.1-.1.6-1.3 1.1-1.4 1.7-.1 0-.1-.3-.3-.2.2-.4.2-.6.1-.9.3.1.2.1.5.1.3-.1-.2-.1-.1-.3 2-1.7 4-3.5 6-5.2-1.3 1.7-3.5 3.2-5.1 4.9zm-.9-29.8c.1.2-.3.2-.3 0 .1-.1.3-.1.3 0zm-.1.5v.2h-.2v-.2h.2zm.2 28.7c-.1 0-.3.1-.4.3.2 0 .4-.1.4-.3zm.2-29.7c-.4.1-.4-.3-.2-.4.2-.1.2.1.2.4zm0 .3h-.3V31c.3 0 .3 0 .3.2zM117.2 61.3c0 .1-.1.1-.1.3.1.1.3-.2.1-.3zm.7-32.4c-.2 0-.4 0-.4-.2.2 0 .4 0 .4.2zm-.3.7c-.1-.1 0-.1 0-.3.2.1 0 .3 0 .3zm.7-1.4c-.1.3-.6.1-.4-.2.2 0 .2.1.4.2zm-.3 32.9c-.1-.2.1-.2.1-.4.4.1.1.4-.1.4zm0-33.3c.1-.1 0-.4.3-.3-.2 0-.1.3-.3.3zm.3 30.9v.2h-.2v-.2h.2zm.6-31.7c-.1.1-.4-.1-.4-.3.1-.1.1.1.4 0v.3zm-.1 31.7c-.1.1-.1.3-.4.3v-.3h.4zm.1-32c-.1-.1-.3-.1-.3-.4.1.1.3.2.3.4zm-.3 33.8c0-.1.3-.1.3-.2.2 0-.1.3-.3.2zm.8-51.3c-.4 0-.4.4-.5.6.2 0 .3-.4.5-.6zm-.3 49.1v.3h-.3v-.1c.1 0 .1-.1.1-.1.1-.1.2-.1.2-.1zM119.6 58.2c-.4.1-.3-.2-.4-.4.2.1.3.2.4.4zm-.2-.6c.1 0 .2 0 .3.1 0 .1-.1.1-.1.1-.1 0-.2-.1-.2-.2zM119.8 58h-.1v-.2s.2.1.1.2zM120 57.3v.1h-.2v-.1h.2zM120 23c.1-.1.1-.2.1-.4.1 0 .1.6-.1.4zm.7 34.6c0 .1-.2.1-.1.3-.1 0-.5.1-.4-.1.2 0 .2-.2.5-.2zM120.3 23.2v.1h-.1v-.1h.1zm-.1 34.2c-.1-.4.6-.2.6 0h-.6zm.2-35.2v.1h-.2v-.1h.2zM120.9 22c-.1.2-.1.4-.3.4 0-.2 0-.4.3-.4zM121.5 56.7c-.1.2-.4.4-.5.6-.1-.1-.3-.1-.3-.4.2-.1.2.1.4 0 .1-.2-.1-.1-.1-.4.4-.1.2.3.5.2zM121.1 55.6c0 .1-.1.2 0 0zm.2-33.3c-.1-.1-.1-.2-.2-.1 0 .1 0 .2.1.2 0 0 0-.1.1-.1zM121.2 20.7c.2.1.2-.1.2-.2-.1.1-.2.1-.2.2zm0 35.4c.1-.1.1-.3.4-.2 0 .2-.2.2-.4.2zm1.6-.5c-.4.4-.7.7-1.1 1-.3.1-.2-.1-.4-.1.4-.2.4-.1.5-.6.1 0 .1.1.3.1.2-.1-.2-.1-.1-.4.2 0 .4.3.4-.1.1.1.3.1.4.1zm-1 0c0 .2-.1.3-.3.3 0-.3.1-.3.3-.3zm.1-35.5V20h-.1v.1h.1zm.5-2.6c-.1-.1-.3 0-.2-.3.3-.1.4-.4.6-.6-.2-.1-.4-.1-.6-.3 0 .6-.2.6-.4 1.2.2.2.4.5.6 0zm.1 37.6c-.1 0-.1-.4.1-.3 0 .1-.1.2-.1.3zm-.1-39c0 .2.2.2.4.2 0-.3-.2-.3-.4-.2zm.3 39.1c-.1.1-.1.4-.3.3v-.3h.3zm.1-39.5c-.1-.1-.4-.1-.4.1.3 0 .4 0 .4-.1zm0 39.1h-.2c-.1-.2.4-.2.2 0zm-.1-37.2v-.1h-.1v.1h.1zm0-2.2c.1-.3.1.1.3.1.1-.2.1-.6.2-.9-.1 0-.3 0-.4-.1-.2.2.1.4.1.6-.2-.2-.4.2-.2.3zM123.2 16.1c-.3 0-.3.4-.4.6.3 0 .6-.3.4-.6zm.3-2.2c-.2 0-.2-.2-.4-.1-.1.4.1.5.2.6 0-.2 0-.4.2-.5zM123.5 13.1c.1.3-.4.1-.3.4.6.1.4-.7.6-1.2-.1-.1-.1-.4-.4-.4-.4.4 0 .6-.3 1.1.3.1.4 0 .4.1zm0 42.1v.2c-.1-.1-.1 0-.1.1h-.2v-.2c.1.1.1 0 .1-.1h.2zm.1-39.9v-.2h-.1v.2h.1zm0-2.5c-.1 0-.1-.2-.1-.4.2.1.2.2.1.4zm-.1 42.3c0-.1.1-.1.1-.3.3.1.1.4-.1.3zM123.9 53.5v.2h-.2v-.2h.2zm.1 0c-.1.1-.1-.1-.3-.1l.1-.1c.2 0 .2 0 .2.2zm.3-42.8c-.2 0-.3 0-.4-.1-.1.2-.1.7.1.8 0-.3.3-.4.3-.7zM124.1 12.4c.1.3-.3.6-.1.7 0-.2.5-.6.1-.7zm.3-2.8c-.2.1-.1 0-.4 0 .1.3.1.8.4.9-.1-1 .4-1.5.1-2.2 0-.4-.4-.1 0 0-.2.5-.2.9-.1 1.3zm0 42.2c0 .2-.2.1-.2.4.3 0 .5-.3.2-.4zm.1-43.8c0-.1.1-.1.1-.3h-.2V8h.1zm0 44.9c.1-.4.4-.6.7-.8-.1.4-.3.7-.7.8zm1.3-1.2c-.2-.4.4-.7.6-.9.4.3-.6.6-.6.9zm.8-1"/><path d="M134.5 50.5c-.9 2.2-3 3.2-4.5 4.6-1.4.3-3 1.2-4.3.3-.8 1.1-.9 2.4-1.2 4 3 2.1 7.3-.6 10.3-1.6 1.7-.9 3.5-1.9 5.3-2.7.2-.3.6-.4.9-.6.2.6-1.3 1-1.8 1.5 0 .1.1.1.3.1-2 1.8-4.2 2.9-6.9 3.8.5 0 1.6 0 2.2-.4-.1.4-.4.4-.6.6 0 .1.4-.1.3.2-.9.3-1.7 1.2-2.1.9-.4.1-.1.3-.2.5-1.9.9-3.2 1.4-5.8 1.4-3.5-.7-3.9-4.1-3.5-7.2 1.3-4 4.1-8.4 8.1-10.3.7-.4 1.6-.2 2.3-.2.6.1.7.5 1.2.6.1.9.7 1.3 1.2 1.8-.2 1.3 0 2.1-1.2 2.7zm-3.7-1.6c-1.2.9-2.3 1.9-3.2 3.2 2.4-1.2 4.5-2.7 5.9-4.8-1.2.5-2.7.9-3.4 1.9.3 0 .5-.6.7-.3zM129.5 61c.4-.2.6-.4.9 0 .1-.1-.1-.4.1-.4.5 0 1.4-.4 1.8-.6-1.1.6-2.4.2-3.3.6.3.1.6-.1.5.4zm11.7-6.6"/><path d="M156.4 55c.1 0 .1-.1.1-.1.1-.2-.1-.1-.3-.1 1.9-1.8 4-3.2 6-5 .1.1.1.3.4.3-.4 1.2-.8 2.2-1.9 2.7-.1.3.1.1.3.1-.3.4-.7 1-1.1.9-.2.1.1.1 0 .4-.8.3-1.2.5-1.6 1.3-1 .1-1.8 1.1-2.7 1.6.6.4.9-.8 1.7-.8.1.2-.1.1-.1.4.2 0 .2-.3.6-.2 0-.3-.2-.3-.1-.6.6.3.9-.6 1.5-.6v.5c-.4 0-.7.6-1.1.4 0 .1.1.3.1.3-1.7 1.7-4.2 3-6 4.5-.1 0-.1-.1-.1-.2-2.8 2.6-6.4 4.4-9.1 7.1.2 3.2 1.5 6.8 1 10.4-.3 1.2-1 2.7-1.8 4-1.5 1.3-4 3-6.6 2.1-1.9-1.2-2.9-3.3-3.5-5.7-.1-1-.3-1.7 0-2.6 1.7-4.3 4.9-7.3 8.1-10.5.1-.8-.1-1.5-.1-2.4h.3c-.4-2.5.1-5.1.2-8.5 1.2-2.4 1.7-5 3.8-6.4 1.4.6 3 1.3 2.4 3-.9-.1-1.4.4-1.8.7-2.1 4.2-2.7 7.4-2.2 12.2 2.9-1.9 5.8-4.3 8.7-5.9 0-.1-.1-.1-.1-.3.9-.3 1.1-1.2 2.2-1.2 0-.1-.1-.2 0-.3.3 0 0 .1.1.3.9-.6 1.2-1.4 2.3-1.8.2-.2.2 0 .4 0zm-22.9 19.2c.1.2-.1.2-.1.4.3.1.3-.5.1-.4zm.6-.6c-.1.1-.3 0-.2.2.1 0 .2 0 .2-.2zm-.1-.1c.4 0 .4-.3.4-.6-.2-.1-.4 0-.4.1.5.2 0 .2 0 .5zm1-1.4c-.4 0-.4.4-.5.6.3 0 .4-.2.5-.6zm4.3 7.9c2.7-2 3.1-7.1 2.1-10.7 0 0 0-.1-.1-.1-2.8 2.9-6.5 6-6.6 11.5 1.4 1.1 3.4-.1 4.6-.7zM136.3 70.2c-.2.5-.7.6-.9 1.2.4-.2 1-.7.9-1.2zm.5-.2c0 .1.1.1.1.1-.1-.4.4-.5.4-.9-.4.1-.6.4-.7.8h.2zm.8-1.3h.3v-.3h-.2c0 .1 0 .1-.1.1v.2zm1.6-1.3h-.3c0 .1 0 .2.1.2-.1-.1.2-.1.2-.2zm.1-.3c.2 0 .3-.1.4-.2.2 0 .3-.1.4-.3-.2 0-.3.1-.4.3-.3-.1-.3 0-.4.2zm1.1-3.5c.1.6-.1 1.2.1 1.7.1-.5 0-1.2-.1-1.7zm2.8 2c.2-.1.3 0 .3.2.5-.2 1.2-.7 1.3-1.1-.1.1-.2.3-.4.4 0-.4 0-.6-.2-.8-.1.2.1.4-.1.5-.1 0-.1-.4-.2-.1.1.1-.1.5-.2.5 0-.2-.2-.3-.2-.5.2-.1.3-.4.4-.6-.4.1-.4.3-.7.4-.2.6.4.6 0 1.1zm.8-1.5V64h-.1v.1h.1zm2.4-.6c.1.1-.3.3 0 .4 0-.2.3-.1.2-.4h-.2c.1-.3-.4-.6.2-.7.1.1 0 .3-.1.4.3-.1.4-.1.3.2.7-.4 1.2-1 1.9-1.3 0-.3-.4-.2-.5-.4.1-.2.3-.4.6-.4.1.1-.4.3-.1.5.9.1 1.2-.9 2.1-1.1-.1-.3.2-.5.2-.9.4-.1 1.4-.9 1.6-1.2 0 .2-.2.2-.3 0 0-.2.4-.1.3-.3-.6.3-1.2.4-1.4 1 0 .1.2 0 .2.1-.1.1-.2.2-.5.2-.4-.4-1.8.6-2.2 1.2.1 0 .4-.1.4.1-.1 0-.1.1-.3.1-.1-.1-.3-.2-.6-.1-.2.1-.3.9-.5.6 0-.1.2-.1.1-.3-.6.4-2.1 1.1-1.7 1.7-1.2-.4-1.7.7-1.7 1.8.4.1.1-.4.5-.4 0 .2-.1.3.1.4.1-.1.2-.4.5-.4v-.1c.6 0 .6-.6.9-.7zm-1.6.6c-.2.1-.1-.4.1-.2-.1.1-.1.2-.1.2zm0-.5c.1 0 .2.1.1.4-.1 0-.1-.1-.1-.1v-.3zm.5.1c.2.1.3.3.3.6-.2-.1-.5-.4-.3-.6zm.7-.2v.1c-.2-.1-.2.1-.4-.1 0-.1.2 0 .2-.1.1-.1.1 0 .2.1zM146.5 62.7c.2-.4.6-.6.9-.9-.1.5-.5.7-.9.9zm.9 0c-.1-.2.1-.1.3-.1-.1 0-.1.1-.3.1zM148.4 61v.2h-.1V61h.1zm2-.4c0 .2-.4 0-.3.3-.4-.4.4-.7.8-.9 0 .3-.8.3-.5.6zm4.7-3.9c-.9.1-1.4.6-1.9 1.1.3.1.4-.1.6.1.1-.6.6-.9 1.3-1-.7 1.6-2.4 1.8-3.4 3.2 1.1-.6 2.2-1.2 3.1-2.2-.2-.1-.3.4-.4.1.3-.3 1.3-.3 1.2-.8-.1.4-.4.1-.4-.1.2-.2.8-.5.6-.9.4 0 .5-.4.7-.3-.1-.5-.6-.1-.8 0 0 .1.1.1.1.3-.4 0-.6.2-.7.5zM153 57.1c-.3.1-.5.1-.5.4.3 0 .4-.3.5-.4zm.1.8c-.2 0-.4.1-.4.4.3-.1.5-.1.4-.4zM154.4 57.6v-.1h-.1v.1h.1zm1.5-2.4c-.2 0-.3.1-.3.1.2 0 .3 0 .3-.1zM157.7 55.3c.1-1.2-1.1 0-1.2.4.6 0 .8-.9 1.2-.4zM156.9 54.5c.3-.1.4-.3.6-.4-.1-.2-.6.2-.6.4-.2.1 0 .1 0 0zM158.2 54.9c0-.3-.2-.3-.4-.4 0 .1-.1.1-.1.1.2.1.2.4.5.3zM158.2 53.5c.4-.2.7-.4.9-.8.1.1.4-.2.1-.3 0 .1-.1.1-.1.3-.4.3-.7.5-.9.8zm.8.9c-.3-.4 0-.4.1-.7-.3.1-.9.4-.7.7.1-.2.3.1.6 0zM159.5 55.3c-.3-.6.6-.8 1.2-.9-.2.5-.7.7-1.2.9zm.9-2.6c-.5.1-.6.4-.9.8.7-.1 1.1-.9 1.3-1.2-.1-.2-.3.1-.4.1-.1.1-.1.2 0 .3zm-.1-.9c.1-.1 0-.1 0 0-.1.1 0 .1 0 0zm.4 2.3c-.1-.4.3-.4.5-.5-.1.3-.4.4-.5.5zM161.1 51.8c-.1.1-.3.1-.2.2.2.1.4-.2.2-.2zm.2-.8c-.3-.1-.4.4-.1.4-.1-.3.1-.3.1-.4zm.1-.1M197.7 16.8c-.3 3.9-2.2 7.6-2.9 11.1 1.7.2 3.9.1 5.7.1 4.3.6 9.6-.3 13.8 2.1-.4.1-.6-.1-.9.1-5.4-1.9-13-1-18.3-1.8-.4.1-.6.4-.7.8 0 .4.7.1.9.4.1-.3.1-.6.3-.6 0 .4.9.6 1.2.1.8.4 1.4.1 2 .1.2.1.1.4.3.5.2 0 .3-.1.3-.1.1 0 .1.1.1.1.2 0 .1-.3-.1-.3 0-.2.3 0 .3.1.2-.1-.1-.3 0-.4.9 1.1 2.4.2 3.4.7.1 0 .1-.1.1-.2.4.3.5-.1 1 .1.2-.2-.4-.2-.4-.5.3.1.7.1.8.1.2.4-.1 0-.1.2.9.6 2.2 0 3.2.4.2-.1.4-.2.4-.4.2.1 0 .6.4.5.2-.1-.1-.2-.1-.4.2.3.6.5.5.9.4 0 .3-.1.3-.4.3.3.6-.2.7.1.2 0 .1-.3.1-.4.6.4 1.8-.1 2.9.4-.7.2-1.5.3-2.4 0-.3.1-.2.6-.6.6-.3.1-.2-.3-.3-.4-.2.5-1.2.1-1.2.6-.4.1-.1-.4-.4-.4 0 .4-.2.2-.7.4 0-.2.1-.2.3-.2 0-.2-.5-.3-.4.1-.2-.1-.1-.4-.5-.3-.3 0-.3.2-.4.4-4-.5-9.1-.4-12.1-.2-.4.1-.1.9-.6.9 0 2.1-1.3 4-1.6 6-1 2.9-2.4 6.6-3.5 9.6-1.4 4.2-4.3 6.9-4.8 11.2 0 1 0 1.9-.3 2.9.1 1.2.1 2.6-.1 3.8.1 3.5.4 7.4 2.7 9.4-3.5-.4-4.3-3.8-4.9-6.8-.1-1.6-.4-3.9-.2-5.7.2 0 .1.3.3.2 0-.6-.1-1.4.1-1.7-.4.2-.2.6-.4.9 0-1.3-.1-2.5.4-3.5-.1-1 .1-2.2-.6-3.1.4-.4.6-1 1-1.4 1.1-8.2 2.7-14.3 4.8-21.9-2.4-.4-5.5 1.7-7.6.3-.4-1.6 0-3.4 1.8-3 1.9-.5 4.3-.5 6.8-.9 1.2-3.6 2.4-8.4 3.7-12.5 1.4-4.2 2.2-9 5.3-11.4 2.8.2 3.2 3.4 2.4 6.1.3.3.3.4.2.9.1 0 .1-.3.1-.4.4.9-.6 1.6-.4 2.3-.1 0-.1-.1-.2-.1-.1.1 0 .6.1.3h.1c-.3 1.3-.2 2.9-1.1 3.6zM181 67.9c-.1 0-.2-.1-.2-.2h.2v.2zm0-5.6c-.1.2-.2.4.1.4-.1 0 0-.4-.1-.4zm.1 1.9c-.1-.2.3-.3 0-.4 0 .1-.1.1-.1.1.1.2 0 .3.1.3 0 .4.3 0 0 0zm0 .3c-.1.1-.1.4.1.4 0-.1.1-.4-.1-.4zm.3-4.5c-.2 0-.4.1-.4.4.3 0 .4-.2.4-.4zM181.1 59.2c0 .1-.1.2 0 .3 0-.1.2-.2 0-.3zm0 3.6c.1.3-.2.5.1.6-.1-.4.2-.6-.1-.6zm0-4.1c.1.1-.1.4.1.4.1-.2.2-.3-.1-.4zM181.6 64.3c.1.6-.2.9.1 1.3-.1-.4.1-1-.1-1.3zm0-.9c-.1.1-.1.6 0 .8.1-.2.2-.6 0-.8zm0-.7c.1.1 0 .4.1.5 0-.2.1-.6-.1-.5zm.2-3c0 .2-.1.2-.1.4.3.1.3-.4.1-.4zm1.8-14.7c-.1-.5-.2.3 0 0 .1.6-.3.2-.4.4.1.1.2.1.3.1-.4 1.2-.9 2.2-.7 3.2-.3.1-.2.4-.3 1-.1.1-.3.7-.1 1.1-.1-.1-.3-.1-.2.1.1 0 .2 0 .2.1 0 .3-.4.4-.4.6.1.1.3 0 .3.1-.3 0-.4.4-.1.4-.2.1-.6.6-.2.8-.1-.4.5-.5.2-.8 0-.2.1-.1.1-.1.5-3.2 1-5 1.4-7.4.4-2.2 1.3-3.7 1.2-5.8-.3.5-.3 1.6-.6 2.1.4.4-.5.7-.1 1.2-.1.1-.2-.3-.2.1.4.5-.6 1.9-.5 2.4h.2c0 .2.1.4-.1.4zM183.3 49.2c-.1.6-.3.9-.1 1.4 0-.4.4-.9.1-1.4zm.4-1.8c-.1.4-.4 1.1-.3 1.5 0-.3.5-1 .3-1.5zm.7-3.7c0 .5-.4.6-.1 1.1-.4.3-.2 1.1-.4 1.5.5-.4.2-1 .4-1.5.3-.2.1-.6.1-1.1.4-.1.4-.9.3-1.3 0 .4-.2 1.1-.3 1.3zm.8-2.3c-.2-.1-.2.1-.2.4.2 0 .1-.3.2-.4zm.1-1.3c.1.4-.4.6-.1.9.1-.4.3-.6.1-.9zm0-1.3c.7-2.3 1.2-5.3 1.9-7.3h-.3c-.4 1.9-.9 2.8-1 4.7-.5.7-1 1.9-.6 2.6zM185.6 38.9c0 .2-.1.4 0 .7 0-.3.4-.7 0-.7zm.4-1.3c-.1.3-.4 1-.1 1.2-.1-.5.3-.8.1-1.2zm.2 5.3c.3.6-.5 1.3-.1 1.7 1.7-4.5 3.5-9.1 4.8-13.5-.8-.1-1.2.1-1.7.1-1.1 4-1.6 7.9-3 11.7zm0-5.5c.2-.4.2-.9.3-1.2-.3.1-.4.9-.3 1.2-.2 0 0 .1 0 0zm.4-2.4v.3c.2 0 .2-.5 0-.3zM186.7 44.8c0 .1-.1.2 0 .2 0 0 .2-.1 0-.2zm.5-12.3c.1.7-.6 1.4-.3 1.9.1-.7.7-1.5.3-1.9zm3.9 3.9c-.1.1-.2.1-.2-.1.3-.5.8-.9.5-1.7.2-.1.2 0 .4-.1.1-.6.2-1.4.5-1.8-.2-.1-.3-.8.1-.9v.1c-.2 0 .1.4 0 0 .2-.2.2-.9 0-1-.1.1-.4 0-.6.1-.4 2-1.4 3.5-1.6 5.1-.5.9-1 2.2-1.2 3.5l-.2-.2c-.1.4.1.9 0 .9-.2.1 0-.4-.3-.2-.3 1.7-1.1 2.9-1.6 4.5.4-.2.2-.2.6 0 .6-1.8 1.6-3.5 2.2-5.2.2 0-.1.4.1.4 0-.1.1-.2.1-.2.1-.4-.3-.2-.2-.6.2.1.3.2.4 0-.2-.3-.2-.9.2-.6.3-.4-.3-.3-.2-.8.2 0 .1.2.2.2.3-.3-.2-.4 0-.6.1.1.2.1.4.2 0-.3.1-.4.2-.6.2 0 0-.2.2-.4zm-3.6-4.9c-.1.4-.2.7-.3.9.3 0 .6-.8.3-.9zM188.1 28.1c.5-1.4 1.4-3.8 1.4-5 .3-.5.7-1.3.6-1.9-.4.4-.5 1.4-.6 1.9-.5 1.4-1.2 3.6-1.4 5zm1.7-3.9h-.2c-.3 1.5-.9 2.6-1 3.8.6-1.2.8-2.4 1.2-3.8zM189.5 40.1c0 .1-.1.2 0 .2.1-.1.2-.2 0-.2zm.8-18.1c-.1.9-.4 1.2-.5 2.1.3-.4.5-1.4.5-2.1.2-.1 0-.1 0 0zm.5 6.8c-.4.1-.6 0-.7.2.4-.1.2.4.7.4.1-.2-.2-.4 0-.4.1.1.1.1.1.4.3.1.9-.1.6-.5 0 .4-.2.1-.5-.1-.1.2.3.4 0 .4.1-.3-.1-.4-.2-.4zm-.5-8.4c-.1.1 0 .4-.1.6.1 0 .3-.4.1-.6zm4.9-8.9c-.1.1-.1.3-.2.3 0-.2-.1-.1-.1 0h-.1c-.1.1-.1.4-.1.6-.1 0-.1.1-.1.1h-.1c.1.4-.4.8-.1 1.2.1-.4.3-.6.2-1.2.1 0 .1-.1.1-.1h.1c0-.1 0-.2.1-.2-1.4 4.9-3.2 10.7-4.7 15.8.8.1 1-.1 1.7 0 1.9-7.2 4.7-13.8 5.1-20.8-.7 1.2-1.3 2.7-1.8 4.3-.1-.5-.3.3 0 0zM190.5 26.4c.1.2-.3.4 0 .4 0 0 .1-.3 0-.4zm.1-7.1c.1.4-.4.7-.1.9-.1-.2.6-.7.1-.9zm0 1.6c.1.4-.3.7-.1.9.1-.3.3-.7.1-.9zm.3-2.4c-.1.3-.2.4-.3.8.3-.2.5-.5.3-.8zM190.7 25.8c.1-.1.1-.2.2-.4-.3 0-.1.3-.2.4-.1.1 0 .1 0 0zM190.8 36.7c.1 0 .1.1.1.1-.1 0-.2-.1-.1-.1zm.2-16.4c0-.1-.1-.2-.2-.1 0 .1 0 .2.2.1-.1.1-.1 0 0 0zm.1-2.3c.1-.3.4-.7.3-1-.2.3-.3.6-.3 1-.3.1.3.2 0 0zm.1 6.3c-.2-.1-.1.3-.2.4.3 0 .1-.3.2-.4zm-.1-4.8c.2.1.3-.3.1-.2 0 0 0 .1-.1.1v.1zM191.6 18.3c-.3-.1-.1.3-.2.4.2 0 .2-.2.2-.4zM191.5 16.5c0 .1-.2.4 0 .4-.1-.2.3-.4 0-.4zm.1 1.5c.3-.2-.1-.5 0 0-.3.1.3.2 0 0zM191.6 16.3c0-.3.2-.2.2-.4-.3-.1-.2.3-.2.4-.1.1 0 .1 0 0zm0 6c-.1.1-.1.3.1.3 0-.1.1-.3-.1-.3zm.2-6.6c.1-.1.1-.4.2-.5-.2 0-.2.3-.2.5-.2 0 0 .1 0 0zm.1 1c.1.2-.3.4 0 .6 0-.1.2-.6 0-.6zM191.9 15c.2.1.3-.3.1-.3 0 .1 0 .1-.1.1v.2zM192.1 15.8c.1.1-.1.6.1.6-.1-.3.3-.6-.1-.6zM192.4 15.5c0-.1 0-.2-.1-.1 0 .1 0 .2.1.1 0 .1 0 0 0 0zm.7 13.6c0-.1.3-.1.2-.4-.2 0-.6-.1-.9.1.4.1-.4 0-.1.6.2 0 .2-.3.6-.1 0-.2.1-.2.2-.2 0 .1.1 0 0 0zM192.7 14.5c-.3.1.1.4 0 0 .1 0 .1-.1.1-.2.3 0-.1-.4 0 0-.1 0-.1.1-.1.2zm.1 15.4c0-.1 0-.3-.1-.2v.1c0 .1 0 .1.1.1zm0-11.1c.1 0 0-.1 0 0-.2 0 0 .1 0 0zm.9 9c.4-.3 0-.4-.1-.7.1-.4.5-.7.4-1.3.2-.1.3 0 .5-.2v-.5c-.1 0-.2 0-.2-.1.2-.4.1-1.2.5-1.4 0 .1 0 .1.1.1.1-.4.6-.7.3-1.2-.2.2-.1.6-.3.7-.1-.4.2-.9.4-1.3.1 0 0 .3.1.3.4-1 .6-1.7.9-3-.5.6-.5 2.2-1 2.4 1-3.9 2.5-7.9 3-12.1.1 0 .1-.1 0-.1-.1-.4.1-.4.2-.6-.1-.1-.3-.2-.1-.4-.5 1.2-.6 2.7-.8 4-.1.1-.2-.1-.4-.1 0 .2.1.3.1.5-.4.4-1 1.9-.6 2.6-.2.1-.3-.1-.5.1-.8 4.2-2.8 8.7-3.5 12.5.5.1.6-.3.9-.5.1.2.1.2.1.3-.2 0 .1.3 0 0zm-.5-10.4c0 .1-.2.4 0 .4-.1-.2.2-.3 0-.4zM193.6 16c0 .1-.2.4 0 .4 0-.1.2-.4 0-.4zm.2-.8c0 .1-.2.6-.1.6.1-.1.3-.6.1-.6zM194 14.4c.1.3-.3.4 0 .6 0-.2.4-.6 0-.6zM194.2 13.8c.1.2-.1.2-.1.4.3.2.2-.4.1-.4zm.2 11.5v.1c-.1 0-.1.1-.1.1h-.1v-.1c.1 0 .1-.1.1-.1h.1zM194.9 24c-.1-.1-.2 0 0 0 .1.1.1 0 0 0zm.1-12.2c0 .1.1.4-.1.4.1-.1.1-.3.1-.4zm.3 8.6v.4h-.2v-.4h.2zM195.5 10.2c.4-.1-.2-.3 0 0 0 0 .1.1 0 0zM197.1 17.2c-.2-.2.2-.5-.1-.5-.1.3-.2.5-.3.9.3 0 .1-.5.4-.4zM197 14.7c-.2.1-.1-.1-.2-.2.2 0 .2.1.2.2zm.1 1.5s-.2.3 0 .3c0 0 .2-.3 0-.3zM197.1 16c.2.1.3-.3.1-.2 0 0 0 .1-.1.1v.1zm.2 2.7v-.1h-.1v.1h.1zm.2-1.7c0-.1 0-.1-.1-.1 0 .1-.1.2.1.3V17zM197.7 14.4v-.1h-.1v.1h.1zm.6.5c-.1 0-.2.4 0 .4 0 0 .1-.4 0-.4zm0-5.3v-.1c-.1 0 0 .1 0 .1zM198.6 12.4c0 .3-.3.4 0 .6.1-.1.2-.5 0-.6zM198.9 29c.2.1.3.4.4.6-.2-.1-.3-.3-.4-.6zM200.9 29.3c0 .1-.5.1-.4-.1.2.1.3.1.4.1zm1.9.2c-.4 0-.4-.4-.6 0-.3.1-.1-.4-.1-.4.4 0 .6.1.7.4zm-.6.8c0 .2.1.3.2.3.1-.2-.1-.2-.2-.3zM205.2 29.5c-.1.3-.2-.2-.3-.3.3-.1.1.3.3.3zm.6-.1c0 .1-.3.1-.3.3-.2-.1.1-.2 0-.4 0 .1.1.1.3.1zm.5-.1v.2c-.1 0-.1-.1-.2-.1-.1-.1.1-.1.2-.1zm.3.4c-.2 0 0-.3-.1-.4.3 0 .3.3.1.4zm1 .7v-.1h-.1v.1h.1zM207.8 30.1c0 .1-.1.3.1.2 0-.1-.1-.2-.1-.2zm1.1-.2c-.1 0-.1-.1-.1-.3.1 0 .2.2.1.3zm.4 0c-.1 0-.1-.1-.1-.3 0 0 .1.2.1.3zM213 30.2"/><path d="M212.7 50.7c.3.1.6-.1.9.1-.1.5.1.7.2 1-1 .6-1.9 1.2-3 1.7-.1-.2 0-.2-.1-.5-.1.2-.4.4-.5 0-.2.1-.2.4-.4.5 0 .1.1.1.1.1.3.1.2-.1.2-.3.7.4-.4.4-.4.9-.3 0-.1-.3-.4-.2-.4.1 0 .6-.2.7-.3.1-.1-.5-.1-.5-.4.1-.6.5-.9.7-.3.1-.1-.2-.4-.2-.1 0-.1.2-.1.4-.3.1-.1-.3-.3-.4-.2 0-.4.4-.6.1-.3.1.2.2.1.4-.4-.2-.5.1-.9-.1-.1.4.5.1.4.4-.3 0-.4.1-.6 0v-.4c-.4.1-.4.1-.8.1-.1.3-.1.4-.4.1-.2.2.2.2.1.6-1.2.4-4.3.2-4.4 1.9-1.7 2.2-2.7 5.4-6.1 5.5-4.8-1-4.1-8.6-1.2-11 0-.4.1-.6-.1-.9.5-5.2 6.9-4.5 9.1-1.4.6 1.4.6 2.9-.1 4.2 4-.7 7.8-2 10.9-3.5zM193 61.2c2.6-.4 3.5-2.4 4.7-4.3-1.6-.2-2.6-1-3.7-1.7-.6 1.6-1.9 3.7-1 6zm3.1-8.4c-.4.4-.9.9-.9 1.4.9.5 2.6.6 3.7.5.6-1.7 1.9-4.2.1-5.5-1.2 1-3.5 1.5-2.9 3.6zm5.9 3.3c-.1.2.3.2.2.1 0-.1 0-.2-.2-.1zM202.9 55.8c.1.1.4.4.4 0 0 0-.4-.1-.4 0zm.1-.9c-.1.4.4.5.4.2-.1 0-.1-.3-.4-.2zm.9.9s-.1.1 0 0c.1.2.1 0 0 0zm.4-.8h.3c0-.2-.1-.3-.4-.2l.1.2c-.5-.2 0 .3 0 0zm0 0s-.1 0 0 0c0-.1 0-.1 0 0zm1.7-.3c-.5-.4-.8 0-1.3-.1 0 .6 1.1.3 1.3.1zm2.6-.7c-.5-.1-1 0-1.4-.2.1.4-.6.1-.7.5.7-.1 1.4.1 2.1-.3zm.2-.2c0-.2-.1-.2-.3-.2v.2h.3zm.6-.1c-.1 0-.1-.1-.3-.1 0 .1-.1.1-.1.4.3-.1.4-.1.4-.3zm.3-.5c-.5-.1-.4.4-.1.4-.1-.2.1-.2.1-.4zm2.2-.7"/><path d="M220.2 59.2c-.4.2-.9.4-1.2.7.4.1 1-.3 1.2-.7 1.3-.2 2.2-1.1 3.2-1.7 1-.3 1.7-1.3 3-1.7 1.3-1.2 2.7-1.8 4.2-2.7-.1.3-.4.4-.2.7-1 .1-1.9.9-2.2 1.4-2.7 1.3-5.5 3.4-8.2 5-.1 0-.2 0-.2.1.1 0 .2 0 .2-.1 1.2-.6 2.6-1.2 3.2-1.9 1.5-.7 3.2-2.1 5-3.2.5.1.4-.4.9-.4.1.3-.2.2-.1.5-.4 0-.7 0-.7.4-.1 0-.1.1-.1.1-.1.1-.2.1-.4.2 0 .1.1.3.3.2-.1.3-.2.1-.4.1.1.4-.1.5-.3.7-.2 0-.3-.1-.4-.3 0-.2.1-.2.3-.2-.6-.4-.9 1.1-1.7 1.2.1.2.4.2.1.5-.2 0-.5.1-.4-.3-.1 0-.1.3-.3.2-.1.3.4 0 .3.4-.4.2-.3-.2-.7-.1-.1.4.2.2.1.4-.3.1-.2-.2-.5-.1-.1.3.3.1.2.3-.6.6-1.9 1.6-3.2 2.2-.1 0-.1.2-.1.4-.5 0-.7.4-.8.7-3.6 2.7-10.3 3.6-11.7-1.9-.1-1.4.1-1.9.4-3.4 1.2-3 1.5-6.5 4.1-8.4 1.4.1 2.1 1 2.4 2.3-.2.1-.4.1-.7.1-1.4 2.4-2.7 5.6-3.2 8.5-.5.6-.4 1.4-.2 2.4 2.5.4 5.9-1.3 8.1-2.5 0-.1-.1-.2-.1-.4.4-.1.4-.2.9-.1-.1.3-.1.3-.1.4zm-3.1-18.1c-1-.4-1.9-.7-2.2-1.9 1-.7 1.7-2.2 3.5-2 .9 1.6.3 3.4-1.3 3.9zm2.4 19.3c-.2 0-.3.1-.4.3.3 0 .5-.1.4-.3zm1.2-1.9c.1.1-.3.3 0 .3-.1.3-.3-.1-.3-.3h.3zm10.5-5.6h.2c0-.1-.1-.2-.2-.2.2-.3.6-.4.7-.9-3.2 1.4-5.8 3.9-8.9 5.2-.2.1.2.1.2.3-1 .3-1.4 1.2-2.4 1.4 0-.1 0-.1-.1-.1 4-2.8 7.9-5.5 12.5-7.6-.1.2-.5.2-.6.4.1.3.3-.2.6-.1-.8.7-1.3 1.7-2.5 2.1 0-.1.1-.1.1-.3.2-.1.4-.1.4-.2zm-7.9 4.5c-.1 0-.1 0 0 0 0-.1 0-.1 0 0zm.1 0c-.1 0-.1 0 0 0zM225.8 57.8c.1-.2.4-.2.4-.5.5.1-.1.7-.4.5zm1.1-.6c-.1.2-.2.1-.4 0 .1-.2.4-.1.4 0zm1.5-1.5v.3c-.1 0-.4 0-.3-.2.1 0 .1 0 .1-.1h.2zm.8-.9c-.1.1-.1.1-.2.1 0-.1.1-.1.2-.1zm1-.5c-.2.3-.6.4-.9.5 0-.4.4-.5.9-.5zm0-.1c0-.2.1-.2.4-.2-.1.1-.2.1-.4.2zm.6-1.2h-.2c.1-.2.3-.2.4-.4 0 .1.1.1.1.2-.1.1-.2.1-.3.2zm1.5-1.4c-.1 0-.4 0-.4.2.2 0 .4 0 .4-.2z"/><path d="M245.6 16.8c-.3 3.9-2.2 7.6-2.9 11.1 1.7.2 3.9.1 5.7.1 4.3.6 9.6-.3 13.8 2.1-.4.1-.6-.1-.9.1-5.4-1.9-13-1-18.3-1.8-.4.1-.6.4-.7.8 0 .4.7.1.9.4.1-.3.1-.6.3-.6 0 .4.9.6 1.2.1.8.4 1.4.1 2 .1.2.1.1.4.3.5.2 0 .3-.1.3-.1.1 0 .1.1.1.1.2 0 .1-.3-.1-.3 0-.2.3 0 .3.1.2-.1-.1-.3 0-.4.9 1.1 2.4.2 3.4.7.1 0 .1-.1.1-.2.4.3.5-.1 1 .1.2-.2-.4-.2-.4-.5.3.1.7.1.8.1.2.4-.1 0-.1.2.9.6 2.2 0 3.2.4.2-.1.4-.2.4-.4.2.1 0 .6.4.5.2-.1-.1-.2-.1-.4.2.3.6.5.5.9.4 0 .3-.1.3-.4.3.3.6-.2.7.1.2 0 .1-.3.1-.4.6.4 1.8-.1 2.9.4-.7.2-1.5.3-2.4 0-.3.1-.2.6-.6.6-.3.1-.2-.3-.3-.4-.2.5-1.2.1-1.2.6-.4.1-.1-.4-.4-.4 0 .4-.2.2-.7.4 0-.2.1-.2.3-.2 0-.2-.5-.3-.4.1-.2-.1-.1-.4-.5-.3-.3 0-.3.2-.4.4-4-.5-9.1-.4-12.1-.2-.4.1-.1.9-.6.9 0 2.1-1.3 4-1.6 6-1 2.9-2.4 6.6-3.5 9.6-1.4 4.2-4.3 6.9-4.8 11.2 0 1 0 1.9-.3 2.9.1 1.2.1 2.6-.1 3.8.1 3.5.4 7.4 2.7 9.4-3.5-.4-4.3-3.8-4.9-6.8-.1-1.6-.4-3.9-.2-5.7.2 0 .1.3.3.2 0-.6-.1-1.4.1-1.7-.4.2-.2.6-.4.9 0-1.3-.1-2.5.4-3.5-.1-1 .1-2.2-.6-3.1.4-.4.6-1 1-1.4 1.1-8.2 2.7-14.3 4.8-21.9-2.4-.4-5.5 1.7-7.6.3-.4-1.6 0-3.4 1.8-3 1.9-.5 4.3-.5 6.8-.9 1.2-3.6 2.4-8.4 3.7-12.5 1.4-4.2 2.2-9 5.3-11.4 2.8.2 3.2 3.4 2.4 6.1.3.3.3.4.2.9.1 0 .1-.3.1-.4.4.9-.6 1.6-.4 2.3-.1 0-.1-.1-.2-.1-.1.1 0 .6.1.3h.1c-.3 1.3-.2 2.9-1.1 3.6zm-16.7 51.1c-.1 0-.2-.1-.2-.2h.2v.2zm0-5.6c-.1.2-.2.4.1.4-.1 0 .1-.4-.1-.4zm.2 1.9c-.1-.2.3-.3 0-.4 0 .1-.1.1-.1.1 0 .2-.1.3.1.3-.1.4.3 0 0 0zm0 .3c-.1.1-.1.4.1.4 0-.1.1-.4-.1-.4zM229.4 60c-.2 0-.4.1-.4.4.2 0 .4-.2.4-.4zM229.1 59.2c0 .1-.1.2 0 .3 0-.1.1-.2 0-.3zm0 3.6c.1.3-.2.5.1.6-.1-.4.2-.6-.1-.6zm0-4.1c.1.1-.1.4.1.4 0-.2.2-.3-.1-.4zM229.5 64.3c.1.6-.2.9.1 1.3-.1-.4.1-1-.1-1.3zm.1-.9c-.1.1-.1.6 0 .8.1-.2.1-.6 0-.8zm-.1-.7c.1.1 0 .4.1.5.1-.2.2-.6-.1-.5zM229.8 59.7c0 .2-.1.2-.1.4.2.1.2-.4.1-.4zm1.8-14.7c-.1-.5-.3.3 0 0 .1.6-.3.2-.4.4.1.1.2.1.3.1-.4 1.2-.9 2.2-.7 3.2-.3.1-.2.4-.3 1-.1.1-.3.7-.1 1.1-.1-.1-.3-.1-.2.1.1 0 .2 0 .2.1 0 .3-.4.4-.4.6.1.1.3 0 .3.1-.3 0-.4.4-.1.4-.2.1-.6.6-.2.8-.1-.4.5-.5.2-.8 0-.2.1-.1.1-.1.5-3.2 1-5 1.4-7.4.4-2.2 1.3-3.7 1.2-5.8-.3.5-.3 1.6-.6 2.1.4.4-.5.7-.1 1.2-.1.1-.2-.3-.2.1.4.5-.6 1.9-.5 2.4h.2c0 .2 0 .4-.1.4zM231.2 49.2c-.1.6-.3.9-.1 1.4.1-.4.5-.9.1-1.4zm.5-1.8c-.1.4-.4 1.1-.3 1.5 0-.3.5-1 .3-1.5zm.7-3.7c0 .5-.4.6-.1 1.1-.4.3-.2 1.1-.4 1.5.5-.4.2-1 .4-1.5.2-.2.1-.6.1-1.1.4-.1.4-.9.3-1.3-.1.4-.2 1.1-.3 1.3zm.7-2.3c-.2-.1-.2.1-.2.4.2 0 .1-.3.2-.4zm.2-1.3c.1.4-.4.6-.1.9.1-.4.3-.6.1-.9zm0-1.3c.7-2.3 1.2-5.3 1.9-7.3h-.3c-.4 1.9-.9 2.8-1 4.7-.6.7-1 1.9-.6 2.6zM233.5 38.9c0 .2-.1.4 0 .7 0-.3.4-.7 0-.7zm.4-1.3c-.1.3-.4 1-.1 1.2 0-.5.4-.8.1-1.2zm.3 5.3c.3.6-.5 1.3-.1 1.7 1.7-4.5 3.5-9.1 4.8-13.5-.8-.1-1.2.1-1.7.1-1.1 4-1.6 7.9-3 11.7zm-.1-5.5c.2-.4.2-.9.3-1.2-.3.1-.4.9-.3 1.2-.1 0 0 .1 0 0zm.5-2.4v.3c.2 0 .2-.5 0-.3zM234.7 44.8c0 .1-.1.2 0 .2 0 0 .1-.1 0-.2zm.4-12.3c.1.7-.6 1.4-.3 1.9.1-.7.8-1.5.3-1.9zm4 3.9c-.1.1-.2.1-.2-.1.3-.5.8-.9.5-1.7.2-.1.2 0 .4-.1.1-.6.2-1.4.5-1.8-.2-.1-.3-.8.1-.9v.1c-.2 0 .1.4 0 0 .2-.2.2-.9 0-1-.1.1-.4 0-.6.1-.4 2-1.4 3.5-1.6 5.1-.5.9-1 2.2-1.2 3.5l-.2-.2c-.1.4.1.9 0 .9-.2.1 0-.4-.3-.2-.3 1.7-1.1 2.9-1.6 4.5.4-.2.2-.2.6 0 .6-1.8 1.6-3.5 2.2-5.2.2 0-.1.4.1.4 0-.1.1-.2.1-.2.1-.4-.3-.2-.2-.6.2.1.3.2.4 0-.2-.3-.2-.9.2-.6.3-.4-.3-.3-.2-.8.2 0 .1.2.2.2.3-.3-.2-.4 0-.6.1.1.2.1.4.2 0-.3.1-.4.2-.6.2 0 0-.2.2-.4zm-3.6-4.9c-.1.4-.2.7-.3.9.3 0 .6-.8.3-.9zM236.1 28.1c.5-1.4 1.4-3.8 1.4-5 .3-.5.7-1.3.6-1.9-.4.4-.5 1.4-.6 1.9-.5 1.4-1.2 3.6-1.4 5zm1.7-3.9h-.2c-.3 1.5-.9 2.6-1 3.8.5-1.2.8-2.4 1.2-3.8zM237.4 40.1c0 .1-.1.2 0 .2.1-.1.2-.2 0-.2zm.8-18.1c-.1.9-.4 1.2-.5 2.1.3-.4.6-1.4.5-2.1.2-.1.1-.1 0 0 .1 0 .1 0 0 0zm.5 6.8c-.4.1-.6 0-.7.2.4-.1.2.4.7.4.1-.2-.2-.4 0-.4.1.1.1.1.1.4.3.1.9-.1.6-.5 0 .4-.2.1-.5-.1-.1.2.3.4 0 .4.1-.3 0-.4-.2-.4zm-.5-8.4c-.1.1 0 .4-.1.6.2 0 .3-.4.1-.6zm5-8.9c-.1.1-.1.3-.2.3 0-.2-.1-.1-.1 0h-.1c-.1.1-.1.4-.1.6-.1 0-.1.1-.1.1h-.1c.1.4-.4.8-.1 1.2.1-.4.3-.6.2-1.2.1 0 .1-.1.1-.1h.1c0-.1 0-.2.1-.2-1.4 4.9-3.2 10.7-4.7 15.8.8.1 1-.1 1.7 0 1.9-7.2 4.7-13.8 5.1-20.8-.7 1.2-1.3 2.7-1.8 4.3-.2-.5-.4.3 0 0zM238.4 26.4c.1.2-.3.4 0 .4 0 0 .2-.3 0-.4zm.1-7.1c.1.4-.4.7-.1.9 0-.2.6-.7.1-.9zm.1 1.6c.1.4-.3.7-.1.9.1-.3.3-.7.1-.9zm.3-2.4c-.1.3-.2.4-.3.8.3-.2.4-.5.3-.8zM238.7 25.8c.1-.1.1-.2.2-.4-.3 0-.2.3-.2.4-.1.1 0 .1 0 0zM238.7 36.7c.1 0 .1.1.1.1-.1 0-.1-.1-.1-.1zm.2-16.4c0-.1-.1-.2-.2-.1.1.1 0 .2.2.1 0 .1 0 0 0 0zm.1-2.3c.1-.3.4-.7.3-1-.1.3-.2.6-.3 1-.3.1.3.2 0 0zM239.2 24.3c-.2-.1-.1.3-.2.4.2 0 .1-.3.2-.4zm-.2-4.8c.2.1.3-.3.1-.2 0 0 0 .1-.1.1v.1zM239.5 18.3c-.3-.1-.1.3-.2.4.2 0 .2-.2.2-.4zM239.4 16.5c0 .1-.2.4 0 .4 0-.2.3-.4 0-.4zm.1 1.5c.3-.2-.1-.5 0 0-.3.1.3.2 0 0zM239.5 16.3c.1 0 .1 0 0 0 0-.3.2-.2.2-.4-.3-.1-.1.3-.2.4-.1.1 0 .1 0 0zm.1 6c-.1.1-.1.3.1.3 0-.1 0-.3-.1-.3zm.1-6.6c.1-.1.1-.4.2-.5-.2 0-.2.3-.2.5-.1 0 0 .1 0 0zm.1 1c.1.2-.3.4 0 .6 0-.1.3-.6 0-.6zM239.9 15c.2.1.3-.3.1-.3 0 .1 0 .1-.1.1v.2zM240 15.8c.1.1-.1.6.1.6-.1-.3.4-.6-.1-.6zM240.4 15.5c0-.1 0-.2-.1-.1s-.1.2.1.1c-.1.1-.1 0 0 0zm.6 13.6c0-.1.3-.1.2-.4-.2 0-.6-.1-.9.1.4.1-.4 0-.1.6.2 0 .2-.3.6-.1.1-.2.2-.2.2-.2 0 .1.1 0 0 0zM240.7 14.5c-.3.1 0 .4 0 0 .1 0 .1-.1.1-.2.3 0-.1-.4 0 0-.1 0-.1.1-.1.2zm0 15.4c0-.1 0-.3-.1-.2v.1l.1.1zm0-11.1c.2 0 0-.1 0 0-.1 0 0 .1 0 0zm1 9c.4-.3 0-.4-.1-.7.1-.4.5-.7.4-1.3.2-.1.3 0 .5-.2v-.5c-.1 0-.2 0-.2-.1.2-.4.1-1.2.5-1.4 0 .1 0 .1.1.1.1-.4.6-.7.3-1.2-.2.2-.1.6-.3.7-.1-.4.2-.9.4-1.3.1 0 0 .3.1.3.4-1 .6-1.7.9-3-.5.6-.5 2.2-1 2.4 1-3.9 2.5-7.9 3-12.1.1 0 .1-.1 0-.1-.1-.4.1-.4.2-.6-.1-.1-.3-.2-.1-.4-.5 1.2-.6 2.7-.8 4-.1.1-.2-.1-.4-.1 0 .2.1.3.1.5-.4.4-1 1.9-.6 2.6-.2.1-.3-.1-.5.1-.8 4.2-2.8 8.7-3.5 12.5.5.1.6-.3.9-.5 0 .2.1.2.1.3-.2 0 .1.3 0 0zM241.1 17.4c0 .1-.2.4 0 .4-.1-.2.2-.3 0-.4zM241.5 16c0 .1-.2.4 0 .4 0-.1.3-.4 0-.4zm.3-.8c0 .1-.2.6-.1.6.1-.1.3-.6.1-.6zM242 14.4c.1.3-.3.4 0 .6 0-.2.3-.6 0-.6zM242.1 13.8c.1.2-.1.2-.1.4.3.2.3-.4.1-.4zm.2 11.5v.1c-.1 0-.1.1-.1.1h-.1v-.1c.1 0 .1-.1.1-.1h.1zM242.8 24c0-.1-.1 0 0 0 .1.1.1 0 0 0zm.2-12.2c0 .1.1.4-.1.4 0-.1 0-.3.1-.4zm.3 8.6v.4h-.2v-.4h.2zM243.5 10.2c.3-.1-.2-.3 0 0-.1 0 .1.1 0 0zM245.1 17.2c-.2-.2.2-.5-.1-.5-.1.3-.2.5-.3.9.3 0 0-.5.4-.4zM245 14.7c-.2.1-.1-.1-.2-.2.1 0 .2.1.2.2zm.1 1.5s-.2.3 0 .3c0 0 .2-.3 0-.3zM245.1 16c.2.1.3-.3.1-.2 0 0 0 .1-.1.1v.1zm.1 2.7v-.1h-.1v.1h.1zm.3-1.7c0-.1 0-.1-.1-.1 0 .1-.1.2.1.3-.1-.2-.1-.2 0-.2zM245.6 14.4v-.1h-.1v.1h.1zm.6.5c-.1 0-.2.4 0 .4 0 0 .2-.4 0-.4zm.1-5.3v-.1c-.2 0-.1.1 0 .1zM246.5 12.4c0 .3-.3.4 0 .6.1-.1.2-.5 0-.6zM246.9 29c.2.1.3.4.4.6-.3-.1-.4-.3-.4-.6zM248.9 29.3c0 .1-.5.1-.4-.1.2.1.2.1.4.1zM250.8 29.5c-.4 0-.4-.4-.6 0-.3.1-.1-.4-.1-.4.4 0 .6.1.7.4zm-.6.8c0 .2.1.3.2.3.1-.2-.2-.2-.2-.3zM253.2 29.5c-.1.3-.2-.2-.3-.3.3-.1.1.3.3.3zm.5-.1c0 .1-.3.1-.3.3-.2-.1.1-.2 0-.4.1.1.2.1.3.1zm.5-.1v.2c-.1 0-.1-.1-.2-.1 0-.1.1-.1.2-.1zm.4.4c-.2 0 0-.3-.1-.4.2 0 .2.3.1.4zm.9.7v-.1h-.1v.1h.1zM255.7 30.1c0 .1-.1.3.1.2.1-.1 0-.2-.1-.2zm1.2-.2c-.1 0-.1-.1-.1-.3.1 0 .1.2.1.3zm.3 0c-.1 0-.1-.1-.1-.3.1 0 .1.2.1.3zM260.9 30.2"/><path d="M254.7 55c.1 0 .1-.1.1-.1.1-.2-.1-.1-.3-.1 1.9-1.8 4-3.2 6-5 .1.1.1.3.4.3-.4 1.2-.8 2.2-1.9 2.7-.1.3.1.1.3.1-.3.4-.7 1-1.1.9-.2.1.1.1 0 .4-.8.3-1.2.5-1.6 1.3-1 .1-1.8 1.1-2.7 1.6.6.4.9-.8 1.7-.8.1.2-.1.1-.1.4.2 0 .2-.3.6-.2 0-.3-.2-.3-.1-.6.6.3.9-.6 1.5-.6v.5c-.4 0-.7.6-1.1.4 0 .1.1.3.1.3-1.7 1.7-4.2 3-6 4.5-.1 0-.1-.1-.1-.2-2.8 2.6-6.4 4.4-9.1 7.1.2 3.2 1.5 6.8 1 10.4-.3 1.2-1 2.7-1.8 4-1.5 1.3-4 3-6.6 2.1-1.9-1.2-2.9-3.3-3.5-5.7-.1-1-.3-1.7 0-2.6 1.7-4.3 4.9-7.3 8.1-10.5.1-.8-.1-1.5-.1-2.4h.3c-.4-2.5.1-5.1.2-8.5 1.2-2.4 1.7-5 3.8-6.4 1.4.6 3 1.3 2.4 3-.9-.1-1.4.4-1.8.7-2.1 4.2-2.7 7.4-2.2 12.2 2.9-1.9 5.8-4.3 8.7-5.9 0-.1-.1-.1-.1-.3.9-.3 1.1-1.2 2.2-1.2 0-.1-.1-.2 0-.3.3 0 0 .1.1.3.9-.6 1.2-1.4 2.3-1.8.3-.2.3 0 .4 0zm-22.8 19.2c.1.2-.1.2-.1.4.2.1.2-.5.1-.4zm.6-.6c-.1.1-.3 0-.2.2.1 0 .2 0 .2-.2zm-.1-.1c.4 0 .4-.3.4-.6-.2-.1-.4 0-.4.1.5.2 0 .2 0 .5zm.9-1.4c-.4 0-.4.4-.5.6.3 0 .5-.2.5-.6zm4.3 7.9c2.7-2 3.1-7.1 2.1-10.7 0 0 0-.1-.1-.1-2.8 2.9-6.5 6-6.6 11.5 1.4 1.1 3.4-.1 4.6-.7zM234.6 70.2c-.2.5-.7.6-.9 1.2.5-.2 1.1-.7.9-1.2zm.5-.2c0 .1.1.1.1.1-.1-.4.4-.5.4-.9-.4.1-.6.4-.7.8h.2zm.8-1.3h.3v-.3h-.2c0 .1 0 .1-.1.1v.2zm1.6-1.3h-.3c0 .1 0 .2.1.2 0-.1.2-.1.2-.2zm.1-.3c.2 0 .3-.1.4-.2.2 0 .3-.1.4-.3-.2 0-.3.1-.4.3-.2-.1-.3 0-.4.2zm1.1-3.5c.1.6-.1 1.2.1 1.7.1-.5.1-1.2-.1-1.7zm2.8 2c.2-.1.3 0 .3.2.5-.2 1.2-.7 1.3-1.1-.1.1-.2.3-.4.4 0-.4 0-.6-.2-.8-.1.2.1.4-.1.5-.1 0-.1-.4-.2-.1.1.1-.1.5-.2.5 0-.2-.2-.3-.2-.5.2-.1.3-.4.4-.6-.4.1-.4.3-.7.4-.1.6.5.6 0 1.1zm.9-1.5V64h-.1v.1h.1zm2.4-.6c.1.1-.3.3 0 .4 0-.2.3-.1.2-.4h-.2c.1-.3-.4-.6.2-.7.1.1 0 .3-.1.4.3-.1.4-.1.3.2.7-.4 1.2-1 1.9-1.3 0-.3-.4-.2-.5-.4.1-.2.3-.4.6-.4.1.1-.4.3-.1.5.9.1 1.2-.9 2.1-1.1-.1-.3.2-.5.2-.9.4-.1 1.4-.9 1.6-1.2 0 .2-.2.2-.3 0 0-.2.4-.1.3-.3-.6.3-1.2.4-1.4 1 0 .1.2 0 .2.1-.1.1-.2.2-.5.2-.4-.4-1.8.6-2.2 1.2.1 0 .4-.1.4.1-.1 0-.1.1-.3.1-.1-.1-.3-.2-.6-.1-.2.1-.3.9-.5.6 0-.1.2-.1.1-.3-.6.4-2.1 1.1-1.7 1.7-1.2-.4-1.7.7-1.7 1.8.4.1.1-.4.5-.4 0 .2-.1.3.1.4.1-.1.2-.4.5-.4v-.1c.5 0 .5-.6.9-.7zm-1.7.6c-.2.1-.1-.4.1-.2 0 .1-.1.2-.1.2zm.1-.5c.1 0 .2.1.1.4-.1 0-.1-.1-.1-.1v-.3zm.5.1c.2.1.3.3.3.6-.2-.1-.6-.4-.3-.6zm.6-.2v.1c-.2-.1-.2.1-.4-.1 0-.1.2 0 .2-.1.2-.1.2 0 .2.1zm.5-.8c.2-.4.6-.6.9-.9-.1.5-.5.7-.9.9zm1 0c-.1-.2.1-.1.3-.1-.1 0-.2.1-.3.1zM246.8 61v.2h-.1V61h.1zm1.9-.4c0 .2-.4 0-.3.3-.4-.4.4-.7.8-.9 0 .3-.8.3-.5.6zm4.8-3.9c-.9.1-1.4.6-1.9 1.1.3.1.4-.1.6.1.1-.6.6-.9 1.3-1-.7 1.6-2.4 1.8-3.4 3.2 1.1-.6 2.2-1.2 3.1-2.2-.2-.1-.3.4-.4.1.3-.3 1.3-.3 1.2-.8-.1.4-.4.1-.4-.1.2-.2.8-.5.6-.9.4 0 .5-.4.7-.3-.1-.5-.6-.1-.8 0 0 .1.1.1.1.3-.4 0-.6.2-.7.5zM251.4 57.1c-.3.1-.5.1-.5.4.3 0 .4-.3.5-.4zm.1.8c-.2 0-.4.1-.4.4.2-.1.4-.1.4-.4zM252.8 57.6v-.1h-.1v.1h.1zm1.5-2.4c-.2 0-.3.1-.3.1.1 0 .2 0 .3-.1zM256.1 55.3c.1-1.2-1.1 0-1.2.4.5 0 .7-.9 1.2-.4zM255.2 54.5c.3-.1.4-.3.6-.4-.1-.2-.5.2-.6.4-.1.1 0 .1 0 0zM256.5 54.9c0-.3-.2-.3-.4-.4 0 .1-.1.1-.1.1.3.1.2.4.5.3zM256.5 53.5c.4-.2.7-.4.9-.8.1.1.4-.2.1-.3 0 .1-.1.1-.1.3-.3.3-.7.5-.9.8zm.9.9c-.3-.4 0-.4.1-.7-.3.1-.9.4-.7.7.1-.2.3.1.6 0zM257.8 55.3c-.3-.6.6-.8 1.2-.9-.1.5-.6.7-1.2.9zm.9-2.6c-.5.1-.6.4-.9.8.7-.1 1.1-.9 1.3-1.2-.1-.2-.3.1-.4.1v.3zm0-.9c0-.1 0-.1 0 0-.2.1 0 .1 0 0zm.3 2.3c-.1-.4.3-.4.5-.5 0 .3-.3.4-.5.5zM259.5 51.8c-.1.1-.3.1-.2.2.2.1.4-.2.2-.2zm.2-.8c-.3-.1-.4.4-.1.4-.1-.3.1-.3.1-.4zm.1-.1M47.8 138.1c.1.2.2-.4.4-.3-.1.3-.1.6-.5.6.7 1.1-1.2 1.9-.6 3-.1-.1-.3-.1-.3.1s.3.1.3.2c-.4.2-.3.6-.7.9 0 .1.1.1.1.2.4.1.1-.5.5-.4-.1.3-.1.6-.3.8-.1.1-.2-.1-.4.1-.1.4.2.3.2.6-.4-.1-.1.2-.4.1 0 .4.2.1.4.3-.1.4-.1.4-.2.9-.1 0-.3.1-.5.1 0 .3.4.2.3.6-.3.1-.2-.1-.4-.1-.2.3 0 .5-.3.7.2 0 .2-.2.4-.1 0 .4-.5.3-.6.4 0 1.2.1 2-.4 3-.5-.3-.5.4-.6.7.1.3.4-.2.3.1-.1.1-.1.1-.4.1.4.9-.1 2.5-1.2 2.5-.2-.1.3-.4 0-.6-.4 0 .1.4-.4.5.3.1.6.4.9.3.1.5-.4.6-.3 1.1-.3 0-.5 0-.4.3-.4-.1.1.4 0 0 .1 0 .1-.1.2-.1-.1.1-.2.4-.1.7-.5.4-.4 1.4-.9 1.7 0-.1 0-.3-.2-.2-.2.5-.4.9-.5 1.4.7 0 .3 2-.6 2.4v1c-.3-.1-.1.1-.4.2-.1.3.3.1.1.4-.3-.1-.3-.2-.5 0-.1.4.1.5.1.8-.1.1-.1-.1-.4-.1-.1.1-.1.2-.2.4-.1.1.4-.1.2.2-.1.1-.3.1-.4.2.4.8-.4 1.4-.9 1.5.5.6-.2.9-.1 1.4-.4 0-.3.6-.8.6.1.3.1.3-.1.4.4.9.6 1.7.6 2.9.7 1.1.9 2.7 1.7 3.7.1-.1.2-.1.2-.3.4.6 2 1.1 2.7.4 6.8-1.2 10.4-5.5 14.6-9.2-.6 2.4-1.7 4.8-3.8 5.8.1.4.5-.1.8-.1-.1.4-.5.4-.6.6.1.1.4-.1.4-.1.4.4-.6.2-.5.6-.1 0-.1-.3-.4-.2-.3.1.2.2.1.4-.6.5-.7.6-1.3 1.2-.9-.3-1.4 1.2-2.4 1.3-.1.1 0 .1 0 .4-1.5.8-3.2 1.3-4.8 2-.4-.1-.9-.4-1.2 0-4.3.2-6.1-3.3-7.4-6.6-1.7 3.1-3.7 6.6-7.7 7.7-1.2-.1-2.4-.4-2.8-1.4-.1-.1-.1.1-.4.1-.5-.4-.4-1.4-.7-1.9.1-5.8 3-13.8 9.2-12 .1 2.2-.4 3.5-1.7 4.9-.1 0-.1-.2-.4-.1-.3-.7.1-1.9-.2-2.9-.4 0-.4.2-.7.3-1.4 3.4-3.2 6.3-3.2 10.3 3.4-1.9 5.2-5.4 7.4-8.5-.2-1.2-.4-2.7.1-3.2.1-.3-.2-.2-.1-.4 0-.2.1-.3.1-.4-.1-2.4.6-5.2.8-7.6 0-.3.2-.4.3-.5 1.9-11.5 5.5-23.5 10.9-33.4.6-.3 2.2-.8 2.7-.1 3.1.6 2 5.1 1.2 7.3-.1-.3.2-.6 0-.9-.1.4-.2.9-.3 1.3.2.3.1-.4.4-.2-.1.5 0 .9-.4 1.3.5.6-.5 1.7-.1 1.9-.3.1-.2.6-.5.7 0 .1.1.1.2.1-.1.2-.1.5-.4.5.6.4-.4 1 0 1.2-.3 0-.3.6-.6.4-.1.3.3.2.2.5-.3.4-.4 1.2-.9 1.5.1.1.3.1.4.1-.1.2-.4.2-.5.4 0 .1.1.1.1.2-.5 0-.5.2-.5.4zM33.1 170h.1l.1-.1v-.1h-.2c0 .1 0 .1-.1.1.1 0 .1.1.1.1zm1.3-1.7c-.6.1-.6.6-.9 1 .3-.3.7-.6.9-1zM34.5 167.9c-.2-.1-.1.1-.2.2.1 0 .3-.1.2-.2zm.7-8.8c-.1.1-.1.4.1.4.2-.2.1-.3-.1-.4h.1c.1 0 .2-.3 0-.3.1.1 0 .2-.1.3zm.3-1c-.1.1-.1.1-.1.4.3.1.3-.4.1-.4zm0 3.4c.2.1.2-.3.1-.3 0 .1 0 .1-.1.1v.2zm.1-4.6c.2.1.1-.1.1-.3.1-.1.2-.3.2-.4-.4-.1-.3.2-.2.4 0 0-.1.2-.1.3zm0 2.4h.2v-.3h-.1c0 .1 0 .1-.1.1v.2zm.4-.7c-.2 0-.2.2-.3.4.3 0 .3-.2.3-.4zm-.2-3.3v.3c.3.1.4-.3 0-.3zM36.2 160.4c-.1 0-.3 0-.2.2.2 0 .2-.1.2-.2zm-.2-5.5h.1c.1-.1.1-.2-.1-.3 0 .1 0 .1-.1.1.1.1.1.1.1.2zm.2 2.8v-.1h-.1v.1h.1zm0 2c-.2-.1-.2.1-.2.4.2 0 .3-.1.2-.4zm0-3.7c0 .2-.1.3-.1.5.2.1.4-.5.1-.5zm.3 1.1c0-.2-.1-.3-.3-.4-.1.1 0 .1 0 .4h.3zM36.4 158.4c-.1.1-.4.5 0 .6-.1-.3.3-.6 0-.6zM36.5 169c0 .2-.1.2-.1.4.2.2.2-.4.1-.4zm-.1-11.2h.1s0-.1.1-.1v-.1h-.1s0 .1-.1.1v.1zm0 .4c.2.1.2-.3.1-.2 0 0 0 .1-.1.1v.1zm.1 11.6v-.1h-.1v.1h.1zm.5-13c-.2 1.8-.7 3.2-.5 4.9.2-1.7.7-3.6.5-4.9zm-.5-4.3c0 .1-.1.3.1.4 0-.1.1-.5-.1-.4zm0-1.8c0 .1.1.3.1.4.1-.2.1-.4-.1-.4zm.2 1.2c-.2-.1-.2.1-.2.3.2.1.2-.1.2-.3zm-.1 2.9v-.1h-.1v.1h.1zM36.6 155.6c0 .2.1.3.3.3.1-.3-.2-.3-.3-.3zm0 .6v.2c.3.2.3-.3 0-.2zm.2-5.6c0 .1-.1.4.1.4.1 0 .2-.5-.1-.4zM37.1 148.7c-.3.1-.3.4-.2.7.1-.3.3-.4.2-.7zm.2 3.2c-.2-.1-.3.1-.4.2.2 0 .3-.1.4-.2zM37.5 153.8c0 .9-.5 1.9-.4 2.7.3-.8.7-1.9.4-2.7zm-.4-5.9h.2c.1-.1.1-.2-.1-.2l-.1.1v.1zm0 5.9h.2c.1-.1.1-.2-.1-.2l-.1.1v.1zM37.3 159.1c0 .2 0 .4.2.4.1-.3 0-.3-.2-.4zm.1-12.8c0 .1.1.2.3.2 0-.2-.1-.3-.3-.2zm.1 25.9c-.1.1.4.1.3 0-.1-.1-.3-.1-.3 0zm.3-24.1c0 .1 0 .1.1.1.1-.1.4-.1.3-.4-.4 0-.4.1-.6 0 0 .1-.1.1-.1.4.2-.1.2-.1.3-.1zm-.3 3.8v.2c.3.2.3-.4 0-.2zm.3 8.9c0 .4-.3.5-.4.9.4 0 .9-.7.4-.9zm0 3.4c-.3 0-.3.4-.4.6.4 0 .3-.4.4-.6zm0-15.1c-.4 0-.2.5-.2.7.2-.3.1-.4.2-.7zm5.6-14.7c-.1-.1.2 0 .2.1-.3.5-.4 1.3-.9 1.7.2.6-.4 1.7-.7 2.4-.1 1.4-.7 3.1-1.4 4.2.2.1.3-.2.4 0-.1.4-.2.7-.6.8.1.1.3 0 .2.3-.8 2.4-.9 4.7-1.9 6.9.1.1.2.1.3.4-.6.4 0 1.9-.7 2.4.2.4 0 .9-.3 1.2.4.4.1.9 0 1.6h-.3c.1.9-.1 1.7-.1 2.7 1.1-1.6 1.4-3 1.9-4.5.4.1.1-.6.5-.4.1.2-.1.1-.1.4.2-.1.3-.4.4-.6-.1-.2-.4.1-.4-.1s.1-.4.1-.5c.1 0 .1.1.3.1-.3-.6.2-1.6.6-2.1.9-2.8 1.8-5.4 2.9-7.8-.3-.4-.1-1.1.4-1.3-.4-1.1.8-1.8.6-3 .1-.2.4.1.4-.1-.2-.1.1-.4-.1-.6.1-.1.1-.1.3-.1 0-2.4 1.5-4.2 1.6-6.8.7-2.2.9-4.3 1.6-6.5-.4-.4.1-1.1-.3-1.3-.5 1.1-1.4 2.2-1.6 3.4-1.9 1.8-2 5.5-3.3 7.1zM38.3 150.2c-.3 1.1-.4 2.4-.7 3.4.5-.8.7-2.4.7-3.4zm-.5 15.3c0-.1.1-.1.1-.1-.1 0-.1-.1-.3-.1v.2h.2zm.1-19.2c0 .3-.2.4-.2.8.3 0 .6-.7.2-.8zm0 20.5v.2h-.1v-.2h.1zm.2-22.7c0 .1-.1.1-.1.3.3.1.3-.3.1-.3zm-.1 3.5h.2c.1-.1.1-.2-.1-.3 0 .1-.1.1-.1.1v.2zm0 13h.4c-.1-.6.4-.6.3-1.1.2 0-.1-.4 0 0-.4.3-.5.7-.7 1.1zm.3-15.2c-.1-.1-.1-.1-.2-.1 0 .1-.1.5.1.6 0-.3.1-.3.1-.5zm0 3.5c0 .1-.2.1-.1.3.1.1.3-.3.1-.3zM38.3 144.8c0 .1-.2.4 0 .4.2-.1.3-.4 0-.4zm.2-1.5c-.3-.1-.1.2-.3.3.3 0 .3-.1.3-.3zm-.1 6.2c.1.3-.3.3-.1.5.3.1.5-.5.1-.5zm-.1-3c0 .1 0 .4.1.4.1-.1.2-.5-.1-.4zm.3-.4v-.1h-.2v.1h.2zm.1-.5v-.1h-.1v.1h.1zm.1-2.1c-.2 0-.3.4-.1.4 0-.1.1-.2.1-.4zm0 15.3c-.1.1-.3.4 0 .4 0-.2.3-.3 0-.4zm0-9.8v-.1h-.1v.1h.1zm0 8.3c0 .1-.2.4 0 .4-.1-.2.3-.3 0-.4zm0-14.3c0 .1-.1.2-.1.4.2.1.4-.4.1-.4zm.2 4.6c-.1.1-.1.3-.2.4.3.2.5-.4.2-.4zm-.2.9h.2c.1-.1.1-.2-.1-.3 0 .1 0 .1-.1.1v.2zm.2 13.4v-.2h-.2v.2h.2zM39.4 144.4c-.1-.2-.5-.5-.6-.1.3 0 .4.1.6.1zm-.3 6.3c-.1-.1-.1-.1-.3-.1.1-.2.4-.1.3.1zm0-3.3v-.1H39v.1h.1zm-.1 9.2v.2c.2.2.2-.3 0-.2zm.1 1.8c0-.1.1-.1.1-.2-.1 0-.1-.1-.1-.1 0 .1-.1.1-.1.2l.1.1zm.3-15.6c-.2.1-.6.9-.3 1.1.1-.4.4-.9.3-1.1zm-.2 2.9c.1 0 .1 0 0 0-.1-.1.1-.3-.1-.3 0 .1-.1.1-.1.3h.2zm-.1 16.3c-.1.1-.1.3.1.4.1-.1.1-.4-.1-.4zm.1-.6v-.2h-.1v.2h.1zm.2-15h-.3c.1.1-.1.4.1.4.1-.1.3-.1.2-.4zM39.2 144.7c0 .1 0 .3.1.4 0-.1.2-.5-.1-.4zM39.3 157.6v.2c.3.1.3-.4 0-.2zm0 2.9v.2c.3.2.3-.3 0-.2zm.1-18.3v.3c.2.2.2-.3 0-.3zm.3 3.1c-.1 0-.1-.1-.2-.1 0 .1-.1.4.1.4 0-.1.1-.2.1-.3zm-.2-5.8c-.2.5.4-.5 0 0zm.2 4.3c0-.1.1-.4-.1-.4 0 .1-.1.1-.1.4h.2zM39.5 145.1h.2v-.3h-.1c0 .1 0 .1-.1.1v.2zM39.5 157.3c.2.1.2-.3.1-.2 0 0 0 .1-.1.1v.1zm.4-18.6c-.1 0-.2.1-.3.2.2 0 .2 0 .3-.2zm-.2 21.5c-.1.1-.1.3.1.4.1-.1.1-.4-.1-.4zm0-.7c-.1.1-.1.4.2.4 0-.2-.1-.3-.2-.4zm.4-19.3c-.1.1-.1.3-.1.4.2.1.3-.4.1-.4zm-.2.7v.3c.2 0 .2-.5 0-.3zM40.1 142.7c-.1.4-.2.7-.1 1.1.1-.5.5-.9.1-1.1zm.2-1c-.4-.1-.4.4 0 .4v-.4zm0-4v-.2h-.2v.2h.2zm.3.9h-.5v.4c.2-.1.4-.2.5-.4zm-.2 16.5c-.1.2-.5.6-.1.8 0-.3.6-.8.1-.8zm.1 3.6c.1-.1 0-.3-.1-.3.1.3-.4.4-.1.5 0-.2.1-.2.2-.2zM40.3 141.1v.1c.1 0 .1-.1.1-.1.4-.1 0-.4 0 0h-.1zM40.4 139.2c.2 0 0-.1 0 0-.1.1 0 .2 0 0zm.3-3.7c0 .4-.2.5-.3.8.3 0 .7-.7.3-.8zm-.3 22.5c0 .2.3.5.5.4.1-.5-.3-.2-.5-.4zm.4-18.1c-.4-.1-.4.4-.1.4.1-.1.1-.3.1-.4zm.1.8c-.1.1-.1.4-.3.6.4-.1.4-.5.3-.6zm-.2 13.6c-.1.1-.1.3-.1.4.3.1.3-.4.1-.4zm.2 5.1c-.1 0-.1 0 0 0-.1-.1-.2-.1-.3-.1.1.1 0 .3.1.4 0-.2.2-.2.2-.3zm-.2-6.9v.3c.2 0 .2-.5 0-.3zm.3 1.2c.1.3-.3.2-.2.6.3 0 .6-.5.2-.6zm0-16.4c.1.1-.2.4 0 .4.1-.1.4-.4 0-.4zM41.2 139.9c-.2 0-.2.1-.3.4.2 0 .2-.2.3-.4zm-.1-1.5c-.1.2-.3.4 0 .4 0-.2.3-.4 0-.4zM41.4 134.5c-.1-.1-.4.2-.1.3-.1-.2.1-.2.1-.3zm.3 4.1c-.4.1-.4.4-.5.8.3-.2.4-.5.5-.8zm-.3 14.3c-.2 0-.2.1-.2.4.2 0 .2-.3.2-.4zm0 3.5c.1-.2-.1-.3-.2-.3v.3h.2zM41.3 157.7c0-.4.1-.6.4-.8-.1.3-.1.8-.4.8zm.1-2.5c-.1.1-.1.6 0 .6.1-.2.5-.5 0-.6zM41.8 151.5c-.1.4-.4.8-.4 1.3.4-.3.7-1 .4-1.3zm0-17.5c-.1.1-.4.1-.4.3.2.2.4 0 .4-.3zm0 15.5c.1.4-.4.8-.1.9.2 0 .5-.7.1-.9zM42.1 132.1H42c-.1.1-.1.2.1.2v-.2zm.1 18.7c-.3 0-.3.2-.2.4.2 0 .2-.2.2-.4zm0-14.7c.1.2-.3.1-.2.4.2 0 .4-.4.2-.4zm0 18.9v-.2h-.1v.2h.1zM42.4 135.5v-.2h-.2v.2h.2zm.2 13c-.1 0-.1-.1-.3-.1.1.1-.1.1-.1.3.2.1.4 0 .4-.2zm-.1 1.3c.1.3-.4.5-.2.8.1-.3.5-.6.2-.8h.1c0-.4.3-.2.3-.5-.2 0-.5.3-.4.5zM42.4 148.1c-.2.6.5-.5 0 0zm.2-13.3v-.1h-.1v.1h.1zm.1-3.9v-.1h-.1v.1h.1zm0 24.7c-.1 0-.1-.2-.1-.4.3-.1.1.3.1.4zm.2-8.7c-.1.4-.2.6-.4.9.4 0 .8-.8.4-.9zm-.2-13.3h.2s0-.1.1-.1v-.1h-.2s0 .1-.1.1v.1zm.2 18.1c0 .2-.2.2-.1.4.3.2.4-.5.1-.4zM42.9 148.4c-.1.4-.1.2-.1.6.4.2.5-.7.1-.6zM43.3 146.5c-.3 0-.2-.4.1-.4v-.1c-.1 0-.1-.1-.2-.1-.1.2-.2.3-.2.6 0 0 .2.2.3 0zm-.3-14.6c-.1.2.3.3.3.1-.1-.1-.1-.1-.3-.1zm.3 2c0-.1-.1-.2-.2-.1 0 .1 0 .2.1.2 0-.1 0-.1.1-.1zm0 17.6v-.4h-.2v.4h.2zm.2.5c-.3 0-.3.4-.4.6.3-.1.3-.4.4-.6zm-.3-3.9c0 .1-.1.1 0 .2 0-.1.2-.2 0-.2zm.2 2.6c0 .1-.1.1-.1.4.3-.1.3-.4.1-.4zm.1-1.8c-.1-.3-.4.2 0 .1v-.1zm-.2-1.3c-.1.2.3.4.4.2-.2 0-.2-.3-.4-.2zm.7-1.7c-.4.1-.6 1.1-.6 1.4.4-.3.7-1 .6-1.4zm-.3-1.6c-.1.4-.5 1 0 .9-.2-.2.5-.7 0-.9zm-.2 5.4c.1.1-.1.5.1.6.1-.2.3-.6-.1-.6zM43.9 144.1c-.2.5.4-.6 0-.1v.1zm.3 4.9c.1-.2.2-.4.3-.7-.4 0-.2.6-.6.3-.1.3.1.3.3.4zm0-3.6c-.2-.1-.2.1-.3.3.3.1.3-.1.3-.3zm0-2.3c-.1.4-.1.4-.1.7.1 0 .5-.7.1-.7zm0 4.6c.2 0 .5.1.5-.1l-.2-.2c.3 0-.1-.4 0 0-.1.1-.4.1-.3.3zm.5-3.4c-.1 0-.1-.1-.3-.1 0 .3-.5.9 0 .9-.2-.2.2-.4.3-.8zm-.1-2.5c-.3.4-.3.7-.3 1.2.3-.3.4-1 .3-1.2zm0 7.4v-.1h-.2v.1h.2zm-.1-2.7c.1.1 0 .3.2.3 0-.2-.1-.2-.2-.3zm.3-3.1h-.2c0 .4-.3.6.1.7 0-.3.2-.4.1-.7zm-.1-2c-.1.1-.1.4.1.3 0-.2-.1-.2-.1-.3zm0 1.9c.4-.2.3-.9.8-1-.1-.1-.4 0-.4-.1.2-.1.3-.4.1-.6.6-.7.6-1.9 1.1-2.8-.1-.1-.1-.2-.3-.1.1.6-.8 2.1-.8 3-.2.3-.3.8-.5 1.6zm1-5.1c-.1 1-.9 1.9-.6 3 0-1.1.8-2 .6-3zm-.6 7.5c-.1.1-.1.2-.1.4.2.1.2-.4.1-.4zM45.7 143.5c0-.1-.1-.2-.2-.1v.1h.2zM46 141.8c-.1.1-.1.4.1.4.1-.2 0-.3-.1-.4zM46.3 136.2c-.1.4-.2.9-.4 1.2.4-.1.6-1.1.4-1.2zM46.8 136.6c-.2.6-.4.9-.4 1.7.2-.3.5-1.3.4-1.7zm-.4-.5c.4-.3.5-1.1.4-1.4h.1c0-.1.1-.1.1-.1v-.1c-.1-.1-.1.1-.1.3-.3.2-.4.7-.5 1.3zm.2 5c0 .1-.2.1-.1.3.2.1.3-.3.1-.3zm.2-2.3v-.1h-.2v.1h.2zm.1-.7c0-.1 0-.2-.1-.2 0 .2-.1.3.1.2-.1 0-.1 0 0 0zm.3-2.1c-.2 0-.4 0-.4.2.3.1.3-.1.4-.2zm-.4-2v.2c.1 0 .1-.1.1-.2.4-.2.1-.4.3-.8-.4 0-.2.5-.3.8h-.1zM47.3 132.9c0 .1-.1.1-.1.1.3.1.4-.6.1-.6 0 0-.1.1-.2.1-.1.2.1.2.2.4zm.4.5c-.3.7-.4 1.7-.6 2.3.4-.6.8-1.5.6-2.3zm.4-3.9c-.1.9-.7 1.7-.4 2.5-.1-.6.7-2 .4-2.5zM47.8 133.1c.3-.3.6-.9.4-1.4.2-.1.2-.4.3-.6-.4-.1-.3.3-.3.6-.3.4-.4 1-.4 1.4zm.3 4.3v.2h-.2c.1-.1.1-.2.2-.2zm0-8.3c-.1.2.3.2.2 0 0 0-.2-.1-.2 0zm.1 6.4c.1.2-.1.2-.1.5.3.1.5-.6.1-.5zm.1-7.2c0 .2 0 .4-.1.5.3.1.4-.5.1-.5zm.3-1.3c-.1.3-.1.7-.2 1.2.2-.3.5-1.1.2-1.2zM48.7 129.9v-.2h-.1v.2h.1zm0 6.2v.2h-.1v-.2h.1zm.3-12.2c-.1 1.2-.2 1.9-.4 3 .4-.9.7-2.2.4-3zM48.9 173.1c0-.2-.1-.2-.3-.2v.2h.3zm-.2-39.4c-.1.1-.1.4.1.4 0-.1.2-.4-.1-.4zm.2-5.4c0 .2-.2.2-.1.4.3 0 .5-.4.1-.4zM49.1 133.5c.1-.2-.3-.3-.3-.1.1 0 .1 0 .1.1h.2zm0-6.4c.1.4-.1.6-.1 1 .2 0 .5-1 .1-1zm0-4.1v-.2H49v.2h.1zm-.1.2v.3c.2.2.2-.3 0-.3zm.1 8v-.2H49v.2h.1zm.5 41.6c-.2 0-.6-.1-.5.3.1-.2.5 0 .5-.3zm-.3-47.1c.1.2-.2.6.1.6-.1-.2.3-.5-.1-.6zm.3-1.2h-.2c0 .1.1.3.1.4.1-.2.2-.2.1-.4zm0 3.8v-.1h-.1v.1h.1zm.4-2v-.1h-.1v.1h.1zm.8 45.9c-.4-.4-1 .2-.9.5.4-.1.7-.2.9-.5zm.1-1.2c-.3.1-.4.2-.6.4.3 0 .5-.1.6-.4zM51.7 170.9c-.1-.2-.7 0-.4.1 0-.2.3.2.4-.1zm.4-.4c-.2 0-.3.1-.4.2.2.1.3-.1.4-.2zM52.9 170.1c-.2 0-.3.1-.4.2.4.1.4-.1.4-.2zM54.5 170v.1c-.1 0-.1 0-.1.1h-.1v-.1c.1 0 .1-.1.1-.1h.1zm.8-2.9c-.3.1-.4.3-.6.5.1.1.5-.2.6-.5zm-.2.9c-.1.2-.5.3-.3.5.2 0 .5-.5.3-.5zm.8-1.6c-.3.1-.5.3-.5.6.2-.1.4-.3.5-.6z"/><path d="M64.5 165.7c-.9 2.2-3 3.2-4.5 4.6-1.4.3-3 1.2-4.3.3-.8 1.1-.9 2.4-1.2 4 3 2.1 7.3-.6 10.3-1.6 1.7-.9 3.5-1.9 5.3-2.7.2-.3.6-.4.9-.6.2.6-1.3 1-1.8 1.5 0 .1.1.1.3.1-2 1.8-4.2 2.9-6.9 3.8.5 0 1.6 0 2.2-.4-.1.4-.4.4-.6.6 0 .1.4-.1.3.2-.9.3-1.7 1.2-2.1.9-.4.1-.1.3-.2.5-1.9.9-3.2 1.4-5.8 1.4-3.5-.7-3.9-4.1-3.5-7.2 1.3-4 4.1-8.4 8.1-10.3.7-.4 1.6-.2 2.3-.2.6.1.7.5 1.2.6.1.9.7 1.3 1.2 1.8-.3 1.3-.1 2.1-1.2 2.7zm-3.8-1.6c-1.2.9-2.3 1.9-3.2 3.2 2.4-1.2 4.5-2.7 5.9-4.8-1.2.5-2.7.9-3.4 1.9.3 0 .5-.6.7-.3zm-1.3 12.1c.4-.2.6-.4.9 0 .1-.1-.1-.4.1-.4.5 0 1.4-.4 1.8-.6-1.1.6-2.4.2-3.3.6.3.1.6-.1.5.4zm11.8-6.6M153.8 117.5c.1.3.5.2.5.5.2 0 .2-.2.1-.4.6.2.1.3.3.6 2.1 1.2 3.2 3.7 3.5 5.9.1.7.5 1.3.6 2v2.2c-.1 4.2-1.7 8.4-3 12.2-.2 0-.2-.2-.2-.4.2 0 .1-.2.2-.3-.2 0-.1.2-.2.3-1.7 2.8-3.2 6-5.5 8.2.1.4-.5.7-.1.9-.5.5-.9 1-1.7 1.1 0 .4.4-.4.3.2-.1 0-.1.1-.2.1 0-.1-.1-.1-.1 0-.3 0-.4.2-.5.4-.2.1-.4.2-.4.5-.5 0-.6.4-.8.7-.2 0-.4.3 0 .2-.1.2-.4.7-.6.4.2-.1 0-.2 0 0-1 .6-1.7 1.5-2.7 2.2 0 .4.4-.3.4.1-.9.3-2.1.8-2.6 1.6-.1-.1-.1 0-.1.1-.5-.2-.5.6-.9.2-.1.3 0 .4.3.4-1.2.2-2.8 1.1-3.2 2-.2.4-.4-.1-.5.2 0 .1.2.1.3.1 0 .9-.9.2-1.2.9-.2-.3-.4-.3-.7-.3-.1.5.2.1.3.3.1.5-.7.1-.6.4.8.3 1.6-.4 1.9-.6-.3 1-1.3.9-2.8 1 0-.4.4-.3.6-.4-.2-.3-.1-.5-.2-.7-.4 0 0 .2-.4.5-.4-.2-.3 0-.6-.2 0 .1 0 .8-.5.4.1-.2.3-.2.3-.4-.3 0-.4-.1-.6.2 0 .3.2.4.3.2v.6c-.3.2-.8-.3-.9.4-.2 0-.1-.3-.3-.3 0 .1 0 .5-.3.6-.2 0-.4 0-.4.1-.1 0-.3.1-.3-.1-.1-.6.4 0 .7-.3-.1-.3-.6-.1-.4-.5-.1.1-.2.3-.6.2 0 .4 0 .8-.3 1-.4.1-.4-.2-.5-.4-.3.1-.4.2-.5.5-.2.1 0 .1 0 0 .3.1.5-.4.5.1-.9-.1-.6.9-1.2 1-.2-.4.4-.1.2-.5-.6-.1-.6.5-1.2.4 0-.2.1-.3.1-.4h-.3c-.2.2-.1.3-.3.7-.4-.3-1 .1-1.2-.1-.1.4.4.1.2.5-.4.1-.3-.3-.6-.4-.5.1.4.4-.1.7-.4.2-.2-.4-.6-.3-.2 0 0 .5-.2.6-.4-.2-.3-.8-.9-.7 0 .5.5.4.6.8-.3 0-.8.2-1.3.4.4 0 .4.5 1 .4-.1.2-1 .2-.5.5-.8 0-1.6.4-2.6.6.1-.5.9-.2.9-.8.4-.1.7.3 1.1 0-.3-.1-.5-.6.1-.5-.1-.6-.6 0-.9-.5-.4.2.4.4 0 .6-.3.2-.4.1-.7-.1-.2.3-.9.9-1.3.5.1-.2.4 0 .5-.3-.1-.3-.6 0-.5.3-.3 0-.4.2-.7.1-.1-.3.4-.5.1-.6.4-.3 1.1-.2 1.3.1 0-.3-.2-.4-.2-.6-.4.2-.9.2-1.2.3 0 0-.5.5-.2.8 0 .2-.2.1-.3.2 0-.1-.3-.1-.5-.1-.1-.4.4-.3.1-.6-.5.3-.2.8-.2 1.4.4 0 .3-.4.7-.3-.1.7.4.3.6.5-1.3.8-2.1.6-3.5.6.8.5-.9.2-1.3.6 0-.4-.3-.7-.9-.8-.5.1-.7.5-1.2.6.1.1.1.2 0 .3.4.4 1.2-.3 1.5.1-.5.5-1.7.4-2 .2-.2 0-.1.2-.1.4-1 .4-2.3.4-3.4.6-.3.2-.4.7-.5 1.1-.4.2-.2-.4-.7-.2-.1 0-.1.2-.1.3-.1 0-.1.1-.1.2s.1 0 .1-.2c.7-.2-.3 1.2-.6 1.2 0 .2.3.1.2.4h-.3c.1.8-.4.7-.1 1.6-.3.2-.2 0-.5 0-.1 1.1-.2 2.1-1 3.1 0 .3 0 .5.1.6-.1.6-.5 1.4-.3 2-1.5 5.3-2.6 9.8-4.4 15.2-.2.1-.4.2-.6.4.2.6-.3 1.2-.2 1.9-.3-.3-.4 0-.5.2 0 .2.1.3.4.3-.9 1.3 0 3.3-1 4.6-.4-.2-.3 0-.7 0v-.4c-.2.1-.3.2-.3.4-.2-.1-.3-.4-.4-.6-.3.5-.4-.4-1-.3 0-.2-.2-.3-.1-.7-.6-.1-1-.5-1.4-.8.3-.5.1-.7-.3-.7-.2-.6.1-.7.3-1 .1-.3-.1-.3-.1-.6 1.6-3.4 2-6.8 3.3-10.5.3-3.1 2-4.7 1.8-7.4 1.3-3.2 1.7-6.7 3.1-9.8-1.1-.1-3.9.1-4.2-.8-1.2.5-1.6-.8-2.7-.9-.7-.9-1.7-1.3-2.1-2.4-.4-2.6-.7-5.9.8-7.5.4.1.6 0 1.1.1-.3.9-.6 1.3-1.2 2 .2.3-.2.5.2.7 0 3.1 3.8 3.1 6.2 4 .8-.3 1.5.2 2.3.2.1 0 .1-.1.2-.1 1.2-3.6 1.4-8 3.1-11.7 0-.2-.1-.3-.2-.4.9-3.5 1-8.6-.1-12.7-.7-.8-1.2-1.7-1.9-2.5-.2-.1-.3.1-.5.1-.8-.9-1.1-2.2-2.2-2.7v-.5c-.2-.2-.3.1-.7 0-1-2.3-.1-4.3 1.2-5.9 3.8-3 8.4-5.9 13.2-7.5-.2.6-.8 0-1 .6h-.2c0 .2.2.1.2 0 1.2-.3 2.3-.7 3.2-1.2-1 0-1.6.9-2.2.6 1.5-.6 2.9-1.3 4.6-1.7 0 .2-.1.3-.1.4 3.4-.8 6.1-1.9 9.2-2.6 5.6-1.2 11.7-2.1 17.5-2 .1-.1.1-.1.1-.3 2.3.4 4.5.7 6.3 1.4-.2.2 0 .3.1.6.5-.3 1.3.1.9.3.5-.5.4-.5.2-.5 0-.2-.1 0 0 0zm-58.3 40.4v.3c-.1-.1-.1 0-.1.1h-.2v-.3c.1.1.1 0 .1-.1h.2zM97.7 168.6c.1-.1.2 0 .2-.2 0 .1-.2 0-.2.2zm.7.2c.2-.2 0-.4-.2-.5 0 .1-.1.2-.1.3.1 0 .2.2.3.2zm.9.4c-.1.2.1.3.3.3 0-.3-.2-.2-.3-.3zm.3-3.4c-.1.5 1.1.5 1.2.1-.6.2-.5-.1-1.2-.1zm1.7 3c-.6.4-1-.1-1.4.1.3 0 .4.2.2.4.2-.4 1 .1 1.2-.5zM101.1 165.9c-.2.3.4.3.3.1-.1 0-.1-.1-.3-.1zm1.3 3.1c.2.2.2.3 0 .5.5.2 1-.2.6-.5-.2.4-.3-.4-.6-.3-.3.4-.8.5-1.2.6.5.2 1.2.1 1.2-.3zM102.5 166.1c.2 0 .4.1.4-.1-.1 0-.3 0-.4.1zm.3 1.3c.4.1.3-.1.6.1.2-.3-.6-.2-.6-.1-.5-.1 0 .3 0 0zM103.3 176.1c-.6.6.5-.3 0-.2v.2zM103.6 174.9s-.3.4 0 .4c-.1-.2.4-.4 0-.4zm.5-2c.1.2-.4.4 0 .5 0-.1.3-.5 0-.5zm3.4-13.2c.3-.2.5-1 .1-1.1.2-.5.4-.4 1-.3 1.9-6.2 4.6-11.7 6.8-17.7-.2 0-.5.1-.5-.1.6-2.8 3.2-4.5 3.6-7.9.6-.4 1.2-.8 1.9-.7.9.9 2.5.3 2.7 1.8-1.3 3.8-3.3 7-4.6 10.8-1.2.6-.9 2.2-1.9 2.7.2.1.4-.4.4 0s-.4.4-.4.8c-.1 0-.1.1-.2.1-.1.1.1.2 0 0 .1.1.2 0 .2-.1.1 0 .2 0 .2.1-.2.4-.3.3-.6.4-.1.3-.2.6-.2 1-.2 0 0 .1 0 0 .1.1.3 0 .3.2-.4.1-.3.6-.5.8-.1-.1-.2-.4-.7-.3-.1.2-.1.7-.2.9.5.2 0-.6.5-.6.1.4-.2.3-.2.6h.3c-.2.6-.4 1.2-1 1.2.1.5 0 .8-.3.9-.4-.1-.2.4-.4.5.3-.1.6-.1.6.2h-.6c.3.5-.5.6-.1 1.2-1.1 1.2-1.3 2.2-1.7 4-.7.1-.4 1.2-1 1.5.5.4-.1.5-.3.9.2 0 .3-.2.3 0 .1.5-.4.3-.5.6.3 0 .4.1.4.4h-.5c.1.4.2.9-.2 1.1 0-.2 0-.4-.1-.4-.4.8.2 1-.5 1.3.4-.1.2.5.6.4 0-.2 0-.3.1-.4 1.2.6 2.8-.5 4.6-.6.1 0 .1-.2.2-.2 6.6-1.2 13.6-4 20-6.8.7-.6 1.5-1.1 2.7-1.2.1-.2.3-.4.4-.6.2.1.3.1.5.1 9.1-6.3 17.2-14.1 18.9-27.1.4-6.6-5-9.6-11.1-9.5-1 .2-1.7 0-2.7 0-.7-.1-1.3.4-2.1.1-.3-.1-.2.3-.6.2-.5-.2-1 .1-1.4.3-.1-.2-.2-.3-.4-.3-1.2.4-3 .8-4.2.6-.3.2-.6.5-1.1.3 0 .6-1.2.1-1.2.6-.7-.3-1.2.5-2.3.3-4.5 1.2-9.1 2.7-13.2 4.7-.3-.2-.7.2-1.1.2-1.6 1.2-3.6 1.9-5.6 2.9-1.4 1.2-3.3 2.1-4.8 3.3-.1.5-.5.8-.7 1.1-.4.2-.9.4-1 .9 1.7 1.3 3.2 3.3 4.6 5.2-.1.6.3 1.5.6 2-.1.2-.2.2-.5.3.7 1.3 1.4 3.3.5 4.8.5.8-.3.9.1 1.5-.3-.1-.2-.6-.6-.5.1.7.5.5.6.9-.4 2.3 0 6-1.2 8 .2 0 .4 0 .4.1-.1.2-.3.3-.2.8-.1-.1-.3-.2-.5-.2 0 .2-.2.7.1.6 0-.4.4-.3.5-.1-.8.3-1.2 1.2-1 1.8-.1 0-.2.3 0 .7zm-1.2 7.6c.2 0 0-.1 0 0-.2.1 0 .1 0 0zM106.9 161.7c.6-.5.5-1 .7-1.6-.4-.1-.3.8-.6.2-.2.6.2.7-.1 1.4zM107.6 166.9c-.1.2.3.5.4.2-.2 0-.2-.2-.4-.2zm.5 2.7c.1.4-.3.4-.4.6.3 0 1-.5.4-.6zm.2-12.2c0 .2-.2.2-.2.4-.2-.1-.1-.3-.1-.5.1.1.2.1.3.1zM108.2 168.6c.1 0 .5.3.5 0-.1-.1-.5-.3-.5 0zM108.9 168.7c0 .2-.5 0-.4.3.2.4.7-.2.4-.3zM118.6 164.1h.3c-3.2.1-6.5 1.5-9.8 2 .2.4.2.3 0 .8.2.2.8.1.7-.4.2 0 .1.4.3.4 2.3-.3 4.3-1.3 6.3-1.3.1-.2 0-.4.2-.4 0 .5.6-.3 1.2 0 0-.1.1-.2.1-.3 2-.1 3.2-1.2 4.8-1.2.2-.6 1.7-.8 2.6-.9 0-.3-.2-.4 0-.4 1 0 1.6-.3 2.4-1 0 .1-.1.2-.1.3-.2 0 0 .1 0 0 2.6-1.2 5.2-2.1 7.3-3.5 1-.5 1.8-1.1 2.7-1.5-.1-.1-.3-.1-.4-.2.5-.1.4-.4.6 0 .1-.2.4-.6.2-.7-5.7 3.4-12.2 6-18.6 7.7-.2.2.3.4-.2.4 0-.3-.7-.1-.6.2zm-8.9 4c.2.5-.4.2-.5.5.4 0-.2.1-.1.3.7-.2.8-.2 1.2-.6.2.5.8-.2.8.4.7 0 .7-.4 1.4-.4-.2-.6.5-.8 0-.9 0 .2-.3 0-.4.2.2.1-.3.1 0 .5-.3-.2-.6.3-.8 0 .1-.2.5-.2.3-.6-.2-.1-.2.1-.3.2 0-.3 0-.6.1-.7-.2 0-.2.2-.4.2 0-.1-.1-.2-.2-.2-.1.4.4.3.4.7-.2.3-.8.4-1.5.4zm-.5-8.1c-.1 0 0 .1 0 0 .1 0 .1-.2.1-.3.4-.1-.1-.6 0 0-.1 0-.1.2-.1.3zm.5 2.1c.1-.2.4-.8 0-.9-.3.4-.2.5 0 .9-.4.2.4.4 0 0zm-.1-3.1c.1-.1 0-.2 0 0-.2.1 0 .1 0 0zm.2 3.8c0 .2-.3.3-.2.6.3 0 .4-.6.2-.6zm-.2 4.5c0 .3.1.6.3.6-.1-.3 0-.6-.3-.6zM110.4 169.2c.1-.1.2 0 .2-.2 0 .1-.2 0-.2.2zm.2-1.9c.2 0 0-.1 0 0-.5-.1.2.5 0 0zm.3-3.8c-.1 0-.1 0 0 0-.3.1-.2-.1-.3-.3.2 0 .3.1.3.3zm.2-5.6c.2 0 .2.2.3 0 0-.1-.2-.1-.3 0zm0 8.1c.1-.2.2-.3.5-.2-.1.1-.3.2-.5.2zM111.9 160.1c.3 0 0 .6-.3.5v-.5c.1 0 .2.1.3 0zm.2 7.2v-.2h-.2v.2h.2zM112.7 123.1c-.2 0 0 .1 0 0 .1 0 .1-.1.1-.2.7.2.2-.3 0 0-.1 0-.1.1-.1.2zm.2 42.8c0 .1-.1.1-.2.1 0-.1.2-.1.2-.1zm-.1 1.1c.1 0 .1 0 0 0 .2-.1.3-.3.3-.5-.4-.1-.2.3-.3.5-.2 0 0 .1 0 0zm1.7 1.3c-.5-.3-.9-.2-1.4 0-.1-.6 1.1 0 .9-.7.2.1.6.2.5.7zM114 155v-.2c.1-.1.2-.1.1-.2h.2c-.1.2-.1.5-.3.4zm.8 12.1c0-.2.2-.1.2-.2-.2-.2-.9 0-1.1.3.2.1.8.4 1.1.6.2-.5.6 0 1.1-.1-.1-.4.5-.1.5-.5-.6 0-.3-.7-.9-.7-.3.1-.1.9-.5 1 .2-.5-.5-.1-.4-.4zm-.8-.8c0 .4.5.4.5.1-.1-.1-.2-.2-.5-.1zm.2-13c.1 0 .1-.2 0-.2v.2zm.7 12.8c0 .2-.1.6.2.5.1-.3 0-.4-.2-.5zm.8-15.9c.2-.3-.4-.4-.3-.2 0 0 .1.1.1.2h.2zm.1 16.1c.1 0 .5.3.5 0-.1 0-.1-.2-.1-.3-.2 0-.2.1-.4.1v-.2h-.3c-.1.3.2.2.3.2v.2zm-.2-15.2c0-.1-.1 0 0 0zm.5 16c-.2.4-.4-.1-.3-.4.2.1.1.4.3.4zM116.7 166.3c.1.2-.5-.1-.4.3.3.2.5-.3.5 0 .2.5-.3.4-.2.7.7.3.7-.1 1.2-.1-.1-.4.2-.3.2-.5-.2.1.1-.5-.3-.3-.3-.1.1.5-.3.5-.2-.1.1-.7-.2-.8-.1.3.1.4-.4.5.2-.2.1-.3-.1-.3zm.4 0c.1-.3-.1-.4.2-.6-.4-.4-.5.2-.6.4.2 0 .3.1.4.2zm.1-1.4c0 .1-.2.1-.3.1 0-.1.2-.1.3-.1zm.6-43.9c.1 0 .2 0 .2-.1-.1 0-.2 0-.2.1zM118.3 122.1c-.2 0-.3.1-.4.2.2 0 .3-.1.4-.2zm-.4 43.3c.1 0 .2 0 .2-.1 0 0-.2 0-.2.1zm1.9-45.2c-.7 0-1.2.2-1.8.6.5.1 1.3-.4 1.8-.6zM119 166.3c0 .2-.2.2-.5.2-.1-.3.3-.2.4-.4 0 .1 0 .2.1.2zM118.9 122.1v-.2h-.3v.2h.3zm.1 41.9c-.1-.1-.2 0-.2.1.1 0 .2-.1.2-.1zm.7 2.6c-.1 0-.3.1-.2.3-.4-.8 1.1-.4 1.3-.4-.1.5-.8-.1-.7.4-.1-.1-.1-.1-.1-.3-.5.1.2.6-.5.5.1-.2.2-.3.2-.5zm1-45.4c-.3.2-.8.3-1 .6.4-.1 1 0 1-.6zm-.5-1.4c.1-.2.2-.3.4-.2-.1.1-.2.2-.4.2zm.5-.1c1.1-.6 2.3-1.1 3.7-1.2-.8.5-2.3 1-3.7 1.2zM121.5 121.1c-.2 0-.4 0-.4.3.1.1.5.1.4-.3zm.2 0c.1 0 .2 0 .2-.1-.1 0-.2 0-.2.1zm.8-.1v-.2h-.2v.2h.2zm0 43.9c.1 0 .2 0 .2-.1 0 0-.2 0-.2.1zm.5-44.3v.3c.2 0 .2-.1.2-.3.6.1.9-.4 1.1 0 .1-.1.1-.2.1-.4-.4.1-.5-.6-.7-.2.1.1.2.1.2.3-.1.2-.7 0-.7.3h-.2zm0 44.1c.1 0 .3 0 .3-.1-.1 0-.3-.1-.3.1zm1-43.3c-.2 0-.5 0-.6.2.2-.1.7.2.6-.2zm-.4 43.3c.1-.1.2 0 .2-.1 0 0-.2 0-.2.1zm.4.3c.5.4.7-.4 1.3-.3 0 .5-.5.2-.2.7-.5 0-.7.3-1.2.2.4-.3-.3-.4.1-.6zm.7-45.4c-.2 0-.4 0-.5.2.2 0 .6.1.5-.2zm0 1.4c0 .2-.5 0-.5.4.3 0 .8-.2.5-.4zM124.6 120.4c.4-.2.2-.3.4.1 0-.5.3-.5.5-.7-.2 0-.2-.1-.5-.1.1.3-.1.4-.4.3v.4zm.3-1.8c-.4-.7 1.5-.7 1.7-.7-.4.4-1.3.2-1.7.7zm.6.8c-.2 0-.4 0-.5.3.3-.2.4-.2.5-.3zm0 44c0-.2.2-.2.3-.3-.2 0-.2-.1-.4 0 0 .1 0 .3.1.3zm.1 1.4c.1-.2.2-.3.4-.2 0 .2-.1.2-.4.2zm.7-45.5c-.2-.2-.5-.1-.6.1.2-.1.6.1.6-.1zm0 .3h-.6v.2c.3-.1.7.2.6-.2zM126.4 120.6c-.2.1-.6-.1-.5.3.3 0 .5-.1.5-.3zm1.4 43.2c-.3.6-1.1.4-1.3.8-.1.3.7-.2.5.3-.6.1-.6-.3-1-.3.3-.2.9-.7 1.8-.8zm-1.3-.9c-.3-.2-.7.2-.4.3.1-.2.4 0 .4-.3zm0-42.9h-.2c0 .2-.1.2-.2.3.2 0 .5 0 .4-.3zm-.1-.4c.1-.1.2.1.2 0s-.2-.1-.2 0zm.3.4c.5-.4 1.1-.6 1.6-.6.1-.7 1.2-.1 1.2-.6-.1-.1-.4 0-.3-.3.4-.1.7 0 1 .1 0-.4.5-.2.4-.6-1.6.4-2.6.5-3.9 1.1.3.1.1.6 0 .9zm1.6.2c-.5-.4-1.1.2-1.5.3.7 0 1.3-.1 1.5-.3zm-1.4 42.8v.4c.3.1.3-.6 0-.4zm.7-.5c-.3 0-.4.2-.6.4.3-.1.6-.1.6-.4zm-.5-44.8c0-.2.3-.2.5-.1 0 .2-.3.1-.5.1zm0 1.7v-.3c.2 0 .2.1.5.1 0 .2-.2.2-.5.2zm0 .5l.4.1c.3-.3-.4-.3-.4-.1zm.5-2.3c.2-.3.7-.3 1.3-.3-.4.2-.8.3-1.3.3zm.8 46.2c-.2 0-.6.2-.4-.2.1-.1.2-.1.4-.1v.3zm0-44.9c0 .1-.2 0-.2.2.2-.1.2 0 .2-.2zM128.7 119.5c-.1-.1-.2 0 0 0 .1.1.1 0 0 0zm14-3.5c-2.9.6-6.1.7-9.1 1.4-1.1.3-1.8.1-2.6.7.2 0 .2-.2.4-.1-.2.4.4.8.8.9.2 0 .6-.4.8-.1v.3c-1.2-.1-2.1.8-3 .4-.1.5-1 .2-1.2.6 1.5.1 2.7-.6 4.2-.8.1-.2.2-.7 0-.8-.2-.1-.5.2-1.1.2.1-.4-.2-.2-.3-.6.5 0 1.1 0 1.2-.4.1.2.1.2 0 .4.3 0 .5 0 .6.1 0-.3-.4-.3-.4-.6.3 0 .4.1.5.1v-.3c.2.1.4.3.6.5-.4-.2 0 .5-.3.4h-.5c-.1.4.2.3.3.4 0 .2-.2.4-.3.6.7-.2 1-.1 1.7-.4.9-.2 1.8-.4 3-.3.1-.9 1.1-.4 1.2-1 .2.3.2.8.7.6v-.6c-.2-.2-.6-.3-.9-.3 0 .6-1 .7-1.2.6.4-.1-.1-.6 0 0-.3-.1-.3-.4-.6-.3-.2.5.5 0 .3.5-1-.2-1.1.1-1.9.1.1.5-.3.3-.5.5-.1-.2-.1 0 0 0 0 .1-.1.1-.1.2-.2-.3-.7-.3-1-.6.4-.1.4-.6.6-.8.3.3.5-.1 1 0 0 .1.1.2.2.2.4-.2.4-.6 1-.3 0 .1-.1.1-.1.2.3 0 .6 0 .7-.2.3.1.8.2.9-.1-.2 0-.8-.2-.9.1-.4-.1-.2-.1-.6 0-.2-.2-.1-.3.1-.4 1.2 0 2.1-.2 3.3-.2-.2-.1-.3-.2-.2-.3.5 0 .4.2.6-.1-.1.5.4.3.3.7.3-.6.9-.5 1.4-.6-.1 0 0-.1-.1-.2.1 0 .1.1.3.1.6.3 1.3.3 1.8-.1.3.4 1 .2 1.1.5.1-.3.4-.4.6-.6 2.3.4 5.1.4 6.9 1.1 0 .1.1-.1 0 0v-.2c-2.5-1.2-6.6-1.2-9.8-1-.1.1-.2.1-.2.2-.2.1-.1-.3-.2-.3zm-13.8 46.6c0-.1.1-.1.1-.2-.1 0-.1-.1-.2-.1 0 .1-.1.1-.1.2.1.1.1.1.2.1zm1-45.5c-.2.2-.6.3-1 .3.2-.3.6-.3 1-.3zM129.4 164c0 .1-.1-.1-.2 0 0-.2.2-.2.2 0zm.5-44.7c-.3 0-.6 0-.6.4.3-.2.5-.2.6-.4zm0 44.7c-.4.1-.4-.2-.3-.4.2 0 .3.1.3.4zm1.7-2c.6.1.8-.6 1.2-.2-.3.5-1.5.3-1.8 1.1-.6-.1-.9.3-1.4.3.3-.7 1.4-.4 1.6-1.1.2 0 .4.1.4-.1zM130.2 117.1c-.2-.4 1-.5 1.5-.6-.2.6-1.1.3-1.5.6zm.5 46.1c.2-.1.4-.2.7-.2-.2.2-.6.5-.7.2zm.5-44.4v-.3c-.3-.1-.6.4-.3.6.1-.2.2-.2.3-.3.1.5.6 0 0 0zM131.9 116.8c-.1-.4.3-.3.5-.3 0 .2-.2.3-.5.3zm.4 43.8s.4 0 .4.1c.3-.3-.4-.3-.4-.1zm0 .2v.4c.4.2.4-.6 0-.4zM133.3 160.1v-.3h-.3v.3h.3zm1.1 1.4c-.2.5-.7.8-1.2.9 0-.4.3-.6.4-.9.4.4.4.2.8 0zm0-45.5c.3.4-.7.4-1.1.4.2-.3.8-.1 1.1-.4zM133.4 160.2c.1 0 .2 0 .2-.1 0 0-.2 0-.2.1zm.4-41.5h-.2c0-.1.1-.1.2 0zM134.8 161.7h-.2c0-.1 0-.2-.1-.2-.1-.2.5-.1.3.2zm-.3-44.3c.1 0 .2 0 .2.1-.1 0-.2 0-.2-.1zm.2 42.8c.3 0 .1.5.5.4.1-.4-.3-.8-.5-.4zm.1-2c-.1 0 0 .1 0 0zm.2-42c.3-.6.9-.2 1.4-.4-.4.5-.9.2-1.4.4zm.2 1.7c-.1.5.6.2.8.1-.4 0-.6 0-.8-.1zM135.6 117.1c0 .2-.2.1-.3.2.1-.2.2-.1.3-.2zm-.1 42.1c.1 0 .2 0 .2-.1-.1 0-.2 0-.2.1zm.2-41.8s0 .1 0 0c-.1 0-.1 0 0 0zm.4 42.2c0 .4-.4-.3-.4.1.1 0 .1.1.1.3.3.1.6-.4.3-.4zM136.2 157.3c0 .1-.2.1-.3.1 0-.1.2-.1.3-.1zm.1.9c-.3-.1-.4.1-.4.3.3 0 .4-.1.4-.3.1 0 .2-.1.2-.2.3.2.6-.2.3-.2 0 .1-.3.1-.3.2-.1 0-.2.1-.2.2zm.5-1.3c0 .2-.2.1-.3.2 0-.2.2-.1.3-.2zm.8-41.1c-.7.1-1.2-.2-.2-.1.9-.4 2.2-.3 3.4-.5-.8.5-2.3.3-3.2.6zM137.6 157.2c.8.2 1.1-.9 1.8-1 .1-.2-.1-.2-.1-.3h.3c-.1-.1 0-.2.1-.2v-.2c-.1 0-.1-.1-.1-.1h-.3c0 .1 0 .1-.1.1 0 .2.1.2.1.4-.8.2-1.3.8-1.7 1.3zm.8-40.1c.1.2.4.2.4-.1-.1.1-.4.1-.4.1zm.9 1.2c.1-.5-.7-.1-.8 0h.8zm-.6 41.1c-.4-.2.1-.4.4-.3 0 .2-.4.1-.4.3zm.1-40.9c-.1.3.7.3.6.1-.2 0-.2-.2-.6-.1zm.5 40.5c-.1 0-.1-.1-.2-.1v-.3c.2 0 .2.2.2.4zM139.4 158.9c0-.5.4-.4.8-.4-.1.3-.4.4-.8.4zM139.6 156.6c.1 0 .3 0 .3-.1-.1 0-.3-.1-.3.1zM139.8 154.9c.3-.1.1.3.4.3.1-.3-.3-.7-.4-.3zm.2.6c.7.1.7-.6 1.1-.4 0-.4.4-.4.5-.7h-.6c.3.7-.4.4-.6.6.3.3-.4.3-.4.5zm1.3-38c-.6 0-.9.3-1.2.6 1.2 0 1.6-.1 2.5-.1-.1-.4-.1-.3.1-.5.3-.1.7.2.6-.2.3.1.2.2.1.6.4-.1.6-.1.8-.3-.2 0-.4 0-.4-.1.6.1.8-.3.8-.7-.3-.1-.1.4-.4.3-.1-.1-.2-.3-.5-.3-.1.1-.2.2-.4.2-.1-.2-.1 0 0 0v.3c-.2.2-.5-.2-.6.2-.3 0-.5 0-.5-.4.4.1.7 0 .8-.2-.7-.2-1.1.3-1.2.8-.3-.1-.7.4-.9 0 .2-.1.4 0 .4-.2.1-.1 0-.2 0 0zM140.7 118.2c0 .3-.4.1-.4.4.3.1.7-.2.4-.4zm-.2 39.5c0 .1-.1 0-.2.1 0-.1.2-.1.2-.1zm0 .5v.2h-.2v-.2h.2zm-.1-40.7c.3.2.4-.4.1-.4 0 .1 0 .2-.1.2v.2zm0 37.1c.1 0 .3 0 .3-.1-.1 0-.3 0-.3.1zm1.1 1.9c-.2.3-.4.6-1 .6.1-.4.5-.2.5-.5.1 0 .2 0 .1-.1h.4zM142.2 157.1c0 .5-.4.6-.8.7-.1-.2-.1-.3-.3-.4-.1 0-.1.1-.2.1 0 .2.3.2.4.3-.1.3-.2.1-.5.1 0-.1 0-.3-.1-.4.1-.3.4-.3.8-.3 0 .1 0 .2.1.2s.2-.1.1-.2c.3 0 .3-.2.5-.1zM141.5 115.3c.1-.3.7-.3 1-.1-.3.2-.5.1-1 .1zm.7 2.9c-.3 0-.6 0-.6.3.3 0 .5-.1.6-.3zm-.2 36c-.2 0-.2-.2-.4-.2v.4c.2 0 .3-.1.4-.2.4 0 .5-.2.6-.4.2-.1 0-.2 0 0-.4-.1-.5.1-.6.4zm-.4 2.3v-.3c.1 0 .1 0 .1-.1.3-.1.2.5-.1.4zM141.9 153.6c.3 0 .8 0 .7-.4-.3 0-.3-.1-.5-.1-.1.2-.2.3-.2.5-.2 0 0 .1 0 0zM142.8 153.2c0-.3.4-.1.4-.4-.2 0-.1-.2 0-.3-.1 0-.3 0-.4.1.1 0 .2.1.2.2-.3-.1-.3.4-.2.4zm-.1 3.4c.1-.2.2-.3.4-.3-.1.2-.2.3-.4.3zm.1-41.4c.1-.3.4-.3.5-.1-.1.3-.2.1-.5.1zm0 1.3c.2 0 .1-.1 0 0zM143.6 153.4c.1-.5-.8-.4-.6.2.3 0 .2-.3.6-.2zm-.5-35.1c.1 0 .2 0 .2-.1-.1 0-.2 0-.2.1zm0 38c.3-.2.4-.6.8-.6-.3.2-.4.9-.8.6zm.9-4.2c-.3-.3-.7.2-.7.6.6-.1.1-.5.7-.6zM144 152.3c.1.4-.1.3-.1.6.3.1.6-.7.1-.6zm.2 2.2c0 .1-.2.1-.3.1 0-.1.2-.1.3-.1zm.3-1.7c0 .4-.5.2-.5.6.4 0 .8-.4.5-.6zm-.2-.9c.5.1-.1-.6 0 0-.2 0 0 .1 0 0zm.2 2.4c0 .1-.1 0-.2 0 0-.2.2-.1.2 0zm.4-36.2c-.2-.2-.5-.2-.5.1.2 0 .4.1.5-.1zm-.5 37.3c0-.3.3-.3.4-.5.3.2-.1.5-.4.5zM145 115.3c-.1-.1-.4 0-.4-.3.8.1 1.5.1.4.3zm1.1 2.1c-.5-.1-1.2 0-1.3.5.5-.3 1-.1 1.3-.5zm-1.3 34.5c.1-.1.2.1.2 0 0-.2-.2-.2-.2 0zM145.1 151.3c0-.2.1-.5-.1-.5 0 .2-.3.1-.2.5h.3zm0 3.2h-.2c.1-.1.1-.2.1-.3.3 0 .3.1.1.3zm0 .6c-.3-.2.3-.7.5-.3-.1.2-.5 0-.5.3zm.3-38.1c0 .3-.6-.1-.4.4.3 0 .7-.3.4-.4zm.2 33.7c-.2 0-.4-.1-.3.2.2 0 .3-.1.3-.2zM146 154.2c.2.1-.8.5-.4.1 0 0 .3-.3.4-.1zm-.4-36c.1 0 .3 0 .3-.1-.1 0-.3 0-.3.1zM145.7 150.5c.2 0 .2.2.3 0 0-.1-.2-.1-.3 0zm.2 3.3c-.4-.3.4-.5.7-.6v.2c-.4 0-.5.2-.7.4zm.3-3.6c.6 0 .1-.5 0 0-.5-.2 0 .3 0 0zm.6-35.1c-.1.4-.4 0-.8.1 0-.3.6-.1.8-.1zm-.7 3.1c.3 0 1.1.2 1.2-.1-.3.1-1-.2-1.2.1zm.4 32.9h-.3c0 .2-.1.2-.1.3.2 0 .4 0 .4-.3zm.1 2.5s0 .1 0 0c-.1 0-.1-.1 0 0zM147.3 117.4c0-.2.1-.6-.2-.5-.1.3-.4.3-.5.6.3 0 .6 0 .7-.1zm-.7 34.8v-.2c.1 0 .1.2 0 .2zm0 1.2c.3-.1.3-.5.7-.4-.2.2-.3.5-.7.6v-.2zM146.7 153c0-.5.4-.4.7-.5-.3-.6.4-.5.5-1 .4.2.8.2.8-.3.2.7-1.1 1.7-2 1.8zm.5-3.9c-.2 0-.3.1-.4.2.2 0 .3-.1.4-.2zm-.3-31.2c.8.1 1.8 0 2.6.2.1-.5-.4-.2-.5-.5.4.1.5-.1.6-.3-.6.3-.8-.1-1.2.1.3 0 .4.2.5.3-.7.4-1.5-.4-2 .2zm1.1-2.7c-.1.2-.8.1-.9 0 .3-.4.6.1.9 0zm-.5 36.5c-.2 0-.2-.3-.1-.4.1.1.2.3.1.4zm0-34.6c.1 0 .3 0 .3-.1-.2.1-.3.1-.3.1zm.5 34c0 .1-.2 0-.2.2.1-.1.2 0 .2-.2zm.3-.6c0 .1-.1.1 0 0-.1 0-.1 0 0 0zm.8-35.2c-.1.5-.5 0-.8 0 .1-.3.6 0 .8 0zM148.6 151.1c.6-.4 1.2-.7 1.3-1.5.4.4.4-.4.8-.4-.5.9-.9 1.7-2.1 1.9zm.2-34c.1 0 .2 0 .2-.1-.1.1-.2.1-.2.1zm.1 31.4c.2-.1 0-.2 0 0-.2 0 0 .1 0 0zm.8-31.1c.1-.1.3 0 .3-.1-.1 0-.3 0-.3.1zm0 .7c.2.1.3.2.6.1.1-.3-.6-.3-.6-.1zM151.8 118.2c-.1-.5-1-.4-1.4-.3.3.2 1.1.1 1.2.4 0-.1 0-.1.2-.1zM151.1 148.7c0 .1-.1.2-.2.1.1 0 .1-.1.2-.1zm.6-.5c-.2.3-.2.6-.6.6.1-.3.2-.6.6-.6zM152 147.5c0-.2.4-.2.3-.5.3.1 0 .5-.3.5zM153.8 118.7c-.4.2-.4-.2-.8-.2-.2.5.5.1.4.6.3 0 .5-.1.4-.4zm-.6 27.1c-.2-.2.2-.6.4-.7 0 .5-.2.6-.4.7zM154.2 144.1c-.2-.3.7-1.4 1.2-1.7-.3.7-.8 1.6-1.2 1.7zm.5-24.6c.1 0 .2 0 .2-.1 0 0-.2 0-.2.1zM155.1 142.1c.2-.5.6-.7.8-1.1.3.4-.3 1.4-.8 1.1zm.8-1.3c-.3 0 0-.4 0-.4.3 0 0 .4 0 .4zm.4-3.3c-.1.1-.2.3 0 .3 0-.1.1-.2 0-.3.4-.1 0-.5 0 0zm.2 2.3c-.1.4-.5-.3-.1-.3 0 .1 0 .3.1.3zm.1-3.3c-.1-.2-.1 0 0 0-.1.5.4 0 0 0zm.1 2.8c-.4-.2.3-1.1.5-1.2 0 .6-.2.8-.5 1.2zm.4-1.2c0-.3-.3-.8.3-.6 0 .3 0 .5-.3.6zm.5-4.6c-.3-.1-.5.6-.1.6-.1-.3 0-.5.1-.6zm.2 2.8c-.1.4-.2.8-.4 1.2-.1-.5-.2-1.2.4-1.2zm-.1-.1c.2-.7 0-1.2.5-1.4-.1.7 0 1.2-.5 1.4zm1.1-6.2c.4 1.6-.3 2.9-.5 4.7h-.1c-.1-1.3.5-3.1.6-4.7zm0-.5M162.3 171.8c-.1-.1-.1 0 0 0-.4.3-.9.4-.9.7-.3.4-.7.4-1.2.6-3 1.9-6.7 8.1-10.9 6.4-.1-.5-.4-.9-.6-1.3 0-.4-.3.1-.3-.1-.2-.4-.4-.7-.6-1.1 1-5 3.7-8.4 6.4-11.9 1-.8 2.2-1.7 3.9-1.7 1.6.4 3.5.9 3.7 2.8.1 1.1-.3 1.8-.7 2.5.6 0 1.2-.6 2.2-.4 1.3.5 1.5 3.2.6 4.1.6 1.1-.6 2.7-.1 3.9 7.2-1.2 11.2-6.3 15.6-10.5-.5 3.8-4.4 5.8-6.9 8.4-1.7.9-2.9 1.8-4.7 2.6.1.2.4-.2.7-.1-.1.2-.4.1-.4.4 3-1 4.8-3.5 7.3-4.6-.1-.2-.3.1-.4 0 .1-.2.4-.6.5-.1.2-.5 1-1.4 2-1.6-3.1 3.7-7.1 6.3-11.8 8.5-.6.1-1.2-.1-1.8-.1-1.1-.4-1.4-.9-1.9-1.9.1-1.6 0-3.8.3-5.5 0 .1 0 0 0 0zm-12.9 5.5c.1 0 .2.1.4.1.1-.2-.4-.2-.4-.1zm.5-.5c.1-.2.4-.4.4-.8.1 0 0-.1 0 0-.2.2-.6.7-.4.8zm9.8-7.3c-.6-.5-.2-2.2-.4-2.9-4.8 1.5-6.5 6-8.6 10.2 3.8-1.7 6.1-4.7 9-7.3zM159.8 171.3c0-.1.2-.1.2-.3.1 0 .1.1.1.1.1-.1.1-.1.1-.3-.1 0-.2.1-.2.2-.2-.1-.4.3-.2.3zm.9-1c0 .2-.4 0-.3.3.1.1.6-.2.3-.3zm7.2 6.6c-.3 0-.6 0-.5.3.1-.1.4-.1.5-.3zm.3.1c-.3.1-.6.1-.7.4.3-.1.6-.1.7-.4zm1.1-2.1c-.2-.1-.3.1-.4.2.3 0 .3-.2.4-.2h.2c-.1.3-.5.4-.8.5 0-.1.4-.3 0-.3-.1.3-.3.7-.7.4-.1.2-.3.6 0 .6 3.9-2 7.6-4.7 10.2-7.9-2.8 2.4-5.4 4.9-8.6 6.8-.2-.3-.3-.3-.3-.1zm-.4 1.8c-.2-.1.1-.3.3-.3 0 .2-.3.1-.3.3zm8.8-6.4c.1.1.1-.1.4-.1.1.3-.4.4-.4.1zm.3-.4c.1-.1.3-.1.3-.4.2.2-.1.5-.3.4zm.6-2.2c-.2.1-.4.1-.4.3.2.2.3 0 .4-.3zm.1-.2"/><path d="M192.8 163c-2.3.9-3.9 3-5.9 3.7-.1.6-.4 1.2-1 1.3-2.2 3-4.3 6-6 9.4-.2 1.7-1 2.7-2.4 3.2-3.6-1.7-1.5-7.3-1.2-10.6.7-1.7.8-4.2 1.6-5.5 3.2.7 1.9 4.1 1.5 6.4 1.7-2.5 3.7-4.6 5.8-6.8 1.9-1.7 6.8-4 8.6-.6-.3-.2-.7-.4-1-.5zM189.3 162.8c-.2-.5.6-.1.6-.6-.5.1-.9.2-1.2.1-4 2.3-7.1 6-9.3 10.1 2.5-3.6 5.3-7 8.9-9.4.7.1.7-.3 1-.2zm-3.7 4.2c0-.1 0-.2-.1-.1 0 0 0 .2.1.1 0 .1 0 0 0 0zM186.9 165.7h-.2c.1.4-.6.5-.4.8.1-.3.6-.3.6-.8zm.9-.9c-.2.1-.8.2-.6.5.2-.2.5-.2.6-.5zm1.7-1c-.1-.2.3-.5-.1-.4-.4.5-1.2.8-1.6 1.3.6-.1 1.1-.9 1.7-.9zm-1.1-.8c0 .1-.1 0 0 0zM190.3 163.3c-.3-.1-.7 0-.5.4.3-.1.4-.3.5-.4zm.1 0c.3-.1.6-.1.7-.4-.2.1-.4.1-.6.1 0 .1 0 .2-.1.3zM201.3 174.4c-.4.2-.9.4-1.2.7.4.1 1-.3 1.2-.7 1.3-.2 2.2-1.1 3.2-1.7 1-.3 1.7-1.3 3-1.7 1.3-1.2 2.7-1.8 4.2-2.7-.1.3-.4.4-.2.7-1 .1-1.9.9-2.2 1.4-2.7 1.3-5.5 3.4-8.2 5-.1 0-.2 0-.2.1.1 0 .2 0 .2-.1 1.2-.6 2.6-1.2 3.2-1.9 1.5-.7 3.2-2.1 5-3.2.5.1.4-.4.9-.4.1.3-.2.2-.1.5-.4 0-.7 0-.7.4-.1 0-.1.1-.1.1-.1.1-.2.1-.4.2 0 .1.1.3.3.2-.1.3-.2.1-.4.1.1.4-.1.5-.3.7-.2 0-.3-.1-.4-.3 0-.2.1-.2.3-.2-.6-.4-.9 1.1-1.7 1.2.1.2.4.2.1.5-.2 0-.5.1-.4-.3-.1 0-.1.3-.3.2-.1.3.4 0 .3.4-.4.2-.3-.2-.7-.1-.1.4.2.2.1.4-.3.1-.2-.2-.5-.1-.1.3.3.1.2.3-.6.6-1.9 1.6-3.2 2.2-.1 0-.1.2-.1.4-.5 0-.7.4-.8.7-3.6 2.7-10.3 3.6-11.7-1.9-.1-1.4.1-1.9.4-3.4 1.2-3 1.5-6.5 4.1-8.4 1.4.1 2.1 1 2.4 2.3-.2.1-.4.1-.7.1-1.4 2.4-2.7 5.6-3.2 8.5-.5.6-.4 1.4-.2 2.4 2.5.4 5.9-1.3 8.1-2.5 0-.1-.1-.2-.1-.4.4-.1.4-.2.9-.1-.1.3-.1.3-.1.4zm-3.1-18.1c-1-.4-1.9-.7-2.2-1.9 1-.7 1.7-2.2 3.5-2 .9 1.6.3 3.4-1.3 3.9zm2.4 19.3c-.2 0-.3.1-.4.3.3 0 .5-.1.4-.3zm1.2-1.9c.1.1-.3.3 0 .3-.1.3-.3-.1-.3-.3h.3zm10.5-5.6h.2c0-.1-.1-.2-.2-.2.2-.3.6-.4.7-.9-3.2 1.4-5.8 3.9-8.9 5.2-.2.1.2.1.2.3-1 .3-1.4 1.2-2.4 1.4 0-.1 0-.1-.1-.1 4-2.8 7.9-5.5 12.5-7.6-.1.2-.5.2-.6.4.1.3.3-.2.6-.1-.8.7-1.3 1.7-2.5 2.1 0-.1.1-.1.1-.3.2-.1.4-.1.4-.2zm-7.9 4.5c0-.1 0-.1 0 0zm.1 0c-.1 0-.1 0 0 0zM207 173c.1-.2.4-.2.4-.5.4.1-.2.7-.4.5zm1-.6c-.1.2-.2.1-.4 0 .1-.2.4-.1.4 0zm1.5-1.5v.3c-.1 0-.4 0-.3-.2.1 0 .1 0 .1-.1h.2zm.8-.9c-.1.1-.1.1-.2.1 0-.1.1-.1.2-.1zm1-.5c-.2.3-.6.4-.9.5 0-.4.4-.5.9-.5zm0-.1c0-.2.1-.2.4-.2-.1.1-.2.1-.4.2zm.6-1.2h-.2c.1-.2.3-.2.4-.4 0 .1.1.1.1.2-.1.1-.2.1-.3.2zm1.5-1.4c-.1 0-.4 0-.4.2.2 0 .4 0 .4-.2z"/><path d="M225.2 170.2c.1 0 .1-.1.1-.1.1-.2-.1-.1-.3-.1 1.9-1.8 4-3.2 6-5 .1.1.1.3.4.3-.4 1.2-.8 2.2-1.9 2.7-.1.3.1.1.3.1-.3.4-.7 1-1.1.9-.2.1.1.1 0 .4-.8.3-1.2.5-1.6 1.3-1 .1-1.8 1.1-2.7 1.6.6.4.9-.8 1.7-.8.1.2-.1.1-.1.4.2 0 .2-.3.6-.2 0-.3-.2-.3-.1-.6.6.3.9-.6 1.5-.6v.5c-.4 0-.7.6-1.1.4 0 .1.1.3.1.3-1.7 1.7-4.2 3-6 4.5-.1 0-.1-.1-.1-.2-2.8 2.6-6.4 4.4-9.1 7.1.2 3.2 1.5 6.8 1 10.4-.3 1.2-1 2.7-1.8 4-1.5 1.3-4 3-6.6 2.1-1.9-1.2-2.9-3.3-3.5-5.7-.1-1-.3-1.7 0-2.6 1.7-4.3 4.9-7.3 8.1-10.5.1-.8-.1-1.5-.1-2.4h.3c-.4-2.5.1-5.1.2-8.5 1.2-2.4 1.7-5 3.8-6.4 1.4.6 3 1.3 2.4 3-.9-.1-1.4.4-1.8.7-2.1 4.2-2.7 7.4-2.2 12.2 2.9-1.9 5.8-4.3 8.7-5.9 0-.1-.1-.1-.1-.3.9-.3 1.1-1.2 2.2-1.2 0-.1-.1-.2 0-.3.3 0 0 .1.1.3.9-.6 1.2-1.4 2.3-1.8.2-.2.2 0 .4 0zm-22.9 19.2c.1.2-.1.2-.1.4.3.1.3-.5.1-.4zm.6-.6c-.1.1-.3 0-.2.2.1 0 .2 0 .2-.2zm-.1-.1c.4 0 .4-.3.4-.6-.2-.1-.4 0-.4.1.5.2 0 .2 0 .5zm1-1.4c-.4 0-.4.4-.5.6.3 0 .4-.2.5-.6zm4.3 7.9c2.7-2 3.1-7.1 2.1-10.7 0 0 0-.1-.1-.1-2.8 2.9-6.5 6-6.6 11.5 1.4 1.1 3.4-.1 4.6-.7zM205.1 185.4c-.2.5-.7.6-.9 1.2.4-.2 1-.7.9-1.2zm.5-.2c0 .1.1.1.1.1-.1-.4.4-.5.4-.9-.4.1-.6.4-.7.8h.2zm.8-1.3h.3v-.3h-.2c0 .1 0 .1-.1.1v.2zm1.6-1.3h-.3c0 .1 0 .2.1.2-.1-.1.2-.1.2-.2zm.1-.3c.2 0 .3-.1.4-.2.2 0 .3-.1.4-.3-.2 0-.3.1-.4.3-.3-.1-.3 0-.4.2zm1.1-3.5c.1.6-.1 1.2.1 1.7.1-.5 0-1.2-.1-1.7zm2.8 2c.2-.1.3 0 .3.2.5-.2 1.2-.7 1.3-1.1-.1.1-.2.3-.4.4 0-.4 0-.6-.2-.8-.1.2.1.4-.1.5-.1 0-.1-.4-.2-.1.1.1-.1.5-.2.5 0-.2-.2-.3-.2-.5.2-.1.3-.4.4-.6-.4.1-.4.3-.7.4-.2.6.4.6 0 1.1zm.9-1.5v-.1h-.1v.1h.1zm2.3-.6c.1.1-.3.3 0 .4 0-.2.3-.1.2-.4h-.2c.1-.3-.4-.6.2-.7.1.1 0 .3-.1.4.3-.1.4-.1.3.2.7-.4 1.2-1 1.9-1.3 0-.3-.4-.2-.5-.4.1-.2.3-.4.6-.4.1.1-.4.3-.1.5.9.1 1.2-.9 2.1-1.1-.1-.3.2-.5.2-.9.4-.1 1.4-.9 1.6-1.2 0 .2-.2.2-.3 0 0-.2.4-.1.3-.3-.6.3-1.2.4-1.4 1 0 .1.2 0 .2.1-.1.1-.2.2-.5.2-.4-.4-1.8.6-2.2 1.2.1 0 .4-.1.4.1-.1 0-.1.1-.3.1-.1-.1-.3-.2-.6-.1-.2.1-.3.9-.5.6 0-.1.2-.1.1-.3-.6.4-2.1 1.1-1.7 1.7-1.2-.4-1.7.7-1.7 1.8.4.1.1-.4.5-.4 0 .2-.1.3.1.4.1-.1.2-.4.5-.4v-.1c.6 0 .6-.6.9-.7zm-1.6.6c-.2.1-.1-.4.1-.2-.1.1-.1.2-.1.2zm0-.5c.1 0 .2.1.1.4-.1 0-.1-.1-.1-.1v-.3zm.6.1c.2.1.3.3.3.6-.3-.1-.6-.4-.3-.6zm.6-.2v.1c-.2-.1-.2.1-.4-.1 0-.1.2 0 .2-.1.1-.1.1 0 .2.1zm.5-.8c.2-.4.6-.6.9-.9-.1.5-.5.7-.9.9zm.9 0c-.1-.2.1-.1.3-.1 0 0-.1.1-.3.1zM217.2 176.2v.2h-.1v-.2h.1zm2-.4c0 .2-.4 0-.3.3-.4-.4.4-.7.8-.9 0 .3-.8.3-.5.6zm4.7-3.9c-.9.1-1.4.6-1.9 1.1.3.1.4-.1.6.1.1-.6.6-.9 1.3-1-.7 1.6-2.4 1.8-3.4 3.2 1.1-.6 2.2-1.2 3.1-2.2-.2-.1-.3.4-.4.1.3-.3 1.3-.3 1.2-.8-.1.4-.4.1-.4-.1.2-.2.8-.5.6-.9.4 0 .5-.4.7-.3-.1-.5-.6-.1-.8 0 0 .1.1.1.1.3-.4 0-.6.2-.7.5zM221.9 172.3c-.3.1-.5.1-.5.4.2 0 .3-.3.5-.4zm0 .8c-.2 0-.4.1-.4.4.3-.1.5-.1.4-.4zM223.2 172.8v-.1h-.1v.1h.1zm1.5-2.4c-.2 0-.3.1-.3.1.2 0 .3 0 .3-.1zM226.5 170.5c.1-1.2-1.1 0-1.2.4.6 0 .8-.9 1.2-.4zM225.7 169.7c.3-.1.4-.3.6-.4-.1-.2-.6.2-.6.4-.2.1 0 .1 0 0zM227 170.1c0-.3-.2-.3-.4-.4 0 .1-.1.1-.1.1.3.1.2.4.5.3zM227 168.7c.4-.2.7-.4.9-.8.1.1.4-.2.1-.3 0 .1-.1.1-.1.3-.4.3-.7.5-.9.8zm.8.9c-.3-.4 0-.4.1-.7-.3.1-.9.4-.7.7.1-.2.3.1.6 0zM228.3 170.5c-.3-.6.6-.8 1.2-.9-.2.5-.7.7-1.2.9zm.9-2.6c-.5.1-.6.4-.9.8.7-.1 1.1-.9 1.3-1.2-.1-.2-.3.1-.4.1-.1.1-.1.2 0 .3zm-.1-.9c.1-.1 0-.1 0 0-.1.1 0 .1 0 0zm.4 2.3c-.1-.4.3-.4.5-.5-.1.3-.4.4-.5.5zM229.9 167c-.1.1-.3.1-.2.2.2.1.4-.2.2-.2zm.2-.8c-.3-.1-.4.4-.1.4-.1-.3.1-.3.1-.4zm.1-.1"/></svg>