<?xml version="1.0" standalone="no"?>
<!DOCTYPE svg PUBLIC "-//W3C//DTD SVG 20010904//EN"
 "http://www.w3.org/TR/2001/REC-SVG-20010904/DTD/svg10.dtd">
<svg version="1.0" xmlns="http://www.w3.org/2000/svg"
 width="16.000000pt" height="16.000000pt" viewBox="0 0 16.000000 16.000000"
 preserveAspectRatio="xMidYMid meet">
<metadata>
Created by potrace 1.11, written by Peter Selinger 2001-2013
</metadata>
<g transform="translate(0.000000,16.000000) scale(0.004000,-0.004000)"
fill="#000000" stroke="none">
<path d="M1795 3979 c-556 -58 -1066 -351 -1398 -801 -379 -515 -487 -1189
-287 -1798 169 -517 551 -948 1045 -1181 319 -151 698 -215 1043 -179 467 50
878 246 1207 575 888 888 744 2356 -299 3057 -385 258 -854 375 -1311 327z
m460 -898 c44 -11 127 -44 185 -72 92 -46 116 -64 195 -143 160 -162 231 -325
256 -588 14 -151 2 -242 -36 -275 l-26 -23 -666 0 -666 0 7 -64 c18 -176 77
-319 170 -411 109 -108 218 -148 396 -148 154 1 249 29 415 120 44 25 99 49
121 55 65 18 93 0 189 -121 l85 -106 -69 -65 c-196 -187 -499 -282 -846 -267
-519 23 -879 359 -955 892 -15 105 -12 330 5 428 74 424 367 722 789 803 104
20 347 12 451 -15z"/>
<path d="M1874 2735 c-159 -35 -267 -135 -330 -309 -12 -33 -25 -80 -29 -103
l-7 -43 466 0 466 0 0 46 c0 56 -24 154 -52 207 -85 168 -294 250 -514 202z"/>
</g>
</svg>
